SplineFontDB: 3.2
FontName: SeriousShannsLight
FullName: Serious Shanns Light
FamilyName: Serious Shanns Light
Weight: Light
Copyright: https://github.com/kaBeech/serious-shanns/blob/main/LICENSE
Version: 6.0.0
ItalicAngle: 0
UnderlinePosition: 0
UnderlineWidth: 0
Ascent: 800
Descent: 200
InvalidEm: 0
sfntRevision: 0x00003333
LayerCount: 2
Layer: 0 0 "Back" 1
Layer: 1 0 "Fore" 0
XUID: [1021 329 -1817886000 12366394]
StyleMap: 0x0040
FSType: 4
OS2Version: 3
OS2_WeightWidthSlopeOnly: 0
OS2_UseTypoMetrics: 0
CreationTime: 1532631502
ModificationTime: 315532800
PfmFamily: 81
TTFWeight: 300
TTFWidth: 5
LineGap: 0
VLineGap: 0
Panose: 0 0 0 0 0 0 0 0 0 0
OS2TypoAscent: 613
OS2TypoAOffset: 0
OS2TypoDescent: -188
OS2TypoDOffset: 0
OS2TypoLinegap: 98
OS2WinAscent: 778
OS2WinAOffset: 0
OS2WinDescent: 308
OS2WinDOffset: 0
HheadAscent: 796
HheadAOffset: 0
HheadDescent: -317
HheadDOffset: 0
OS2SubXSize: 317
OS2SubYSize: 293
OS2SubXOff: 0
OS2SubYOff: 37
OS2SupXSize: 317
OS2SupYSize: 293
OS2SupXOff: 0
OS2SupYOff: 171
OS2StrikeYSize: 0
OS2StrikeYPos: 132
OS2CapHeight: 576
OS2XHeight: 485
OS2Vendor: 'NONE'
OS2CodePages: 00000001.00000000
OS2UnicodeRanges: 00000001.00000000.00000000.00000000
MarkAttachClasses: 1
DEI: 91125
LangName: 1033 "" "" "Normal" "FontForge 2.0 : Serious Shanns Light : 1-1-1980" "" "Version 0.2.0"
Encoding: UnicodeBmp
Compacted: 1
UnicodeInterp: none
NameList: AGL For New Fonts
DisplaySize: -48
AntiAlias: 1
FitToEm: 0
WinInfo: 48 16 4
BeginPrivate: 8
BlueValues 32 [-39 -8 492 523 690 718 765 769]
OtherBlues 11 [-297 -287]
BlueScale 9 0.0333333
BlueShift 2 17
StdHW 4 [67]
StdVW 4 [73]
StemSnapH 4 [67]
StemSnapV 7 [68 73]
EndPrivate
BeginChars: 65537 105

StartChar: .notdef
Encoding: 65536 -1 0
Width: 640
GlyphClass: 1
Flags: HMW
HStem: -258 34<149.5 490.5 149.5 524.5> 705 34<149.5 490.5 149.5 149.5>
VStem: 115.5 34<-224 -224 -224 705> 490.5 34<-224 705 705 705>
LayerCount: 2
Fore
SplineSet
115.5 739 m 1
 524.5 739 l 1
 524.5 -258 l 1
 115.5 -258 l 1
 115.5 739 l 1
149.5 -224 m 1
 490.5 -224 l 1
 490.5 705 l 1
 149.5 705 l 1
 149.5 -224 l 1
EndSplineSet
Validated: 524289
EndChar

StartChar: exclam
Encoding: 33 33 2
Width: 640
GlyphClass: 2
Flags: HMW
HStem: -15.3799 135.375
VStem: 248.5 143.001 282.5 78.001 290.5 72
LayerCount: 2
Fore
SplineSet
368.5 738 m 0x90
 368.5 732 367.166992188 694.669921875 364.5 626.002929688 c 0
 362.5 557.3359375 361.5 507.668945312 361.5 477.001953125 c 0
 361.166015625 461.66796875 360.999023438 447.583984375 360.999023438 434.75 c 0
 360.999023438 421.916015625 361.166015625 410.33203125 361.5 399.998046875 c 0
 362.166992188 379.331054688 362.5 361.6640625 362.5 346.997070312 c 0x90
 362.5 332.330078125 362.166992188 322.663085938 361.5 317.99609375 c 0
 360.611328125 311.331054688 360.166992188 302.1484375 360.166992188 290.44921875 c 0
 360.166992188 284.594726562 360.27734375 278.110351562 360.5 270.99609375 c 0xa0
 359.16796875 259.663085938 354.5 250.663085938 346.5 243.99609375 c 0
 339.16796875 237.329101562 330.16796875 233.99609375 319.5 233.99609375 c 2
 316.5 233.99609375 l 2
 305.833984375 234.663085938 297.166992188 238.330078125 290.5 244.997070312 c 0x90
 285.166992188 250.997070312 282.5 259.330078125 282.5 269.997070312 c 0xa0
 282.5 276.6640625 283.83203125 287.997070312 286.5 303.997070312 c 0
 288.5 313.330078125 289.83203125 323.330078125 290.5 333.997070312 c 0
 291.166992188 344.6640625 291.5 367.331054688 291.5 401.998046875 c 0
 291.5 415.998046875 290.83203125 437.331054688 289.5 465.998046875 c 0
 288.166992188 497.331054688 287.5 531.6640625 287.5 568.997070312 c 0
 288.166992188 596.330078125 289.166992188 634.997070312 290.5 684.997070312 c 0
 291.166992188 710.330078125 291.5 726.997070312 291.5 734.997070312 c 0
 292.166992188 750.330078125 296.166992188 761.663085938 303.5 768.99609375 c 0
 310.83203125 776.329101562 320.166015625 779.99609375 331.499023438 779.99609375 c 2
 334.499023438 779.99609375 l 2
 344.499023438 779.99609375 352.499023438 776.99609375 358.499023438 770.99609375 c 0
 365.166015625 764.329101562 368.5 753.333007812 368.5 738 c 0x90
372.499023438 7.9990234375 m 0
 359.83203125 -4.66796875 342.83203125 -12.3349609375 321.499023438 -15.001953125 c 0
 318.83203125 -15.251953125 316.2265625 -15.376953125 313.685546875 -15.376953125 c 0
 295.89453125 -15.376953125 281.166015625 -9.251953125 269.5 2.998046875 c 0
 255.5 16.998046875 248.5 33.998046875 248.5 53.998046875 c 0
 248.5 71.3310546875 255.83203125 86.3310546875 270.5 98.998046875 c 0
 287.166992188 112.998046875 305.833984375 119.998046875 326.5 119.998046875 c 0
 345.16796875 119.998046875 360.5 113.998046875 372.5 101.998046875 c 0
 385.16796875 89.3310546875 391.5 73.6640625 391.5 54.9970703125 c 0xc0
 391.5 36.330078125 385.166015625 20.666015625 372.499023438 7.9990234375 c 0
EndSplineSet
Validated: 524289
EndChar

StartChar: quotedbl
Encoding: 34 34 3
Width: 640
GlyphClass: 2
Flags: HMW
HStem: 444.999 328.002
VStem: 197.5 84 356.502 86.998
LayerCount: 2
Fore
SplineSet
402.499023438 773.000976562 m 0
 412.499023438 773.000976562 421.499023438 770.66796875 429.499023438 766.000976562 c 0
 433.499023438 764.000976562 436.833007812 760.66796875 439.499023438 756.000976562 c 0
 442.166992188 750.66796875 443.499023438 744.66796875 443.499023438 738.000976562 c 2
 443.499023438 696.000976562 l 2
 443.499023438 676.66796875 442.833007812 641.000976562 441.499023438 589.000976562 c 0
 440.166992188 537.000976562 438.166992188 499.333984375 435.499023438 476.000976562 c 0
 434.166992188 466.000976562 429.833984375 458.33203125 422.500976562 452.999023438 c 0
 415.833984375 447.666015625 408.500976562 444.999023438 400.500976562 444.999023438 c 2
 397.500976562 444.999023438 l 2
 386.833984375 445.666015625 376.833984375 449.333007812 367.500976562 456 c 0
 360.833984375 460.666992188 357.500976562 467.333984375 357.500976562 476.000976562 c 0
 358.166992188 477.333984375 358.500976562 479.000976562 358.500976562 481.000976562 c 0
 359.833984375 506.333984375 360.500976562 537.3359375 360.500976562 574.002929688 c 2
 360.500976562 612.000976562 l 2
 359.166992188 665.333984375 357.834960938 709.333984375 356.501953125 744.000976562 c 2
 356.501953125 746.002929688 l 2
 356.501953125 751.3359375 357.833984375 756.000976562 360.500976562 760.000976562 c 0
 363.166992188 764.000976562 366.501953125 766.66796875 370.501953125 768.000976562 c 0
 379.834960938 772.000976562 388.501953125 774.002929688 396.501953125 774.002929688 c 0
 399.168945312 773.3359375 401.166992188 773.000976562 402.499023438 773.000976562 c 0
275.499023438 476.000976562 m 0
 274.166015625 465.333984375 269.833984375 457.666015625 262.500976562 452.999023438 c 0
 254.500976562 447.666015625 246.833984375 444.999023438 239.500976562 444.999023438 c 2
 237.500976562 444.999023438 l 2
 226.833984375 445.666015625 216.833984375 449.333007812 207.500976562 456 c 0
 200.833984375 460.666992188 197.500976562 467.333984375 197.500976562 476.000976562 c 2
 197.500976562 481.000976562 l 2
 199.500976562 507.66796875 200.500976562 540.000976562 200.500976562 578.000976562 c 0
 199.833984375 588.66796875 199.500976562 600.000976562 199.500976562 612.000976562 c 0
 198.166992188 665.333984375 197.166992188 709.333984375 196.500976562 744.000976562 c 2
 196.500976562 747.000976562 l 2
 196.500976562 751.66796875 197.500976562 756.000976562 199.500976562 760.000976562 c 0
 202.166992188 764.000976562 205.500976562 766.66796875 209.500976562 768.000976562 c 0
 218.643554688 771.4296875 228.030273438 773.14453125 237.663085938 773.14453125 c 0
 239.268554688 773.14453125 240.880859375 773.096679688 242.499023438 773.000976562 c 0
 252.499023438 773.000976562 261.499023438 770.66796875 269.499023438 766.000976562 c 0
 272.833007812 764.000976562 275.833007812 760.66796875 278.499023438 756.000976562 c 0
 281.166992188 750.66796875 282.499023438 744.334960938 282.499023438 737.001953125 c 0
 283.166992188 729.001953125 283.499023438 715.668945312 283.499023438 697.001953125 c 0
 283.499023438 678.334960938 282.833007812 642.66796875 281.499023438 590.000976562 c 0
 280.166992188 537.333984375 278.166015625 499.333984375 275.499023438 476.000976562 c 0
EndSplineSet
Validated: 524289
EndChar

StartChar: numbersign
Encoding: 35 35 4
Width: 640
GlyphClass: 2
Flags: HMW
HStem: 200 63.999 454.998 65.002 695.002 20G
LayerCount: 2
Fore
SplineSet
279.502929688 454.998046875 m 1
 240.498046875 263.999023438 l 1
 275.831054688 264.666015625 319.168945312 264.998046875 370.501953125 264.998046875 c 2
 378.501953125 264.998046875 l 1
 390.501953125 324.998046875 402.168945312 388.331054688 413.501953125 454.998046875 c 1
 279.502929688 454.998046875 l 1
236.497070312 200 m 1
 228.497070312 200 l 1
 213.1640625 122.666992188 202.497070312 70.6669921875 196.497070312 44 c 0
 192.497070312 32 184.1640625 22.3330078125 171.497070312 15 c 0
 163.497070312 10.3330078125 155.830078125 7.9990234375 148.497070312 7.9990234375 c 0
 145.1640625 7.33203125 141.831054688 7.6650390625 138.498046875 8.998046875 c 0
 129.165039062 10.998046875 122.165039062 17.666015625 117.498046875 28.9990234375 c 0
 114.831054688 35.666015625 113.497070312 42.3330078125 113.497070312 49 c 0
 113.497070312 55.6669921875 114.498046875 62.6669921875 116.498046875 70 c 0
 121.831054688 86.6669921875 132.1640625 129.666992188 147.497070312 199 c 1
 105.497070312 199 l 2
 90.1640625 199 79.1640625 201.666992188 72.4970703125 207 c 0
 66.4970703125 211.666992188 63.4970703125 218 63.4970703125 226 c 2
 63.4970703125 228 l 2
 64.1640625 236.666992188 67.1640625 243.666992188 72.4970703125 249 c 0
 78.4970703125 255.666992188 88.830078125 259.333984375 103.497070312 260.000976562 c 0
 108.1640625 260.66796875 116.1640625 261.000976562 127.497070312 261.000976562 c 0
 138.830078125 261.000976562 149.830078125 261.333984375 160.497070312 262.000976562 c 1
 198.497070312 454.000976562 l 1
 186.497070312 454.000976562 l 1
 144.497070312 453.000976562 l 1
 141.497070312 453.000976562 l 2
 129.497070312 452.333984375 120.1640625 455.000976562 113.497070312 461.000976562 c 0
 106.830078125 466.333984375 103.497070312 473.333984375 103.497070312 482.000976562 c 2
 103.497070312 485.000976562 l 2
 103.497070312 493.000976562 106.497070312 500.000976562 112.497070312 506.000976562 c 0
 119.1640625 512.66796875 129.830078125 516.334960938 144.497070312 517.001953125 c 0
 157.1640625 517.668945312 176.498046875 518.001953125 202.498046875 518.001953125 c 2
 210.498046875 518.001953125 l 1
 240.498046875 680.001953125 l 2
 245.165039062 694.001953125 251.83203125 703.668945312 260.499023438 709.001953125 c 0
 267.166015625 713.001953125 273.833007812 715.001953125 280.5 715.001953125 c 0
 283.166992188 715.001953125 286.166992188 714.668945312 289.5 714.001953125 c 0
 301.5 711.334960938 310.5 705.66796875 316.5 697.000976562 c 0
 319.833007812 691.66796875 321.5 685.000976562 321.5 677.000976562 c 0
 322.166992188 672.333984375 321.833984375 667.666992188 320.500976562 663 c 2
 291.500976562 520 l 1
 424.500976562 520 l 1
 452.500976562 673 l 2
 457.16796875 687 463.834960938 696.666992188 472.501953125 702 c 0
 478.501953125 706 484.834960938 708 491.501953125 708 c 0
 494.834960938 707.333007812 498.501953125 706.666015625 502.501953125 705.999023438 c 0
 514.501953125 703.33203125 523.501953125 697.999023438 529.501953125 689.999023438 c 0
 532.834960938 685.33203125 534.501953125 679.33203125 534.501953125 671.999023438 c 0
 534.501953125 667.33203125 533.834960938 661.999023438 532.501953125 655.999023438 c 0
 525.168945312 627.999023438 516.168945312 582.999023438 505.501953125 520.999023438 c 1
 517.501953125 520.999023438 l 1
 528.501953125 520.999023438 l 2
 542.501953125 520.999023438 553.834960938 517.33203125 562.501953125 509.999023438 c 0
 571.168945312 502.666015625 575.8359375 495.333007812 576.502929688 488 c 0
 575.8359375 479.333007812 572.502929688 471.666015625 566.502929688 464.999023438 c 0
 560.502929688 458.999023438 550.8359375 455.665039062 537.502929688 454.998046875 c 2
 492.502929688 454.998046875 l 1
 460.502929688 263.999023438 l 1
 513.501953125 263.999023438 l 2
 526.168945312 263.999023438 534.502929688 261.666015625 538.502929688 256.999023438 c 0
 542.502929688 252.33203125 544.8359375 245.33203125 545.502929688 235.999023438 c 0
 545.502929688 225.33203125 543.502929688 217.33203125 539.502929688 211.999023438 c 0
 534.8359375 205.33203125 526.168945312 201.999023438 513.501953125 201.999023438 c 2
 449.501953125 201.999023438 l 1
 435.501953125 121.33203125 425.501953125 67.33203125 419.501953125 39.9990234375 c 0
 414.834960938 28.666015625 406.834960938 19.9990234375 395.501953125 13.9990234375 c 0
 388.168945312 9.9990234375 380.8359375 7.9990234375 373.502929688 7.9990234375 c 0
 370.169921875 7.33203125 366.502929688 7.6650390625 362.502929688 8.998046875 c 0
 352.502929688 11.6650390625 345.169921875 17.998046875 340.502929688 27.998046875 c 0
 337.8359375 33.998046875 336.502929688 39.998046875 336.502929688 45.998046875 c 0
 336.502929688 51.998046875 337.502929688 58.6650390625 339.502929688 65.998046875 c 0
 346.169921875 92.6650390625 355.502929688 137.665039062 367.502929688 200.998046875 c 1
 355.502929688 200.998046875 l 1
 236.497070312 200 l 1
EndSplineSet
Validated: 524289
EndChar

StartChar: dollar
Encoding: 36 36 5
Width: 640
GlyphClass: 2
Flags: HMW
HStem: -18.9971 64.9971 368 63.0029 653 59<354.498 363.5 354.498 363.5>
VStem: 112.501 72.999 292.5 58 292.5 63.002 471.499 73.999
LayerCount: 2
Fore
SplineSet
467 245.50390625 m 0xfa
 464 257.170898438 458.5 269.337890625 450.5 282.004882812 c 0
 442.5 294.671875 430.833007812 306.338867188 415.5 317.005859375 c 0
 400.166992188 327.005859375 382.166992188 336.005859375 361.5 344.005859375 c 2
 350.5 349.005859375 l 1
 350.5 335.005859375 l 1
 349.499023438 187.005859375 l 2
 348.83203125 132.338867188 348.165039062 89.671875 347.498046875 59.0048828125 c 1
 360.499023438 65 l 2
 391.166015625 79 417.166015625 98.337890625 438.499023438 123.004882812 c 0
 460.499023438 147.671875 471.499023438 176.004882812 471.499023438 208.004882812 c 0
 471.499023438 221.337890625 470 233.836914062 467 245.50390625 c 0xfa
213.498046875 469.002929688 m 0
 230.165039062 451.669921875 252.83203125 439.002929688 281.499023438 431.002929688 c 2
 292.5 429.002929688 l 1xf6
 293.166992188 483.002929688 293.499023438 551.002929688 293.499023438 633.002929688 c 2
 293.499023438 646.002929688 l 1
 281.499023438 643.002929688 l 2
 254.166015625 633.669921875 231.833007812 619.336914062 214.5 600.00390625 c 0
 195.166992188 581.336914062 185.5 558.336914062 185.5 531.00390625 c 0
 185.5 507.00390625 194.831054688 486.3359375 213.498046875 469.002929688 c 0
216.5 -11 m 0
 196.5 -5.6669921875 179.501953125 2 165.501953125 12 c 0
 136.834960938 30.6669921875 115.834960938 52.333984375 102.501953125 77.0009765625 c 0
 97.1689453125 89.0009765625 94.501953125 99.333984375 94.501953125 108.000976562 c 0
 94.501953125 119.333984375 99.8349609375 127.666992188 110.501953125 133 c 0
 117.834960938 136.333007812 123.16796875 138.333007812 126.500976562 139 c 0
 129.833984375 139.666992188 132.500976562 140 134.500976562 140 c 2
 140.500976562 140 l 2
 144.500976562 140 148.66796875 138.166992188 153.000976562 134.5 c 0
 157.333984375 130.833007812 162.166992188 125 167.5 117 c 0
 181.5 95 197.833007812 77.6669921875 216.5 65 c 0
 233.166992188 52.3330078125 254.166015625 46 279.499023438 46 c 2
 281.499023438 46 l 1
 290.5 46 l 1
 291.833007812 164 292.5 266.666992188 292.5 354 c 2
 292.5 363 l 1
 283.833007812 363.666992188 276 364.5 269 365.5 c 2
 251.5 368 l 2
 230.833007812 370.666992188 211.5 376.666992188 193.5 386 c 0
 174.833007812 395.333007812 159.833007812 406.666015625 148.5 419.999023438 c 0
 137.166992188 433.33203125 128.333984375 447.499023438 122.000976562 462.499023438 c 0
 115.66796875 477.499023438 112.500976562 491.999023438 112.500976562 505.999023438 c 0
 112.500976562 528.666015625 116.16796875 550.499023438 123.500976562 571.499023438 c 0
 130.833984375 592.499023438 141.500976562 611.999023438 155.500976562 629.999023438 c 0
 169.500976562 647.999023438 188.16796875 663.666015625 211.500976562 676.999023438 c 0
 233.500976562 690.33203125 258.499023438 699.665039062 286.499023438 704.998046875 c 2
 292.5 705.998046875 l 1xfa
 293.833007812 727.331054688 294.500976562 749.331054688 294.500976562 771.998046875 c 0
 295.16796875 786.665039062 297.66796875 797.83203125 302.000976562 805.499023438 c 0
 306.333984375 813.166015625 313.500976562 816.999023438 323.500976562 816.999023438 c 2
 325.500976562 816.999023438 l 2
 336.16796875 817.666015625 343.834960938 813.999023438 348.501953125 805.999023438 c 0
 353.168945312 798.666015625 355.501953125 788.333007812 355.501953125 775 c 2
 355.501953125 713 l 1xf6
 363.5 712 l 2
 376.833007812 711.333007812 395.16796875 708 418.500976562 702 c 0
 443.833984375 696 462.833984375 690.666992188 475.500976562 686 c 0
 485.500976562 682.666992188 492.833007812 677 497.5 669 c 0
 501.5 662.333007812 503.500976562 655.666015625 503.500976562 648.999023438 c 0
 503.500976562 646.999023438 503.16796875 644.666015625 502.500976562 641.999023438 c 0
 501.833984375 635.999023438 500.166992188 631.666015625 497.5 628.999023438 c 0
 494.166992188 626.33203125 490.666015625 624.83203125 486.999023438 624.499023438 c 0
 483.33203125 624.166015625 479.833007812 623.999023438 476.5 623.999023438 c 0
 463.166992188 623.999023438 448.5 627.666015625 432.5 634.999023438 c 0
 423.833007812 638.999023438 414 642.83203125 403 646.499023438 c 0
 392 650.166015625 378.833007812 652.333007812 363.5 653 c 2
 354.498046875 653 l 1
 350.5 423 l 1xfa
 358.5 421 l 2
 385.833007812 417.666992188 410.166015625 411 431.499023438 401 c 0
 454.83203125 391 473.33203125 379.666992188 486.999023438 367 c 0
 500.666015625 354.333007812 512.166015625 339.833007812 521.499023438 323.5 c 0
 530.83203125 307.166992188 537.165039062 291 540.498046875 275 c 0
 543.831054688 259 545.498046875 242.333007812 545.498046875 225 c 0
 545.498046875 195.666992188 540.331054688 167.833984375 529.998046875 141.500976562 c 0
 519.665039062 115.16796875 505.665039062 92.3349609375 487.998046875 73.001953125 c 0
 470.331054688 53.6689453125 449.498046875 37.001953125 425.498046875 23.001953125 c 0
 404.165039062 9.001953125 380.498046875 -1.6650390625 354.498046875 -8.998046875 c 2
 347.498046875 -11 l 1
 347.498046875 -17.998046875 l 2
 348.165039062 -57.3310546875 348.83203125 -83.998046875 349.499023438 -97.998046875 c 0
 348.166015625 -109.998046875 343.999023438 -119.165039062 336.999023438 -125.498046875 c 0
 329.999023438 -131.831054688 321.499023438 -134.998046875 311.499023438 -134.998046875 c 2
 310.499023438 -134.998046875 l 1
 309.499023438 -134.998046875 l 2
 301.499023438 -134.998046875 295.499023438 -131.998046875 291.499023438 -125.998046875 c 0
 288.166015625 -120.665039062 286.499023438 -112.998046875 286.499023438 -102.998046875 c 2
 286.499023438 -93.998046875 l 2
 287.83203125 -79.3310546875 288.499023438 -57.6640625 288.499023438 -28.9970703125 c 2
 288.499023438 -18.9970703125 l 1
 279.499023438 -18.9970703125 l 1
 275.499023438 -18.9970703125 l 2
 254.83203125 -18.9970703125 235.166992188 -16.3330078125 216.5 -11 c 0
EndSplineSet
Validated: 524289
EndChar

StartChar: percent
Encoding: 37 37 6
Width: 640
GlyphClass: 2
Flags: HMW
HStem: -18.001 57 180.998 54.0323 442 54.999 642.043 52.9575
VStem: 80.4986 53.001 97.002 68.499 256.5 45.998 337.501 49.002 447.499 70.001 507.573 51.9275
LayerCount: 2
Fore
SplineSet
397.500976562 58.9990234375 m 0xf340
 406.168945312 46.9990234375 421.834960938 40.33203125 444.501953125 38.9990234375 c 2
 447.498046875 38.9990234375 l 2xf380
 465.498046875 38.9990234375 479.668945312 45.166015625 490.001953125 57.4990234375 c 0
 500.334960938 69.83203125 506.168945312 85.6650390625 507.500976562 104.998046875 c 2
 507.500976562 105.998046875 l 1
 507.500976562 108.998046875 l 2
 507.548828125 110.474609375 507.572265625 111.9296875 507.572265625 113.362304688 c 0
 507.572265625 131.977539062 503.548828125 146.85546875 495.500976562 157.998046875 c 0
 484.168945312 173.331054688 466.834960938 180.998046875 443.501953125 180.998046875 c 0
 425.501953125 180.998046875 411.501953125 173.998046875 401.501953125 159.998046875 c 0
 392.168945312 145.998046875 387.168945312 128.331054688 386.501953125 106.998046875 c 2
 386.501953125 102.998046875 l 2
 386.450195312 101.561523438 386.424804688 100.1484375 386.424804688 98.7587890625 c 0
 386.424804688 82.0966796875 390.116210938 68.8447265625 397.500976562 58.9990234375 c 0xf340
382.499023438 -0.5009765625 m 0
 367.166015625 11.166015625 355.833007812 25.9990234375 348.499023438 43.9990234375 c 0
 341.166015625 61.9990234375 337.500976562 81.33203125 337.500976562 101.999023438 c 2
 337.500976562 103.999023438 l 2
 337.500976562 142.666015625 347.168945312 174.166015625 366.500976562 198.499023438 c 0
 385.833984375 222.83203125 413.833984375 234.999023438 450.500976562 234.999023438 c 0
 451.500976562 235.01953125 452.497070312 235.030273438 453.485351562 235.030273438 c 0
 484.141601562 235.030273438 509.479492188 225.01953125 529.500976562 204.999023438 c 0
 539.500976562 194.33203125 547.166992188 179.999023438 552.500976562 161.999023438 c 0
 557.166992188 147.999023438 559.500976562 132.33203125 559.500976562 114.999023438 c 0xf340
 559.500976562 110.999023438 559.166992188 104.999023438 558.500976562 96.9990234375 c 0
 556.500976562 58.33203125 545.833007812 29.33203125 526.500976562 9.9990234375 c 0
 507.166992188 -8.66796875 477.833984375 -18.0009765625 438.500976562 -18.0009765625 c 2
 435.500976562 -18.0009765625 l 2
 415.500976562 -18.0009765625 397.833007812 -12.16796875 382.499023438 -0.5009765625 c 0
145.501953125 517.999023438 m 0
 154.834960938 505.999023438 172.168945312 498.999023438 197.500976562 496.999023438 c 2
 198.500976562 496.999023438 l 2
 216.500976562 496.999023438 230.168945312 503.33203125 239.500976562 515.999023438 c 0
 248.833984375 528.666015625 254.166992188 544.999023438 255.500976562 564.999023438 c 0
 256.166992188 566.33203125 256.500976562 567.999023438 256.500976562 569.999023438 c 0
 255.833007812 593.33203125 250.500976562 610.999023438 240.500976562 622.999023438 c 0
 229.833007812 635.666015625 214.833007812 641.999023438 195.500976562 641.999023438 c 0
 194.659179688 642.028320312 193.826171875 642.04296875 193.001953125 642.04296875 c 0
 174.870117188 642.04296875 160.704101562 635.028320312 150.500976562 620.999023438 c 0
 141.166992188 607.666015625 135.500976562 589.999023438 133.500976562 567.999023438 c 2
 133.500976562 562.999023438 l 2xfb
 133.452148438 561.618164062 133.428710938 560.259765625 133.428710938 558.922851562 c 0
 133.428710938 541.545898438 137.454101562 527.904296875 145.501953125 517.999023438 c 0
203.499023438 195 m 2
 348.499023438 472 l 2
 397.166015625 565.333007812 430.166015625 632.333007812 447.499023438 673 c 0
 455.499023438 685 466.833007812 691 481.499023438 691 c 0
 488.166015625 691 494.833007812 689.333007812 501.500976562 686 c 0
 512.166992188 680.666992188 517.500976562 673.666992188 517.500976562 665 c 0
 517.500976562 657.666992188 514.168945312 648.666992188 507.501953125 638 c 0
 482.168945312 597.333007812 425.833984375 493.666015625 338.500976562 326.999023438 c 0
 252.500976562 160.33203125 194.833984375 47.33203125 165.500976562 -12.0009765625 c 0
 154.168945312 -32.0009765625 142.500976562 -42.0009765625 130.500976562 -42.0009765625 c 0
 126.500976562 -42.0009765625 121.66796875 -40.66796875 116.000976562 -38.0009765625 c 0
 110.333984375 -35.333984375 105.833984375 -31.833984375 102.500976562 -27.5009765625 c 0
 99.16796875 -23.16796875 97.3349609375 -17.5009765625 97.001953125 -10.5009765625 c 0xf780
 96.982421875 -10.08984375 96.97265625 -9.6728515625 96.97265625 -9.2509765625 c 0
 96.97265625 -2.49609375 99.482421875 5.5869140625 104.501953125 14.9990234375 c 0
 118.501953125 43.666015625 151.499023438 103.666992188 203.499023438 195 c 2
129.998046875 459.5 m 0
 113.665039062 471.166992188 101.33203125 486 92.9990234375 504 c 0
 84.666015625 522 80.4990234375 541.333007812 80.4990234375 562 c 2
 80.4990234375 564 l 2xfb
 80.4990234375 602.666992188 91.166015625 634.166992188 112.499023438 658.5 c 0
 133.833007812 682.833007812 163.833007812 695 202.499023438 695 c 0
 203.416015625 695.020507812 204.329101562 695.03125 205.235351562 695.03125 c 0
 233.348632812 695.03125 256.770507812 685.020507812 275.498046875 665 c 0
 284.831054688 654.333007812 291.831054688 640 296.498046875 622 c 0
 300.498046875 608 302.498046875 591.666992188 302.498046875 573 c 0
 302.498046875 526.333007812 292.498046875 492.333007812 272.498046875 471 c 0
 254.498046875 451.666992188 226.498046875 442 188.498046875 442 c 2
 186.498046875 442 l 2
 165.165039062 442 146.331054688 447.833007812 129.998046875 459.5 c 0
EndSplineSet
Validated: 524289
EndChar

StartChar: ampersand
Encoding: 38 38 7
Width: 640
GlyphClass: 2
Flags: HMW
HStem: -32 74.001 655.001 59.1001
VStem: 71.4986 80.0029 157.499 76.002 392.501 63.1093
LayerCount: 2
Fore
SplineSet
554.49609375 11 m 2
 554.49609375 3 l 2
 552.49609375 -13 547.828125 -23 540.49609375 -27 c 0
 536.49609375 -29.6669921875 531.828125 -31 526.49609375 -31 c 0
 521.828125 -31 516.162109375 -29.3330078125 509.495117188 -26 c 0
 496.162109375 -19.3330078125 484.495117188 -7.3330078125 474.495117188 10 c 0
 472.495117188 13.3330078125 468.495117188 23 462.495117188 39 c 0
 456.495117188 55 451.495117188 67 447.495117188 75 c 2
 440.495117188 90 l 1
 419.828125 61.3330078125 407.828125 45 404.495117188 41 c 0
 401.162109375 37.6669921875 395.828125 32 388.49609375 24 c 0
 381.163085938 16 374.830078125 10 369.49609375 6 c 0
 364.1640625 2.6669921875 357.1640625 -2 348.49609375 -8 c 0
 340.49609375 -14 332.49609375 -18.3330078125 324.49609375 -21 c 0
 316.49609375 -23.6669921875 307.1640625 -26 296.49609375 -28 c 0
 285.1640625 -30.6669921875 273.831054688 -32 262.498046875 -32 c 0
 227.1640625 -32 194.83203125 -23 165.499023438 -5 c 0
 136.166015625 13 113.166015625 37 96.498046875 67 c 0
 79.83203125 97.6669921875 71.498046875 130.333984375 71.498046875 165.000976562 c 0
 71.498046875 219.000976562 81.498046875 265.333984375 101.498046875 304.000976562 c 0
 125.499023438 352.000976562 165.499023438 388.333984375 221.499023438 413.000976562 c 2
 231.499023438 418.000976562 l 1
 221.499023438 434.000976562 212.166015625 449.000976562 203.499023438 463.000976562 c 0
 194.83203125 476.333984375 188.83203125 486.000976562 185.499023438 492.000976562 c 0
 182.166015625 498.000976562 178.166015625 505.333984375 173.499023438 514.000976562 c 0
 168.83203125 522.66796875 165.83203125 530.000976562 164.499023438 536.000976562 c 0
 159.83203125 554.000976562 157.499023438 571.66796875 157.499023438 589.000976562 c 0
 157.499023438 600.333984375 159.166015625 611.333984375 162.499023438 622.000976562 c 0
 165.166015625 632.66796875 170.166015625 643.66796875 177.499023438 655.000976562 c 0
 184.83203125 666.333984375 193.83203125 676.333984375 204.499023438 685.000976562 c 0
 215.166015625 693.66796875 229.499023438 700.66796875 247.499023438 706.000976562 c 0
 264.83203125 711.333984375 284.83203125 714.000976562 307.499023438 714.000976562 c 0
 309.366210938 714.067382812 311.2265625 714.100585938 313.080078125 714.100585938 c 0
 329.759765625 714.100585938 345.8984375 711.400390625 361.499023438 706.000976562 c 0
 379.499023438 700.000976562 395.499023438 691.66796875 409.499023438 681.000976562 c 0
 423.499023438 669.66796875 434.83203125 655.334960938 443.499023438 638.001953125 c 0
 451.499023438 620.668945312 455.499023438 601.3359375 455.499023438 580.002929688 c 0
 455.573242188 577.631835938 455.609375 575.28515625 455.609375 572.962890625 c 0
 455.609375 554.396484375 453.240234375 537.41015625 448.5 522.00390625 c 0
 443.166992188 504.00390625 436.5 489.336914062 428.5 478.00390625 c 0
 420.5 466.670898438 410.5 455.670898438 398.5 445.00390625 c 0
 386.5 434.336914062 375.5 425.669921875 365.5 419.002929688 c 0
 354.83203125 412.3359375 342.5 405.668945312 328.5 399.001953125 c 2
 319.5 395.001953125 l 1
 324.5 386.001953125 l 2
 337.166992188 364.668945312 357.833984375 333.668945312 386.5 293.001953125 c 0
 415.16796875 252.334960938 433.5 225.66796875 441.5 213.000976562 c 2
 450.5 198.000976562 l 1
 460.5 217.333984375 468.16796875 233.333984375 473.5 246.000976562 c 0
 479.5 258.66796875 484.16796875 268.66796875 487.5 276.000976562 c 0
 490.833984375 283.333984375 493.5 288.666992188 495.5 292 c 0
 506.16796875 308 515.834960938 317.666992188 524.501953125 321 c 0
 527.16796875 321.666992188 530.16796875 322 533.501953125 322 c 0
 539.501953125 322 545.834960938 320.333007812 552.501953125 317 c 0
 560.501953125 313.666992188 565.501953125 306.333984375 567.501953125 295.000976562 c 0
 568.16796875 291.66796875 568.501953125 288.66796875 568.501953125 286.000976562 c 0
 568.501953125 276.000976562 565.501953125 264.66796875 559.501953125 252.000976562 c 0
 556.834960938 246.66796875 547.16796875 233.66796875 530.5 213.000976562 c 0
 513.833984375 192.333984375 499.833984375 173.333984375 488.5 156.000976562 c 2
 485.5 151.000976562 l 1
 496.16796875 133.000976562 515.5 99.333984375 543.5 50.0009765625 c 0
 550.833984375 38.0009765625 554.49609375 25 554.49609375 11 c 2
233.5 572.000976562 m 0
 233.5 554.000976562 238.16796875 534.333984375 247.5 513.000976562 c 0
 257.5 492.333984375 269.16796875 474.000976562 282.5 458.000976562 c 2
 286.5 453.000976562 l 1
 292.5 455.000976562 l 2
 307.833984375 459.66796875 320.833984375 464.66796875 331.5 470.000976562 c 0
 342.16796875 475.333984375 352.5 482.333984375 362.5 491.000976562 c 0
 372.5 499.66796875 379.833984375 510.66796875 384.5 524.000976562 c 0
 389.833984375 536.66796875 392.5 551.66796875 392.5 569.000976562 c 0
 392.5 597.000976562 383.833984375 618.333984375 366.5 633.000976562 c 0
 349.16796875 647.66796875 328.834960938 655.000976562 305.501953125 655.000976562 c 0
 278.834960938 655.000976562 259.501953125 646.000976562 247.501953125 628.000976562 c 0
 238.16796875 614.000976562 233.5 595.333984375 233.5 572.000976562 c 0
151.501953125 174.000976562 m 0
 151.501953125 136.66796875 161.834960938 105.66796875 182.501953125 81.0009765625 c 0
 203.16796875 55.0009765625 230.16796875 42.0009765625 263.501953125 42.0009765625 c 0
 280.834960938 42.66796875 298.834960938 46.0009765625 317.501953125 52.0009765625 c 0
 324.16796875 54.0009765625 331.16796875 57.66796875 338.501953125 63.0009765625 c 0
 346.501953125 67.66796875 352.501953125 71.66796875 356.501953125 75.0009765625 c 0
 360.501953125 78.333984375 365.501953125 83.333984375 371.501953125 90.0009765625 c 0
 377.501953125 96.66796875 381.501953125 101.334960938 383.501953125 104.001953125 c 0
 386.16796875 106.001953125 389.8359375 110.668945312 394.502929688 118.001953125 c 0
 399.169921875 125.334960938 403.169921875 131.001953125 406.502929688 135.001953125 c 1
 392.502929688 165.001953125 381.502929688 187.334960938 373.502929688 202.001953125 c 0
 364.8359375 218.001953125 348.502929688 243.334960938 324.502929688 278.001953125 c 0
 300.502929688 312.668945312 281.8359375 340.668945312 268.502929688 362.001953125 c 1
 260.502929688 359.001953125 l 2
 239.8359375 349.001953125 222.16796875 337.334960938 207.501953125 324.001953125 c 0
 192.16796875 310.668945312 180.501953125 295.668945312 172.501953125 279.001953125 c 0
 165.16796875 262.334960938 159.8359375 245.66796875 156.502929688 229.000976562 c 0
 153.169921875 212.333984375 151.501953125 194.000976562 151.501953125 174.000976562 c 0
EndSplineSet
Validated: 524289
EndChar

StartChar: quotesingle
Encoding: 39 39 8
Width: 640
GlyphClass: 2
Flags: HMW
HStem: 456 307.126
VStem: 277.5 84
LayerCount: 2
Fore
SplineSet
355.499023438 487 m 0
 354.166015625 476.333007812 349.833984375 468.333007812 342.500976562 463 c 0
 335.166992188 458.333007812 327.500976562 456 319.500976562 456 c 2
 317.500976562 456 l 2
 306.166992188 456.666992188 296.166992188 460.333984375 287.500976562 467.000976562 c 0
 280.833984375 472.333984375 277.500976562 479.333984375 277.500976562 488.000976562 c 2
 277.500976562 491.000976562 l 1
 277.500976562 492.000976562 l 2
 279.346679688 519.694335938 280.270507812 551.71875 280.270507812 588.075195312 c 0
 280.270507812 630.48828125 279.013671875 678.796875 276.500976562 733.000976562 c 2
 276.500976562 735.000976562 l 2
 276.500976562 740.333984375 277.500976562 745.000976562 279.500976562 749.000976562 c 0
 282.166992188 753.000976562 285.500976562 755.66796875 289.500976562 757.000976562 c 0
 298.833984375 761.083984375 308.420898438 763.125976562 318.264648438 763.125976562 c 0
 319.670898438 763.125976562 321.083007812 763.083984375 322.499023438 763.000976562 c 0
 332.499023438 762.333984375 341.499023438 759.666992188 349.499023438 755 c 0
 353.499023438 753 356.833007812 749.666992188 359.499023438 745 c 0
 361.499023438 740.333007812 362.499023438 734 362.499023438 726 c 0
 363.166992188 718 363.499023438 705 363.499023438 687 c 0
 363.499023438 669 362.833007812 637 361.499023438 591 c 0
 360.166992188 545 358.166015625 510.333007812 355.499023438 487 c 0
EndSplineSet
Validated: 524289
EndChar

StartChar: parenleft
Encoding: 40 40 9
Width: 640
GlyphClass: 2
Flags: HMW
HStem: -122 64.999 743 61<419.239 432.572>
VStem: 180.428 78.1449
LayerCount: 2
Fore
SplineSet
458.572265625 -93 m 0
 458.572265625 -101 455.239257812 -107.666992188 448.572265625 -113 c 0
 442.572265625 -119 435.905273438 -122 428.572265625 -122 c 0
 385.905273438 -121.333007812 347.23828125 -105.666015625 312.571289062 -74.9990234375 c 0
 277.904296875 -44.33203125 249.571289062 -1.33203125 227.571289062 54.0009765625 c 0
 205.571289062 110.000976562 190.904296875 174.333984375 183.571289062 247.000976562 c 0
 181.571289062 267.000976562 180.571289062 292.000976562 180.571289062 322.000976562 c 0
 180.475585938 326.288085938 180.427734375 330.731445312 180.427734375 335.331054688 c 0
 180.427734375 362.921875 182.142578125 396.145507812 185.571289062 435.000976562 c 0
 192.904296875 512.333984375 205.904296875 575.666992188 224.571289062 625 c 0
 232.571289062 647 243.571289062 668.333007812 257.571289062 689 c 0
 271.571289062 709.666992188 287.571289062 728.666992188 305.571289062 746 c 0
 322.904296875 763.333007812 342.571289062 777.333007812 364.571289062 788 c 0
 387.23828125 798.666992188 408.905273438 804 429.572265625 804 c 0
 439.572265625 804 446.905273438 802 451.572265625 798 c 0
 456.905273438 793.333007812 459.572265625 785.333007812 459.572265625 774 c 0
 459.572265625 762.666992188 456.905273438 754.666992188 451.572265625 750 c 0
 445.572265625 745.333007812 437.572265625 743 427.572265625 743 c 0
 408.239257812 743 390.239257812 737.333007812 373.572265625 726 c 0
 357.572265625 715.333007812 343.572265625 700.666015625 331.572265625 681.999023438 c 0
 308.239257812 647.33203125 290.90625 604.999023438 279.573242188 554.999023438 c 0
 270.90625 520.33203125 264.90625 472.33203125 261.573242188 410.999023438 c 0
 259.573242188 379.666015625 258.573242188 351.666015625 258.573242188 326.999023438 c 0
 259.240234375 301.666015625 260.240234375 279.666015625 261.573242188 260.999023438 c 0
 264.90625 220.33203125 272.239257812 180.33203125 283.572265625 140.999023438 c 0
 294.239257812 101.666015625 307.239257812 67.9990234375 322.572265625 39.9990234375 c 0
 337.239257812 11.33203125 353.90625 -12.0009765625 372.573242188 -30.0009765625 c 0
 391.90625 -48.0009765625 410.573242188 -57.0009765625 428.573242188 -57.0009765625 c 0
 438.573242188 -57.0009765625 446.240234375 -59.333984375 451.573242188 -64.0009765625 c 0
 456.240234375 -68.66796875 458.572265625 -78.3330078125 458.572265625 -93 c 0
EndSplineSet
Validated: 524289
EndChar

StartChar: parenright
Encoding: 41 41 10
Width: 640
GlyphClass: 2
Flags: HMW
HStem: -122 65.001 743.001 61
VStem: 381.625 78
LayerCount: 2
Fore
SplineSet
456.626953125 247 m 0
 449.293945312 174.333007812 434.626953125 110 412.626953125 54 c 0
 390.626953125 -1.3330078125 362.293945312 -44.3330078125 327.626953125 -75 c 0
 292.293945312 -106.333007812 253.626953125 -122 211.626953125 -122 c 0
 204.959960938 -121.333007812 198.29296875 -118.333007812 191.625976562 -113 c 0
 184.29296875 -107.666992188 180.625976562 -101 180.625976562 -93 c 0
 180.625976562 -78.3330078125 183.29296875 -68.666015625 188.625976562 -63.9990234375 c 0
 193.29296875 -59.33203125 200.959960938 -56.9990234375 211.626953125 -56.9990234375 c 0
 229.626953125 -56.9990234375 247.959960938 -47.9990234375 266.626953125 -29.9990234375 c 0
 285.293945312 -11.33203125 302.293945312 12.0009765625 317.626953125 40.0009765625 c 0
 332.293945312 68.0009765625 345.293945312 101.66796875 356.626953125 141.000976562 c 0
 367.959960938 180.333984375 375.29296875 220.333984375 378.625976562 261.000976562 c 0
 380.625976562 281.000976562 381.625976562 303.333984375 381.625976562 328.000976562 c 0
 381.625976562 352.66796875 380.625976562 380.334960938 378.625976562 411.001953125 c 0
 375.29296875 471.668945312 369.29296875 519.668945312 360.625976562 555.001953125 c 0
 348.625976562 605.001953125 331.29296875 647.668945312 308.625976562 683.001953125 c 0
 297.29296875 700.334960938 283.29296875 714.66796875 266.625976562 726.000976562 c 0
 249.958984375 737.333984375 232.291992188 743.000976562 213.625 743.000976562 c 0
 203.625 743.000976562 195.291992188 745.333984375 188.625 750.000976562 c 0
 183.291992188 754.000976562 180.625 761.66796875 180.625 773.000976562 c 0
 179.958007812 780.333984375 180.625 786.000976562 182.625 790.000976562 c 0
 184.625 794.66796875 186.958007812 797.66796875 189.625 799.000976562 c 0
 195.625 802.333984375 202.625 804.000976562 210.625 804.000976562 c 0
 232.625 804.000976562 254.291992188 798.66796875 275.625 788.000976562 c 0
 296.958007812 777.333984375 316.625 763.333984375 334.625 746.000976562 c 0
 352.625 728.66796875 368.625 709.66796875 382.625 689.000976562 c 0
 396.625 667.66796875 407.625 646.334960938 415.625 625.001953125 c 0
 434.291992188 575.668945312 446.958984375 512.3359375 453.625976562 435.002929688 c 0
 457.625976562 389.669921875 459.625976562 352.002929688 459.625976562 322.002929688 c 0
 459.625976562 292.002929688 458.626953125 267 456.626953125 247 c 0
EndSplineSet
Validated: 524289
EndChar

StartChar: asterisk
Encoding: 42 42 11
Width: 640
GlyphClass: 2
Flags: HMW
HStem: 303 84<113.835 116.503 113.503 133.502> 315.998 56.999 315.998 69.999
VStem: 386.503 71.9951
LayerCount: 2
Fore
SplineSet
448.502929688 132 m 0x50
 442.502929688 128 434.834960938 126.333007812 425.501953125 127 c 0
 416.834960938 127 408.834960938 128.666992188 401.501953125 132 c 0
 394.168945312 135.333007812 389.168945312 140.666015625 386.501953125 147.999023438 c 0
 377.834960938 175.999023438 360.16796875 215.33203125 333.500976562 265.999023438 c 2
 324.500976562 282.999023438 l 1
 316.500976562 265.999023438 l 2
 284.500976562 203.33203125 264.833984375 161.999023438 257.500976562 141.999023438 c 0
 255.500976562 136.666015625 252.16796875 132.333007812 247.500976562 129 c 0
 242.833984375 126.333007812 237.500976562 124.666015625 231.500976562 123.999023438 c 2
 226.500976562 123.999023438 l 2
 214.500976562 123.999023438 204.500976562 126.33203125 196.500976562 130.999023438 c 0
 192.500976562 132.999023438 188.833984375 136.666015625 185.500976562 141.999023438 c 0
 182.16796875 147.999023438 179.834960938 154.666015625 178.501953125 161.999023438 c 2
 178.501953125 164.999023438 l 2
 178.501953125 171.666015625 180.168945312 178.333007812 183.501953125 185 c 2
 259.501953125 309 l 1
 192.834960938 305 146.501953125 303 120.501953125 303 c 0
 107.168945312 303 96.8359375 307.333007812 89.5029296875 316 c 0
 82.169921875 324 78.5029296875 333 78.5029296875 343 c 2
 78.5029296875 346 l 2
 78.5029296875 356 81.169921875 365.333007812 86.5029296875 374 c 0
 89.169921875 378.666992188 92.8369140625 382 97.50390625 384 c 0
 102.836914062 386 108.169921875 387 113.502929688 387 c 2
 116.502929688 387 l 2x90
 147.169921875 384.333007812 198.502929688 380.666015625 270.502929688 375.999023438 c 1
 261.502929688 391.999023438 l 2
 232.8359375 440.666015625 209.168945312 477.999023438 190.501953125 503.999023438 c 0
 183.834960938 515.33203125 180.501953125 526.33203125 180.501953125 536.999023438 c 2
 180.501953125 542.999023438 l 2
 181.834960938 553.666015625 186.16796875 560.666015625 193.500976562 563.999023438 c 1
 193.500976562 564.999023438 l 1
 198.833984375 568.33203125 205.166992188 569.999023438 212.5 569.999023438 c 0
 219.833007812 570.666015625 227.5 568.666015625 235.5 563.999023438 c 0
 243.5 559.33203125 249.5 552.665039062 253.5 543.998046875 c 0
 260.833007812 527.331054688 283.166015625 483.6640625 320.499023438 412.997070312 c 1
 328.499023438 427.997070312 l 2
 355.166015625 473.997070312 375.499023438 512.330078125 389.499023438 542.997070312 c 0
 393.499023438 550.997070312 399.166015625 557.330078125 406.499023438 561.997070312 c 0
 413.431640625 566.50390625 420.184570312 568.756835938 426.7578125 568.756835938 c 0
 432.825195312 568.756835938 438.739257812 566.836914062 444.499023438 562.997070312 c 0
 449.166015625 560.330078125 453.166015625 556.330078125 456.499023438 550.997070312 c 0
 459.83203125 545.6640625 461.499023438 538.6640625 461.499023438 529.997070312 c 0
 461.499023438 521.330078125 458.83203125 512.997070312 453.499023438 504.997070312 c 0
 432.166015625 473.6640625 408.499023438 434.6640625 382.499023438 387.997070312 c 2
 374.499023438 372.997070312 l 1
 391.499023438 372.997070312 l 2x50
 450.83203125 372.997070312 493.165039062 376.6640625 518.498046875 383.997070312 c 0
 521.831054688 385.330078125 525.1640625 385.997070312 528.497070312 385.997070312 c 0
 535.830078125 385.997070312 542.163085938 383.6640625 547.49609375 378.997070312 c 0
 556.163085938 370.997070312 560.830078125 362.6640625 561.497070312 353.997070312 c 0
 561.497070312 348.6640625 560.830078125 343.331054688 559.497070312 337.998046875 c 0
 556.1640625 325.331054688 550.831054688 316.998046875 543.498046875 312.998046875 c 0
 540.831054688 311.665039062 538.1640625 310.998046875 535.497070312 310.998046875 c 0
 532.1640625 310.331054688 529.497070312 310.331054688 527.497070312 310.998046875 c 0
 510.1640625 314.331054688 479.497070312 315.998046875 435.497070312 315.998046875 c 0x30
 428.831054688 316.33203125 420.498046875 316.499023438 410.498046875 316.499023438 c 0
 400.498046875 316.499023438 388.831054688 316.33203125 375.498046875 315.998046875 c 1
 451.498046875 185.998046875 l 2
 456.831054688 174.665039062 459.498046875 164.665039062 459.498046875 155.998046875 c 0
 458.831054688 154.665039062 458.498046875 152.998046875 458.498046875 150.998046875 c 0
 457.831054688 141.665039062 454.502929688 135.333007812 448.502929688 132 c 0x50
EndSplineSet
Validated: 524289
EndChar

StartChar: plus
Encoding: 43 43 12
Width: 640
GlyphClass: 2
Flags: HMW
HStem: 367.001 63.999
VStem: 287.497 62.0029
LayerCount: 2
Fore
SplineSet
177.5 366 m 2
 163.5 366 153.5 369.333007812 147.5 376 c 0
 140.83203125 382 137.5 389.666992188 137.5 399 c 2
 137.5 402 l 2
 138.166992188 410.666992188 141.166992188 418 146.5 424 c 0
 152.5 430 161.5 433 173.5 433 c 2
 176.5 433 l 2
 223.83203125 431.666992188 257.830078125 431 278.49609375 431 c 2
 287.49609375 431 l 1
 287.49609375 441 l 2
 287.49609375 474.333007812 286.83203125 510.333007812 285.5 549 c 2
 285.5 553 l 2
 285.5 563.666992188 288.5 571.333984375 294.5 576.000976562 c 0
 299.83203125 580.000976562 307.83203125 582.000976562 318.5 582.000976562 c 2
 322.5 582.000976562 l 2
 331.83203125 582.000976562 339.5 580.000976562 345.5 576.000976562 c 0
 350.166992188 572.66796875 352.5 565.66796875 352.5 555.000976562 c 2
 352.5 550.000976562 l 2
 350.5 511.333984375 349.5 474.333984375 349.5 439.000976562 c 2
 349.5 430.000976562 l 1
 469.5 430.000976562 l 2
 482.166992188 430.000976562 490.5 427.66796875 494.5 423.000976562 c 0
 499.166992188 417.66796875 501.833984375 410.666992188 502.5 402 c 0
 501.833984375 396.666992188 501.166992188 392.000976562 500.5 388.000976562 c 0
 499.83203125 384.000976562 498.166015625 380 495.499023438 376 c 0
 492.166015625 370.666992188 485.166015625 368.000976562 474.499023438 368.000976562 c 2
 470.499023438 368.000976562 l 2
 459.166015625 369.333984375 443.166015625 370.000976562 422.499023438 370.000976562 c 0
 402.499023438 370.000976562 377.83203125 369.66796875 348.499023438 369.000976562 c 1
 348.499023438 359.000976562 l 1
 348.499023438 295.000976562 l 2
 349.166015625 270.333984375 349.5 255.333984375 349.5 250.000976562 c 0
 348.83203125 238.000976562 346.1640625 229.66796875 341.498046875 225.000976562 c 0
 336.831054688 220.333984375 330.1640625 217.666992188 321.49609375 217 c 0
 310.830078125 217.666992188 302.830078125 220 297.49609375 224 c 0
 290.830078125 228.666992188 287.49609375 237.333984375 287.49609375 250.000976562 c 2
 287.49609375 367.000976562 l 1
 278.49609375 367.000976562 l 1
 177.5 366 l 2
EndSplineSet
Validated: 524289
EndChar

StartChar: comma
Encoding: 44 44 13
Width: 640
GlyphClass: 2
Flags: HMW
VStem: 227.501 185.998
LayerCount: 2
Fore
SplineSet
263.500976562 -207 m 0
 251.500976562 -207 241.833984375 -203.333007812 234.500976562 -196 c 0
 230.500976562 -191.333007812 228.16796875 -185.666015625 227.500976562 -178.999023438 c 0
 226.833984375 -177.666015625 226.500976562 -176.666015625 226.500976562 -175.999023438 c 0
 227.16796875 -171.999023438 229.500976562 -165.999023438 233.500976562 -157.999023438 c 0
 247.500976562 -137.999023438 266.833984375 -93.666015625 291.500976562 -24.9990234375 c 0
 316.833984375 43.66796875 332.166992188 91.66796875 337.5 119.000976562 c 0
 338.833007812 125.66796875 342.166015625 131.000976562 347.499023438 135.000976562 c 0
 353.499023438 139.000976562 359.499023438 141.000976562 365.499023438 141.000976562 c 2
 367.499023438 141.000976562 l 2
 374.166015625 141.000976562 380.499023438 140.333984375 386.499023438 139.000976562 c 0
 395.166015625 136.333984375 402.166015625 131.333984375 407.499023438 124.000976562 c 0
 411.499023438 119.333984375 413.499023438 113.333984375 413.499023438 106.000976562 c 0
 413.499023438 104.66796875 413.166015625 102.000976562 412.499023438 98.0009765625 c 0
 405.83203125 65.333984375 391.499023438 15.333984375 369.499023438 -51.9990234375 c 0
 357.499023438 -89.33203125 347.499023438 -117.665039062 339.499023438 -136.998046875 c 0
 330.83203125 -155.665039062 324.165039062 -168.33203125 319.498046875 -174.999023438 c 0
 310.165039062 -187.666015625 298.165039062 -196.666015625 283.498046875 -201.999023438 c 0
 275.498046875 -205.33203125 268.833984375 -207 263.500976562 -207 c 0
EndSplineSet
Validated: 524289
EndChar

StartChar: hyphen
Encoding: 45 45 14
Width: 640
GlyphClass: 2
Flags: HMW
HStem: 252 68<208.499 220.166> 259 61
VStem: 175.499 289.002
LayerCount: 2
Fore
SplineSet
175.500976562 290 m 2x60
 175.500976562 301.333007812 178.500976562 309.333007812 184.500976562 314 c 0
 189.16796875 318 196.500976562 320 206.500976562 320 c 0
 244.500976562 320 289.833984375 320.333007812 342.500976562 321 c 0
 395.16796875 322.333007812 425.16796875 323 432.500976562 323 c 0
 445.16796875 323 453.500976562 320.666992188 457.500976562 316 c 0
 461.500976562 310.666992188 463.833984375 303.666992188 464.500976562 295 c 0
 464.500976562 284.333007812 462.500976562 276.333007812 458.500976562 271 c 0
 453.833984375 264.333007812 445.166992188 261 432.5 261 c 0
 423.833007812 261 390.166015625 259.666992188 331.499023438 257 c 0
 272.83203125 253.666992188 231.83203125 252 208.499023438 252 c 0xa0
 197.83203125 252.666992188 189.83203125 255 184.499023438 259 c 0
 178.499023438 264.333007812 175.499023438 273.333007812 175.499023438 286 c 2
 175.500976562 290 l 2x60
EndSplineSet
Validated: 524289
EndChar

StartChar: period
Encoding: 46 46 15
Width: 640
GlyphClass: 2
Flags: HMW
HStem: -4 134.053
VStem: 248.5 143.001
LayerCount: 2
Fore
SplineSet
321.499023438 -4 m 2
 312.499023438 -4 l 2
 311.584960938 -4.03515625 310.681640625 -4.052734375 309.786132812 -4.052734375 c 0
 293.665039062 -4.052734375 280.236328125 1.6318359375 269.499023438 13 c 0
 255.499023438 27.6669921875 248.499023438 44.6669921875 248.499023438 64 c 0
 248.499023438 81.3330078125 255.833007812 96.3330078125 270.499023438 109 c 0
 287.166992188 123 305.833984375 130 326.500976562 130 c 0
 327.483398438 130.03515625 328.456054688 130.052734375 329.420898438 130.052734375 c 0
 346.772460938 130.052734375 361.131835938 124.368164062 372.500976562 113 c 0
 385.166992188 100.333007812 391.500976562 84.666015625 391.500976562 65.9990234375 c 0
 391.500976562 47.33203125 385.166992188 31.6650390625 372.500976562 18.998046875 c 0
 360.500976562 6.3310546875 343.499023438 -1.3330078125 321.499023438 -4 c 2
EndSplineSet
Validated: 524289
EndChar

StartChar: slash
Encoding: 47 47 16
Width: 640
GlyphClass: 2
Flags: W
LayerCount: 2
Fore
SplineSet
80 -9 m 0
 80 5 83.6669921875 17.6669921875 91 29 c 0
 188.333007812 189 271.666015625 331.333007812 340.999023438 456 c 0
 384.999023438 532.666992188 431.33203125 619.666992188 479.999023438 717 c 0
 484.666015625 725.666992188 490.666015625 732.333984375 497.999023438 737.000976562 c 0
 505.33203125 741.66796875 512.33203125 744.000976562 518.999023438 744.000976562 c 0
 526.33203125 744.000976562 533.999023438 742.333984375 541.999023438 739.000976562 c 0
 550.666015625 733.66796875 556.333007812 726.334960938 559 717.001953125 c 0
 559.666992188 715.001953125 560 712.334960938 560 709.001953125 c 0
 560 704.334960938 557.666992188 695.001953125 553 681.001953125 c 0
 535.666992188 646.334960938 487 562.66796875 407 430.000976562 c 0
 327 297.333984375 278.333007812 214.666992188 261 182 c 0
 253 166.666992188 235.666992188 131.666992188 209 77 c 0
 185 28.3330078125 170 -1.333984375 164 -12.0009765625 c 0
 154.666992188 -28.66796875 142.666992188 -40.3349609375 128 -47.001953125 c 0
 121.333007812 -50.3349609375 115.333007812 -52.001953125 110 -52.001953125 c 0
 104 -52.001953125 98.6669921875 -50.3349609375 94 -47.001953125 c 0
 86.6669921875 -43.001953125 82.333984375 -33.3349609375 81.0009765625 -18.001953125 c 0
 80.333984375 -14.6689453125 80 -11.6669921875 80 -9 c 0
EndSplineSet
Validated: 524289
EndChar

StartChar: zero
Encoding: 48 48 17
Width: 640
GlyphClass: 2
Flags: HMW
HStem: -14.998 65.001 646.003 61.999
VStem: 104.668 79 460.669 74.998
LayerCount: 2
Fore
SplineSet
105.6640625 391 m 0
 106.33203125 418.333007812 107.998046875 441.83203125 110.666015625 461.499023438 c 0
 113.33203125 481.166015625 117 502.333007812 121.666015625 525 c 0
 126.333007812 547.666992188 131.666015625 567.666992188 137.666015625 585 c 0
 153 625.666992188 179 656.333984375 215.666015625 677.000976562 c 0
 249 697.66796875 289.666015625 708.000976562 337.666015625 708.000976562 c 0
 361 708.000976562 383 703.66796875 403.666015625 695.000976562 c 0
 425.666015625 686.333984375 445.666015625 673.500976562 463.666015625 656.500976562 c 0
 481.666015625 639.500976562 496.666015625 617.000976562 508.666015625 589.000976562 c 0
 520.666015625 561.000976562 528.333007812 529.000976562 531.666015625 493.000976562 c 0
 534.333007812 453.000976562 535.666015625 409.333984375 535.666015625 362.000976562 c 0
 535.666015625 326.000976562 534.5 288.16796875 532.166015625 248.500976562 c 0
 529.833007812 208.833984375 525.666015625 178.000976562 519.666015625 156.000976562 c 0
 508.333007812 114.000976562 494.333007812 80.333984375 477.666015625 55.0009765625 c 0
 469.666015625 43.0009765625 460.666015625 33.0009765625 450.666015625 25.0009765625 c 0
 440.666015625 17.0009765625 430.333007812 10.333984375 419.666015625 5.0009765625 c 0
 410.333007812 -0.33203125 399 -4.4990234375 385.66796875 -7.4990234375 c 0
 372.333984375 -10.4990234375 359.333984375 -12.4990234375 346.66796875 -13.4990234375 c 0
 334 -14.4990234375 318.66796875 -14.9990234375 300.66796875 -14.9990234375 c 0
 273.333984375 -14.33203125 248.333984375 -8.6650390625 225.66796875 2.001953125 c 0
 200.333984375 12.6689453125 178.66796875 27.501953125 160.66796875 46.501953125 c 0
 142.66796875 65.501953125 128.833984375 89.001953125 119.16796875 117.001953125 c 0
 109.5 145.001953125 104.66796875 175.334960938 104.66796875 208.001953125 c 2
 104.66796875 214.001953125 l 1
 104.66796875 309.001953125 l 2
 104.4453125 316.125976562 104.333984375 323.918945312 104.333984375 332.380859375 c 0
 104.333984375 349.258789062 104.77734375 368.797851562 105.6640625 391 c 0
239.666015625 613.000976562 m 0
 218.333007812 591.000976562 202 555.998046875 190.666015625 507.998046875 c 0
 186.666015625 490.665039062 183.666015625 470.665039062 181.666015625 447.998046875 c 0
 180 428.33203125 179.16796875 402.166015625 179.16796875 369.5 c 0
 179.16796875 336.833984375 180 297.66796875 181.66796875 252.001953125 c 0
 182.333984375 234.001953125 182.833984375 222.501953125 183.16796875 217.501953125 c 0
 183.5 212.501953125 183.66796875 209.001953125 183.66796875 207.001953125 c 2
 183.66796875 177.001953125 l 1
 201.66796875 201.001953125 l 1
 284.333984375 323.001953125 358.66796875 448.668945312 424.66796875 578.001953125 c 2
 427.66796875 584.001953125 l 1
 423.66796875 589.001953125 l 2
 411.66796875 607.001953125 397.16796875 621.001953125 380.16796875 631.001953125 c 0
 363.16796875 641.001953125 344.333984375 646.001953125 323.66796875 646.001953125 c 0
 287.66796875 646.001953125 259.666015625 635.000976562 239.666015625 613.000976562 c 0
346.166015625 54.9990234375 m 0
 359.833007812 58.33203125 373 63.9990234375 385.66796875 71.9990234375 c 0
 411 88.666015625 430.66796875 119.666015625 444.66796875 164.999023438 c 0
 447.333984375 173.666015625 450.16796875 196.166015625 453.16796875 232.499023438 c 0
 456.16796875 268.83203125 458.333984375 310.33203125 459.66796875 356.999023438 c 0
 460.333984375 369.666015625 460.66796875 381.999023438 460.66796875 393.999023438 c 0
 460.66796875 427.999023438 459.333984375 460.666015625 456.66796875 491.999023438 c 2
 453.66796875 526.999023438 l 1
 437.66796875 494.999023438 l 1
 371.66796875 349.666015625 294.333984375 227.666015625 205.66796875 128.999023438 c 1
 201.66796875 123.999023438 l 1
 203.66796875 117.999023438 l 2
 215 93.33203125 230 75.33203125 248.66796875 63.9990234375 c 0
 263.333984375 54.666015625 280.66796875 49.9990234375 300.66796875 49.9990234375 c 0
 317.333984375 49.9990234375 332.5 51.666015625 346.166015625 54.9990234375 c 0
EndSplineSet
Validated: 524289
EndChar

StartChar: one
Encoding: 49 49 18
Width: 640
GlyphClass: 2
Flags: HMW
HStem: 1 64.9961<501.499 503.499 501.166 509.833> 520.999 21G
VStem: 287.498 70 298.498 61
LayerCount: 2
Fore
SplineSet
534.5 59 m 0xe0
 540.5 53 543.5 45 543.5 35 c 0
 543.5 25 540.66796875 16.8330078125 535 10.5 c 0
 529.333007812 4.1669921875 518.166015625 1 501.5 1 c 0
 278.166015625 3 154.166015625 4 129.5 4 c 0
 117.5 4 109 7.1669921875 104 13.5 c 0
 99 19.8330078125 96.5 28 96.5 38 c 2
 96.5 41 l 2
 96.5 50.3330078125 99 58.3330078125 104 65 c 0
 109 71.6669921875 117.83203125 75 130.5 75 c 0
 159.83203125 75 212.165039062 74.3330078125 287.498046875 73 c 1
 287.498046875 83 l 2xe0
 287.498046875 109 287.165039062 127.666992188 286.498046875 139 c 0
 285.83203125 150.333007812 285.498046875 160.666015625 285.498046875 169.999023438 c 0
 285.498046875 180.666015625 285.83203125 212.333007812 286.498046875 265 c 0
 286.498046875 278.333007812 287.998046875 328.666015625 290.998046875 415.999023438 c 0
 293.998046875 503.33203125 296.498046875 567.999023438 298.498046875 609.999023438 c 1
 282.498046875 595.999023438 l 2
 238.498046875 555.999023438 205.498046875 531.666015625 183.498046875 522.999023438 c 0
 180.165039062 521.666015625 177.165039062 520.999023438 174.498046875 520.999023438 c 0
 168.498046875 520.999023438 161.498046875 524.33203125 153.498046875 530.999023438 c 0
 142.83203125 540.33203125 137.498046875 549.33203125 137.498046875 557.999023438 c 2
 137.498046875 558.999023438 l 1
 137.498046875 559.999023438 l 2
 137.498046875 568.666015625 139.498046875 576.666015625 143.498046875 583.999023438 c 0
 147.498046875 591.33203125 154.83203125 598.999023438 165.498046875 606.999023438 c 0
 185.498046875 622.33203125 205.83203125 638.665039062 226.498046875 655.998046875 c 2
 268.498046875 693.998046875 l 2
 276.498046875 701.331054688 284.665039062 707.6640625 292.998046875 712.997070312 c 0
 301.33203125 718.330078125 308.1640625 720.997070312 313.497070312 720.997070312 c 0
 324.830078125 720.997070312 336.497070312 715.6640625 348.497070312 704.997070312 c 0
 355.1640625 698.997070312 359.83203125 693.6640625 362.498046875 688.997070312 c 0
 364.498046875 686.330078125 365.498046875 683.997070312 365.498046875 681.997070312 c 0
 364.83203125 665.997070312 362.83203125 611.330078125 359.498046875 517.997070312 c 0xd0
 356.165039062 424.6640625 354.498046875 369.997070312 354.498046875 353.997070312 c 0
 354.498046875 237.330078125 355.498046875 142.663085938 357.498046875 69.99609375 c 1
 400.83203125 68.6630859375 434.83203125 67.6630859375 459.498046875 66.99609375 c 0
 484.165039062 66.3291015625 498.83203125 65.99609375 503.5 65.99609375 c 0
 505.205078125 66.0703125 506.849609375 66.107421875 508.431640625 66.107421875 c 0
 521.0703125 66.107421875 529.76171875 63.7392578125 534.5 59 c 0xe0
EndSplineSet
Validated: 524289
EndChar

StartChar: two
Encoding: 50 50 19
Width: 640
GlyphClass: 2
Flags: HMW
HStem: -8 64.0029 -1.99512 68.998 647.002 64.998
VStem: 105.499 81.0029 439.5 80.002
LayerCount: 2
Fore
SplineSet
305.498046875 -8 m 0xb8
 276.166015625 -9.3330078125 246.498046875 -10 216.498046875 -10 c 0
 183.166015625 -9.3330078125 157.166015625 -8 138.498046875 -6 c 0
 132.498046875 -5.3330078125 127.498046875 -3.166015625 123.498046875 0.5009765625 c 0
 119.498046875 4.16796875 116.498046875 9.0009765625 114.498046875 15.0009765625 c 0
 108.498046875 30.333984375 105.498046875 52.5009765625 105.498046875 81.5009765625 c 0
 105.498046875 110.500976562 111.498046875 140.16796875 123.498046875 170.500976562 c 0
 135.498046875 200.833984375 153.331054688 230.000976562 176.998046875 258.000976562 c 0
 200.666015625 286.000976562 226.83203125 308.66796875 255.499023438 326.000976562 c 0
 320.83203125 366.66796875 362.83203125 395.000976562 381.499023438 411.000976562 c 0
 408.166015625 433.66796875 425.499023438 458.334960938 433.499023438 485.001953125 c 0
 437.499023438 499.668945312 439.499023438 517.668945312 439.499023438 539.001953125 c 0
 439.499023438 577.001953125 428.499023438 604.668945312 406.499023438 622.001953125 c 0
 386.499023438 638.668945312 358.499023438 647.001953125 322.499023438 647.001953125 c 0
 297.166015625 647.001953125 273.166015625 638.668945312 250.499023438 622.001953125 c 0
 227.83203125 605.334960938 209.499023438 586.66796875 195.499023438 566.000976562 c 0
 189.499023438 558.000976562 184.499023438 552.16796875 180.499023438 548.500976562 c 0
 176.499023438 544.833984375 172.499023438 542.666992188 168.499023438 542 c 2
 162.999023438 542 l 2
 160.666015625 542 157.833984375 542.333007812 154.5 543 c 0
 151.166992188 543.666992188 145.833984375 545.666992188 138.501953125 549 c 0
 129.833984375 553.666992188 124.501953125 560 122.500976562 568 c 2
 122.500976562 575 l 2
 122.434570312 575.799804688 122.401367188 576.623046875 122.401367188 577.469726562 c 0
 122.401367188 585.08984375 125.1015625 594.599609375 130.501953125 606 c 0
 136.501953125 617.333007812 145.833984375 629.166015625 158.501953125 641.499023438 c 0
 171.16796875 653.83203125 185.834960938 665.33203125 202.501953125 675.999023438 c 0
 219.169921875 686.666015625 237.501953125 695.333007812 257.501953125 702 c 0
 277.501953125 708.666992188 297.834960938 712 318.501953125 712 c 0
 381.834960938 712 431.16796875 696.333007812 466.501953125 665 c 0
 501.833984375 633.666992188 519.501953125 586 519.501953125 522 c 0
 519.501953125 469.333007812 506.16796875 427 479.501953125 395 c 0
 458.833984375 371.666992188 423.833984375 345.333984375 374.501953125 316.000976562 c 0
 359.16796875 306.000976562 338.501953125 293.333984375 312.501953125 278.000976562 c 0
 285.16796875 262.66796875 262.501953125 243.334960938 244.501953125 220.001953125 c 0
 225.833984375 196.668945312 212.001953125 172.8359375 203.001953125 148.502929688 c 0
 194.001953125 124.169921875 188.501953125 98.0029296875 186.501953125 70.0029296875 c 2
 186.501953125 60.0029296875 l 1
 231.833984375 57.3359375 272.501953125 56.0029296875 308.501953125 56.0029296875 c 0xb8
 334.501953125 56.0029296875 355.833984375 56.669921875 372.501953125 58.0029296875 c 0
 389.16796875 59.3359375 411.16796875 61.0029296875 438.501953125 63.0029296875 c 0
 467.16796875 65.0029296875 485.501953125 66.3359375 493.501953125 67.0029296875 c 2
 503.501953125 67.0029296875 l 2
 506.61328125 67.2255859375 509.318359375 67.3369140625 511.615234375 67.3369140625 c 0
 516.206054688 67.3369140625 519.16796875 66.892578125 520.501953125 66.00390625 c 0
 522.501953125 65.3369140625 524.833984375 64.00390625 527.501953125 62.00390625 c 0
 529.501953125 60.6708984375 530.833984375 59.337890625 531.501953125 58.0048828125 c 0
 533.501953125 54.0048828125 534.501953125 48.337890625 534.501953125 41.0048828125 c 0
 534.501953125 26.337890625 530.833984375 14.337890625 523.501953125 5.0048828125 c 0
 520.16796875 0.337890625 515.834960938 -1.9951171875 510.501953125 -1.9951171875 c 0x78
 462.501953125 -1.9951171875 394.166015625 -4 305.498046875 -8 c 0xb8
EndSplineSet
Validated: 524289
EndChar

StartChar: three
Encoding: 51 51 20
Width: 640
GlyphClass: 2
Flags: HMW
HStem: -14.998 64.998 328.002 81.002 647.004 65.001
VStem: 425.499 81 448.498 80.002
LayerCount: 2
Fore
SplineSet
505.501953125 532 m 0xf0
 506.168945312 530.666992188 506.499023438 529.333984375 506.499023438 528.000976562 c 0xf0
 506.499023438 511.333984375 504.001953125 495.833984375 499.001953125 481.500976562 c 0
 494.001953125 467.16796875 487.501953125 455.16796875 479.501953125 445.500976562 c 0
 471.501953125 435.833984375 461.668945312 427.000976562 450.001953125 419.000976562 c 0
 438.334960938 411.000976562 426.16796875 404.66796875 413.500976562 400.000976562 c 0
 402.16796875 395.333984375 390.16796875 391.666992188 377.500976562 389 c 2
 335.500976562 380 l 1
 377.500976562 370 l 2
 401.500976562 364.666992188 422.66796875 357.833984375 441.000976562 349.500976562 c 0
 459.333984375 341.16796875 475.166992188 330.500976562 488.5 317.500976562 c 0
 501.833007812 304.500976562 511.833007812 288.333984375 518.5 269.000976562 c 0
 525.166992188 249.66796875 528.5 226.334960938 528.5 199.001953125 c 0
 528.5 133.668945312 508.166992188 81.6689453125 467.5 43.001953125 c 0
 427.5 4.3349609375 374.5 -14.998046875 308.5 -14.998046875 c 0
 288.5 -14.998046875 268.5 -11.6650390625 248.5 -4.998046875 c 0
 227.166992188 2.3349609375 208 11.16796875 191 21.5009765625 c 0
 174 31.833984375 159.333007812 43.1669921875 147 55.5 c 0
 134.666992188 67.8330078125 125.5 80 119.5 92 c 0
 114.166992188 102 111.5 111.333007812 111.5 120 c 0
 111.5 122.666992188 111.833007812 125.333984375 112.5 128.000976562 c 0
 114.5 137.333984375 119.5 144.000976562 127.5 148.000976562 c 0
 134.833007812 152.000976562 141.833007812 154.000976562 148.5 154.000976562 c 0
 151.166992188 154.000976562 153.833984375 153.66796875 156.500976562 153.000976562 c 0
 165.833984375 150.333984375 175.166992188 143.000976562 184.5 131.000976562 c 0
 199.833007812 110.333984375 219.166015625 91.6669921875 242.499023438 75 c 0
 263.83203125 58.3330078125 287.165039062 50 312.498046875 50 c 0
 350.498046875 50 381.831054688 62.3330078125 406.498046875 87 c 0
 434.498046875 111.666992188 448.498046875 143.333984375 448.498046875 182.000976562 c 0xe8
 448.498046875 204.66796875 444.831054688 224.834960938 437.498046875 242.501953125 c 0
 430.165039062 260.168945312 418.83203125 275.668945312 403.499023438 289.001953125 c 0
 375.499023438 315.001953125 328.499023438 328.001953125 262.499023438 328.001953125 c 0
 252.499023438 328.001953125 243.83203125 332.334960938 236.499023438 341.001953125 c 0
 229.166015625 349.668945312 225.499023438 359.8359375 225.499023438 371.502929688 c 0
 225.499023438 383.169921875 228.166015625 392.336914062 233.499023438 399.00390625 c 0
 238.166015625 405.670898438 245.499023438 409.00390625 255.499023438 409.00390625 c 0
 307.499023438 409.00390625 348.499023438 420.670898438 378.499023438 444.00390625 c 0
 409.83203125 467.336914062 425.499023438 501.00390625 425.499023438 545.00390625 c 2
 425.499023438 549.00390625 l 1
 425.499023438 553.00390625 l 2
 425.518554688 553.899414062 425.528320312 554.7890625 425.528320312 555.671875 c 0
 425.528320312 585.68359375 414.518554688 608.4609375 392.499023438 624.00390625 c 0
 371.166015625 639.336914062 341.166015625 647.00390625 302.499023438 647.00390625 c 0
 289.83203125 647.00390625 276.499023438 644.670898438 262.499023438 640.00390625 c 0
 257.83203125 638.00390625 252.83203125 634.670898438 247.499023438 630.00390625 c 0
 242.166015625 625.336914062 237.833007812 621.669921875 234.5 619.002929688 c 0
 231.166992188 616.3359375 227 611.8359375 222 605.502929688 c 0
 217 599.169921875 213.5 594.836914062 211.5 592.50390625 c 0
 209.5 590.170898438 206.166992188 585.337890625 201.5 578.004882812 c 0
 192.166992188 565.337890625 183.166992188 558.004882812 174.5 556.004882812 c 0
 171.833007812 555.337890625 169.166015625 555.004882812 166.499023438 555.004882812 c 0
 159.83203125 555.004882812 152.499023438 557.004882812 144.499023438 561.004882812 c 0
 136.499023438 565.004882812 131.499023438 571.671875 129.499023438 581.004882812 c 0
 128.83203125 583.004882812 128.499023438 585.337890625 128.499023438 588.004882812 c 0
 128.499023438 596.671875 131.166015625 606.338867188 136.499023438 617.005859375 c 0
 149.166015625 642.338867188 168.499023438 664.005859375 194.499023438 682.005859375 c 0
 207.83203125 691.338867188 223.83203125 698.671875 242.499023438 704.004882812 c 0
 259.83203125 709.337890625 278.499023438 712.004882812 298.499023438 712.004882812 c 0
 437.166015625 712.004882812 506.499023438 653.337890625 506.499023438 536.004882812 c 0
 505.83203125 534.671875 505.501953125 533.333007812 505.501953125 532 c 0xf0
EndSplineSet
Validated: 524289
EndChar

StartChar: four
Encoding: 52 52 21
Width: 640
GlyphClass: 2
Flags: HMW
HStem: -13.998 21G 234 61.002 696.001 20G
VStem: 389.502 65.499 396.5 67.001 396.5 75.001
LayerCount: 2
Fore
SplineSet
411.5 -1 m 0xf0
 402.166992188 7 397.166992188 14.6669921875 396.5 22 c 2
 396.5 60 l 1xe4
 396.5 233 l 1xe8
 375.166992188 233.666992188 357.5 234 343.5 234 c 0
 255.5 233.333007812 190.83203125 228.666015625 149.5 219.999023438 c 0
 145.5 219.33203125 141.5 218.999023438 137.5 218.999023438 c 0
 133.5 218.999023438 129.5 219.666015625 125.5 220.999023438 c 0
 119.5 223.666015625 114.5 227.333007812 110.5 232 c 0
 101.166992188 244 96.5 258.333007812 96.5 275 c 0
 96.5 283 97.8330078125 291 100.5 299 c 0
 107.166992188 317.666992188 124.833984375 347.833984375 153.5 389.500976562 c 0
 182.16796875 431.16796875 218.16796875 483.000976562 261.5 545.000976562 c 0
 304.16796875 607.000976562 334.5 652.333984375 352.5 681.000976562 c 0
 359.833984375 692.333984375 367.833984375 700.833984375 376.5 706.500976562 c 0
 385.16796875 712.16796875 393.16796875 715.000976562 400.5 715.000976562 c 0
 402.5 715.66796875 404.5 716.000976562 406.5 716.000976562 c 0
 414.5 716.000976562 422.5 713.66796875 430.5 709.000976562 c 0
 438.5 704.333984375 443.5 696.333984375 445.5 685.000976562 c 0
 449.5 662.333984375 452.66796875 626.833984375 455 578.500976562 c 0xf0
 457.333984375 530.16796875 458.833984375 489.334960938 459.5 456.001953125 c 2
 462.5 294.001953125 l 1
 479.833984375 292.668945312 495.333984375 292.001953125 509 292.001953125 c 0
 522.66796875 292.001953125 531.66796875 289.501953125 536 284.501953125 c 0
 540.333984375 279.501953125 542.833984375 272.668945312 543.5 264.001953125 c 0
 543.5 253.334960938 541.5 245.334960938 537.5 240.001953125 c 0
 532.16796875 233.334960938 523 230.001953125 510 230.001953125 c 0
 497 230.001953125 481.5 230.668945312 463.5 232.001953125 c 1xe8
 464.16796875 126.668945312 466.16796875 67.001953125 469.5 53.001953125 c 0
 470.833984375 45.6689453125 471.5 39.001953125 471.5 33.001953125 c 0xe4
 472.16796875 22.3349609375 470.16796875 12.66796875 465.5 4.0009765625 c 0
 462.833984375 -1.33203125 459.333984375 -5.6650390625 455 -8.998046875 c 0
 450.66796875 -12.3310546875 445.5 -13.998046875 439.5 -13.998046875 c 0
 430.16796875 -13.3310546875 420.83203125 -9 411.5 -1 c 0xf0
389.501953125 603.001953125 m 2xf0
 388.501953125 629.001953125 l 1
 373.501953125 608.001953125 l 2
 282.834960938 478.001953125 220.501953125 377.001953125 186.501953125 305.001953125 c 2
 179.501953125 290.001953125 l 1
 195.501953125 291.001953125 l 2
 230.834960938 293.668945312 273.501953125 295.001953125 323.501953125 295.001953125 c 0
 343.501953125 295.001953125 367.834960938 294.668945312 396.501953125 294.001953125 c 1
 396.501953125 304.001953125 l 2
 396.501953125 429.334960938 394.16796875 529.001953125 389.501953125 603.001953125 c 2xf0
EndSplineSet
Validated: 524289
EndChar

StartChar: five
Encoding: 53 53 22
Width: 640
GlyphClass: 2
Flags: HMW
HStem: -7.99902 64.999 430 69.9971 628.997 69.002 639.996 60.0029
VStem: 111.501 73.999 119.501 67.999 458.5 80
LayerCount: 2
Fore
SplineSet
520.500976562 166 m 0xd6
 508.500976562 127.333007812 491.66796875 95.3330078125 470.000976562 70 c 0
 448.333984375 44.6669921875 423.500976562 25.333984375 395.500976562 12.0009765625 c 0
 368.16796875 -1.33203125 338.16796875 -7.9990234375 305.500976562 -7.9990234375 c 0
 280.16796875 -7.9990234375 256.500976562 -4.9990234375 234.500976562 1.0009765625 c 0
 211.16796875 7.0009765625 191.500976562 14.833984375 175.500976562 24.5009765625 c 0
 159.500976562 34.16796875 146.16796875 44.66796875 135.500976562 56.0009765625 c 0
 124.833984375 67.333984375 116.166992188 79.0009765625 109.5 91.0009765625 c 0
 104.166992188 103.66796875 101.5 114.000976562 101.5 122.000976562 c 0
 101.5 133.333984375 107.166992188 141.666992188 118.5 147 c 0
 129.833007812 152.333007812 137.833007812 155 142.5 155 c 0
 144.5 154.333007812 146.166992188 154 147.5 154 c 0
 151.5 154 155.5 152 159.5 148 c 0
 163.5 144 168.5 138 174.5 130 c 0
 207.166992188 81.3330078125 248.166992188 57 297.5 57 c 0
 345.5 57 383.833007812 78 412.5 120 c 0
 443.166992188 161.333007812 458.5 216.333007812 458.5 285 c 0
 458.5 328.333007812 448.5 363 428.5 389 c 0
 409.166992188 416.333007812 380.833984375 430 343.500976562 430 c 0
 327.500976562 430 310.833984375 428 293.500976562 424 c 0
 284.16796875 421.333007812 271.834960938 415.666015625 256.501953125 406.999023438 c 0
 252.501953125 404.999023438 247.334960938 401.166015625 241.001953125 395.499023438 c 0
 234.668945312 389.83203125 230.501953125 385.999023438 228.501953125 383.999023438 c 0
 218.501953125 374.666015625 210.168945312 366.666015625 203.501953125 359.999023438 c 0
 192.834960938 350.666015625 179.834960938 345.333007812 164.501953125 344 c 2
 160.501953125 344 l 2
 153.834960938 344 147.501953125 345.333007812 141.501953125 348 c 0
 132.834960938 351.333007812 126.16796875 359.666015625 121.500976562 372.999023438 c 0
 116.16796875 388.33203125 113.16796875 407.33203125 112.500976562 429.999023438 c 0
 111.833984375 440.666015625 111.500976562 450.999023438 111.500976562 460.999023438 c 0xda
 111.500976562 485.666015625 113.16796875 520.666015625 116.500976562 565.999023438 c 0
 118.500976562 590.666015625 119.500976562 607.999023438 119.500976562 617.999023438 c 2
 119.500976562 620.999023438 l 1
 117.500976562 622.999023438 l 2
 111.500976562 632.999023438 108.500976562 644.999023438 108.500976562 658.999023438 c 0
 108.500976562 674.33203125 112.833984375 686.33203125 121.500976562 694.999023438 c 0
 126.833984375 700.33203125 132.833984375 702.999023438 139.500976562 702.999023438 c 0
 164.16796875 702.33203125 219.500976562 701.33203125 305.500976562 699.999023438 c 0xd6
 390.16796875 698.666015625 456.500976562 697.999023438 504.500976562 697.999023438 c 0
 509.16796875 697.999023438 513.500976562 695.666015625 517.500976562 690.999023438 c 0
 522.16796875 684.999023438 525.16796875 677.83203125 526.500976562 669.499023438 c 0
 527.833984375 661.166015625 528.166992188 653.666015625 527.5 646.999023438 c 0
 526.833007812 640.33203125 525 636.165039062 522 634.498046875 c 0
 519 632.831054688 516.666992188 631.6640625 515 630.997070312 c 0
 513.333007812 630.330078125 510.5 629.830078125 506.5 629.497070312 c 0
 502.5 629.1640625 499.666992188 628.997070312 498 628.997070312 c 0xe6
 496.333007812 628.997070312 492.666015625 629.1640625 486.999023438 629.497070312 c 0
 481.33203125 629.830078125 475.999023438 630.163085938 470.999023438 630.49609375 c 0
 465.999023438 630.829101562 451.499023438 631.99609375 427.499023438 633.99609375 c 0
 405.499023438 635.99609375 385.83203125 637.49609375 368.499023438 638.49609375 c 0
 351.166015625 639.49609375 327.333007812 639.99609375 297 639.99609375 c 0
 266.666992188 639.99609375 231.166992188 638.663085938 190.5 635.99609375 c 1
 189.833007812 623.329101562 188.833007812 600.99609375 187.5 568.99609375 c 0xd6
 186.166992188 536.99609375 185.5 516.663085938 185.5 507.99609375 c 0xda
 185.5 499.329101562 185.666992188 490.829101562 186 482.49609375 c 0
 186.333007812 474.163085938 186.833007812 451.330078125 187.5 413.997070312 c 1
 203.5 431.997070312 l 2
 220.833007812 451.330078125 243.333007812 467.497070312 271 480.497070312 c 0
 298.666992188 493.497070312 330.5 499.997070312 366.5 499.997070312 c 0
 392.5 499.997070312 416.166992188 494.6640625 437.5 483.997070312 c 0
 460.166992188 473.330078125 478.666992188 458.997070312 493 440.997070312 c 0
 507.333007812 422.997070312 518.5 401.497070312 526.5 376.497070312 c 0
 534.5 351.497070312 538.5 324.6640625 538.5 295.997070312 c 0
 538.5 247.997070312 532.500976562 204.666992188 520.500976562 166 c 0xd6
EndSplineSet
Validated: 524289
EndChar

StartChar: six
Encoding: 54 54 23
Width: 640
GlyphClass: 2
Flags: HMW
HStem: -13 64.998 401.999 69.999
VStem: 99.499 69.999 462.499 78.002
LayerCount: 2
Fore
SplineSet
522.498046875 144 m 0
 510.498046875 112 494.331054688 84.5 473.998046875 61.5 c 0
 453.666015625 38.5 429.83203125 20.3330078125 402.499023438 7 c 0
 376.499023438 -6.3330078125 349.166015625 -13 320.499023438 -13 c 0
 284.499023438 -13 253.166015625 -5.3330078125 226.499023438 10 c 0
 197.166015625 25.3330078125 173.166015625 47.166015625 154.499023438 75.4990234375 c 0
 135.83203125 103.83203125 122 137.499023438 113 176.499023438 c 0
 104 215.499023438 99.5 258.666015625 99.5 305.999023438 c 0
 99.5 365.999023438 105.166015625 419.999023438 116.5 467.999023438 c 0
 127.166015625 512.666015625 141.666015625 550.333007812 159.999023438 581 c 0
 178.33203125 611.666992188 200.83203125 637.333984375 227.499023438 658.000976562 c 0
 252.166015625 679.333984375 278.833984375 695.333984375 307.5 706.000976562 c 0
 336.166992188 716.66796875 368.166992188 723.66796875 403.5 727.000976562 c 2
 409.5 727.000976562 l 2
 419.5 727.000976562 428.5 725.000976562 436.5 721.000976562 c 0
 444.5 717.000976562 449.166992188 710.333984375 450.5 701.000976562 c 2
 450.5 700.000976562 l 2
 450.5 695.333984375 447.5 689.666992188 441.5 683 c 0
 434.166992188 674.333007812 426.166992188 668.666015625 417.5 665.999023438 c 0
 410.833984375 663.999023438 400.5 661.499023438 386.5 658.499023438 c 0
 372.5 655.499023438 360.5 652.33203125 350.5 648.999023438 c 0
 340.5 645.666015625 328.833984375 640.999023438 315.5 634.999023438 c 0
 288.833984375 622.33203125 261.833984375 598.999023438 234.5 564.999023438 c 0
 219.833984375 546.33203125 206.166015625 521.665039062 193.499023438 490.998046875 c 0
 180.83203125 460.331054688 172.83203125 432.998046875 169.499023438 408.998046875 c 2
 165.499023438 375.998046875 l 1
 186.499023438 400.998046875 l 2
 206.499023438 424.331054688 231.166015625 441.998046875 260.499023438 453.998046875 c 0
 289.166015625 465.998046875 321.499023438 471.998046875 357.499023438 471.998046875 c 0
 384.166015625 471.331054688 408.166015625 466.998046875 429.499023438 458.998046875 c 0
 452.166015625 450.998046875 471.833984375 438.165039062 488.5 420.498046875 c 0
 505.166992188 402.831054688 518 379.498046875 527 350.498046875 c 0
 536 321.498046875 540.5 286.665039062 540.5 245.998046875 c 0
 540.5 209.998046875 534.498046875 176 522.498046875 144 c 0
171.5 228.998046875 m 0
 174.166992188 196.331054688 184.166992188 164.998046875 201.5 134.998046875 c 0
 210.166992188 118.998046875 220.166992188 104.998046875 231.5 92.998046875 c 0
 242.166992188 80.3310546875 255.166992188 70.3310546875 270.5 62.998046875 c 0
 285.833984375 55.6650390625 302.166015625 51.998046875 319.499023438 51.998046875 c 2
 321.499023438 51.998046875 l 2
 346.166015625 51.998046875 369.166015625 61.3310546875 390.499023438 79.998046875 c 0
 411.83203125 97.998046875 429.166015625 120.998046875 442.498046875 148.998046875 c 0
 455.831054688 176.998046875 462.498046875 205.331054688 462.498046875 233.998046875 c 0
 462.498046875 266.665039062 459.498046875 294.165039062 453.498046875 316.498046875 c 0
 447.498046875 338.831054688 438.166015625 356.331054688 425.498046875 368.998046875 c 0
 413.498046875 381.665039062 400.166015625 390.33203125 385.498046875 394.999023438 c 0
 370.831054688 399.666015625 353.498046875 401.999023438 333.498046875 401.999023438 c 0
 301.498046875 401.999023438 271.498046875 392.999023438 243.498046875 374.999023438 c 0
 214.831054688 356.999023438 190.831054688 333.999023438 171.498046875 305.999023438 c 1
 169.498046875 303.999023438 l 1
 169.498046875 300.999023438 l 2
 169.498046875 269.666015625 170.166992188 245.665039062 171.5 228.998046875 c 0
EndSplineSet
Validated: 524289
EndChar

StartChar: seven
Encoding: 55 55 24
Width: 640
GlyphClass: 2
Flags: HMW
HStem: -14 21G<167.168 172.502> 632.8 71.2011
LayerCount: 2
Fore
SplineSet
516.999023438 693.5 m 0
 522.666015625 691.166992188 527.833007812 687.333984375 532.5 682.000976562 c 0
 537.166992188 676.66796875 539.5 669.66796875 539.5 661.000976562 c 0
 539.5 652.333984375 536.833007812 641.666992188 531.5 629 c 0
 522.166992188 609 505.333984375 579 481.000976562 539 c 0
 456.66796875 499 431.834960938 457.666992188 406.501953125 415 c 0
 382.501953125 373 353.168945312 316.833007812 318.501953125 246.5 c 0
 283.834960938 176.166992188 251.16796875 104 220.500976562 30 c 0
 213.16796875 14 203.834960938 2.3330078125 192.501953125 -5 c 0
 184.501953125 -11 176.501953125 -14 168.501953125 -14 c 0
 165.834960938 -14 163.501953125 -13.6669921875 161.501953125 -13 c 0
 150.834960938 -10.3330078125 143.16796875 -3.8330078125 138.500976562 6.5 c 0
 136.458984375 11.0205078125 135.438476562 15.701171875 135.438476562 20.541015625 c 0
 135.438476562 26.763671875 137.125976562 33.25 140.500976562 40 c 0
 175.16796875 108 210.834960938 176 247.501953125 244 c 0
 282.834960938 312 312.001953125 366.166992188 335.001953125 406.5 c 0
 358.001953125 446.833007812 379.501953125 486.333007812 399.501953125 525 c 0
 420.168945312 563 434.501953125 594 442.501953125 618 c 2
 446.501953125 631 l 1
 409.302734375 632.200195312 372.463867188 632.799804688 335.984375 632.799804688 c 0
 311.6640625 632.799804688 287.502929688 632.533203125 263.501953125 632 c 0
 199.501953125 630 157.168945312 626.333007812 136.501953125 621 c 0
 134.501953125 620.333007812 132.168945312 620 129.501953125 620 c 0
 126.834960938 620 124.16796875 620.666992188 121.500976562 622 c 0
 116.833984375 623.333007812 113.166992188 626 110.5 630 c 0
 104.5 638.666992188 101.166992188 648.666992188 100.5 660 c 0
 100.5 669.333007812 102.666992188 676.833007812 107 682.5 c 0
 111.333007812 688.166992188 120.5 692.333984375 134.5 695.000976562 c 0
 169.833007812 701.000976562 225.833007812 704.000976562 302.5 704.000976562 c 0
 326.5 704.000976562 373.5 702.333984375 443.5 699.000976562 c 0
 478.833007812 697.66796875 497.833007812 697.000976562 500.5 697.000976562 c 0
 505.833007812 697.000976562 511.33203125 695.833007812 516.999023438 693.5 c 0
EndSplineSet
Validated: 524289
EndChar

StartChar: eight
Encoding: 56 56 25
Width: 640
GlyphClass: 2
Flags: HMW
HStem: -17.999 66.001 656.002 52.001
VStem: 93.5 66.9971 120.501 73.9971 432.5 70 472.498 74.002
LayerCount: 2
Fore
SplineSet
538.498046875 142.5 m 0xc4
 533.165039062 122.166992188 523.998046875 102.333984375 510.998046875 83.0009765625 c 0
 497.998046875 63.66796875 482.331054688 46.66796875 463.998046875 32.0009765625 c 0
 445.665039062 17.333984375 422.83203125 5.333984375 395.499023438 -3.9990234375 c 0
 369.499023438 -13.33203125 340.83203125 -17.9990234375 309.499023438 -17.9990234375 c 0
 278.166015625 -17.9990234375 250.499023438 -13.666015625 226.499023438 -4.9990234375 c 0
 201.166015625 3.66796875 180.499023438 15.0009765625 164.499023438 29.0009765625 c 0
 148.499023438 43.0009765625 134.83203125 59.5009765625 123.499023438 78.5009765625 c 0
 112.166015625 97.5009765625 104.333007812 116.66796875 100 136.000976562 c 0
 95.6669921875 155.333984375 93.5 175.500976562 93.5 196.500976562 c 0xe4
 93.5 217.500976562 99 240.333984375 110 265.000976562 c 0
 121 289.66796875 136.833007812 312.66796875 157.5 334.000976562 c 0
 178.166992188 355.333984375 200.5 370.000976562 224.5 378.000976562 c 2
 246.5 386.000976562 l 1
 225.5 396.000976562 l 2
 192.166992188 412.000976562 166.333984375 432.66796875 148.000976562 458.000976562 c 0
 129.66796875 483.333984375 120.500976562 509.000976562 120.500976562 535.000976562 c 0
 120.500976562 542.333984375 121.000976562 550.333984375 122.000976562 559.000976562 c 0
 123.000976562 567.66796875 125.500976562 577.834960938 129.500976562 589.501953125 c 0
 133.500976562 601.168945312 138.333984375 612.3359375 144.000976562 623.002929688 c 0
 149.66796875 633.669921875 157.66796875 644.169921875 168.000976562 654.502929688 c 0
 178.333984375 664.8359375 190.166992188 674.002929688 203.5 682.002929688 c 0
 216.166992188 689.3359375 231.666992188 695.502929688 250 700.502929688 c 0
 268.333007812 705.502929688 288.833007812 708.002929688 311.5 708.002929688 c 0
 334.166992188 708.002929688 354.666992188 705.669921875 373 701.002929688 c 0
 391.333007812 696.3359375 406.833007812 690.002929688 419.5 682.002929688 c 0
 432.833007812 674.002929688 444.666015625 664.8359375 454.999023438 654.502929688 c 0
 465.33203125 644.169921875 473.33203125 633.669921875 478.999023438 623.002929688 c 0
 484.666015625 612.3359375 489.333007812 601.002929688 493 589.002929688 c 0
 496.666992188 577.002929688 499.166992188 566.502929688 500.5 557.502929688 c 0
 501.833007812 548.502929688 502.5 540.002929688 502.5 532.002929688 c 0xd8
 502.5 524.002929688 501.5 516.502929688 499.5 509.502929688 c 0
 497.5 502.502929688 495.166992188 496.169921875 492.5 490.502929688 c 0
 489.833007812 484.8359375 486 479.002929688 481 473.002929688 c 0
 476 467.002929688 471.166992188 461.669921875 466.5 457.002929688 c 0
 458.5 448.3359375 444.833007812 437.3359375 425.5 424.002929688 c 0
 417.5 418.002929688 404.5 408.3359375 386.5 395.002929688 c 1
 401.5 388.002929688 l 2
 424.166992188 378.002929688 444.5 366.502929688 462.5 353.502929688 c 0
 480.5 340.502929688 494.666992188 327.669921875 505 315.002929688 c 0
 515.333007812 302.3359375 523.833007812 289.168945312 530.5 275.501953125 c 0
 537.166992188 261.834960938 541.5 249.501953125 543.5 238.501953125 c 0
 545.5 227.501953125 546.5 216.001953125 546.5 204.001953125 c 0
 546.5 183.334960938 543.831054688 162.833007812 538.498046875 142.5 c 0xc4
227.5 472.001953125 m 0
 246.833007812 454.001953125 278.5 436.334960938 322.5 419.001953125 c 1
 325.5 417.001953125 l 1
 329.5 419.001953125 l 2
 355.5 430.334960938 378.833007812 446.334960938 399.5 467.001953125 c 0
 421.5 488.334960938 432.5 509.001953125 432.5 529.001953125 c 0
 432.5 549.001953125 427.166992188 568.668945312 416.5 588.001953125 c 0
 405.833007812 607.334960938 391.166015625 623.501953125 372.499023438 636.501953125 c 0
 353.83203125 649.501953125 333.83203125 656.001953125 312.499023438 656.001953125 c 2
 310.499023438 656.001953125 l 2
 279.83203125 655.334960938 253.165039062 643.001953125 230.498046875 619.001953125 c 0
 206.498046875 595.001953125 194.498046875 568.001953125 194.498046875 538.001953125 c 0xd8
 194.498046875 513.334960938 205.5 491.334960938 227.5 472.001953125 c 0
184.498046875 113.501953125 m 0
 200.498046875 91.8349609375 219.831054688 75.3349609375 242.498046875 64.001953125 c 0
 264.498046875 53.3349609375 288.165039062 48.001953125 313.498046875 48.001953125 c 0
 331.498046875 48.001953125 349.498046875 51.001953125 367.498046875 57.001953125 c 0
 385.498046875 63.001953125 402.165039062 71.6689453125 417.498046875 83.001953125 c 0
 433.498046875 95.001953125 446.665039062 110.168945312 456.998046875 128.501953125 c 0
 467.331054688 146.834960938 472.498046875 166.66796875 472.498046875 188.000976562 c 0
 472.498046875 200.000976562 471.665039062 211.16796875 469.998046875 221.500976562 c 0
 468.331054688 231.833984375 464.1640625 243.666992188 457.497070312 257 c 0
 450.830078125 270.333007812 441.830078125 282.666015625 430.497070312 293.999023438 c 0
 419.830078125 305.33203125 405.663085938 316.83203125 387.99609375 328.499023438 c 0
 370.329101562 340.166015625 348.49609375 351.333007812 322.49609375 362 c 1
 319.49609375 361 l 2
 274.163085938 347.666992188 236.830078125 324.666992188 207.497070312 292 c 0
 176.1640625 259.333007812 160.497070312 224 160.497070312 186 c 0xe4
 160.497070312 159.333007812 168.498046875 135.168945312 184.498046875 113.501953125 c 0
EndSplineSet
Validated: 524289
EndChar

StartChar: nine
Encoding: 57 57 26
Width: 640
GlyphClass: 2
Flags: HMW
HStem: -13 21G<202.501 207.501 207.501 215.501> 244.999 69 664.999 64.002
VStem: 99.5 78<464 497> 471.499 69.001
LayerCount: 2
Fore
SplineSet
521.5 238 m 0
 509.5 196 493.166992188 160.333007812 472.5 131 c 0
 451.833007812 101.666992188 427.5 76.6669921875 399.5 56 c 0
 372.833007812 35.3330078125 344.333007812 19.5 314 8.5 c 0
 283.666992188 -2.5 250.833984375 -9.6669921875 215.500976562 -13 c 2
 207.500976562 -13 l 2
 197.500976562 -13 188.333984375 -10.8330078125 180.000976562 -6.5 c 0
 171.66796875 -2.1669921875 166.834960938 4.3330078125 165.501953125 13 c 2
 165.501953125 14 l 2
 165.501953125 19.3330078125 168.501953125 25.3330078125 174.501953125 32 c 0
 181.834960938 40 190.16796875 45.3330078125 199.500976562 48 c 0
 206.833984375 50.6669921875 218.166992188 53.6669921875 233.5 57 c 0
 248.833007812 60.3330078125 262.5 63.666015625 274.5 66.9990234375 c 0
 286.5 70.33203125 300.166992188 75.1650390625 315.5 81.498046875 c 0
 330.833007812 87.8310546875 345.666015625 96.498046875 359.999023438 107.498046875 c 0
 374.33203125 118.498046875 387.83203125 131.665039062 400.499023438 146.998046875 c 0
 416.499023438 167.665039062 431.166015625 190.998046875 444.499023438 216.998046875 c 0
 457.83203125 242.998046875 466.83203125 266.998046875 471.499023438 288.998046875 c 2
 478.499023438 324.998046875 l 1
 454.499023438 296.998046875 l 2
 437.166015625 277.665039062 415.833007812 264.33203125 390.5 256.999023438 c 0
 365.833007812 248.999023438 334.166015625 244.999023438 295.499023438 244.999023438 c 0
 270.166015625 244.999023438 245.833007812 251.666015625 222.5 264.999023438 c 0
 197.833007812 277.666015625 176.5 294.833007812 158.5 316.5 c 0
 140.5 338.166992188 126.166992188 363.166992188 115.5 391.5 c 0
 104.833007812 419.833007812 99.5 449 99.5 479 c 0
 99.5 515 105.5 548.666992188 117.5 580 c 0
 129.5 611.333007812 145.5 637.833007812 165.5 659.5 c 0
 185.5 681.166992188 209.166992188 698.333984375 236.5 711.000976562 c 0
 262.5 723.000976562 290.166992188 729.000976562 319.5 729.000976562 c 0
 390.833007812 729.000976562 445.5 699.66796875 483.5 641.000976562 c 0
 521.5 582.333984375 540.5 498.666992188 540.5 390 c 0
 540.5 333.333007812 534.166992188 282.666992188 521.5 238 c 0
215.5 359.999023438 m 0
 238.833007812 329.33203125 273.166015625 313.999023438 318.499023438 313.999023438 c 0
 346.499023438 313.999023438 373.83203125 320.999023438 400.499023438 334.999023438 c 0
 429.166015625 348.999023438 452.166015625 368.33203125 469.499023438 392.999023438 c 2
 471.499023438 395.999023438 l 1
 471.499023438 411.999023438 l 2
 471.499023438 430.666015625 470.499023438 455.666015625 468.499023438 486.999023438 c 2
 468.499023438 487.999023438 l 2
 465.166015625 520.666015625 455.166015625 551.999023438 438.499023438 581.999023438 c 0
 429.83203125 597.999023438 419.83203125 611.999023438 408.499023438 623.999023438 c 0
 397.83203125 635.999023438 384.83203125 645.83203125 369.499023438 653.499023438 c 0
 354.166015625 661.166015625 337.833007812 664.999023438 320.5 664.999023438 c 2
 318.5 664.999023438 l 2
 294.5 664.33203125 271.833007812 655.665039062 250.5 638.998046875 c 0
 229.166992188 622.331054688 211.666992188 600.6640625 198 573.997070312 c 0
 184.333007812 547.330078125 177.5 519.663085938 177.5 490.99609375 c 0
 177.5 434.329101562 190.166992188 390.666015625 215.5 359.999023438 c 0
EndSplineSet
Validated: 524289
EndChar

StartChar: colon
Encoding: 58 58 27
Width: 640
GlyphClass: 2
Flags: HMW
HStem: 49.001 136.124 317 135.143
VStem: 265.748 110.001
LayerCount: 2
Fore
SplineSet
323.750976562 317 m 2
 320.750976562 317 l 2
 304.750976562 317.666992188 292.083984375 320.666992188 282.750976562 326 c 0
 272.750976562 332 267.083984375 341.333007812 265.750976562 354 c 0
 265.083984375 365.333007812 264.750976562 377 264.750976562 389 c 0
 264.416992188 394.666015625 264.250976562 400.249023438 264.250976562 405.749023438 c 0
 264.250976562 411.249023438 264.416992188 416.666015625 264.750976562 422 c 0
 265.418945312 428.666992188 267.418945312 434 270.750976562 438 c 0
 274.083984375 442 278.416992188 445 283.750976562 447 c 0
 294.036132812 450.428710938 304.810546875 452.143554688 316.075195312 452.143554688 c 0
 317.954101562 452.143554688 319.844726562 452.095703125 321.750976562 452 c 0
 327.083007812 452 332.416015625 451.333007812 337.749023438 450 c 0
 351.749023438 447.333007812 361.416015625 442 366.749023438 434 c 0
 370.083007812 429.333007812 372.083007812 423.333007812 372.749023438 416 c 0
 373.416015625 412 373.749023438 408 373.749023438 404 c 0
 373.749023438 386.666992188 371.083007812 368.333984375 365.749023438 349.000976562 c 0
 363.083007812 338.333984375 357.415039062 330.333984375 348.748046875 325.000976562 c 0
 340.081054688 319.66796875 331.750976562 317 323.750976562 317 c 2
320.748046875 49.0009765625 m 0
 308.081054688 49.0009765625 295.748046875 53.0009765625 283.748046875 61.0009765625 c 0
 273.748046875 67.0009765625 268.081054688 75.333984375 266.748046875 86.0009765625 c 0
 266.081054688 104.000976562 265.748046875 114.000976562 265.748046875 116.000976562 c 0
 265.748046875 118.000976562 266.081054688 123.66796875 266.748046875 133.000976562 c 0
 267.415039062 142.333984375 268.083007812 149.666992188 268.749023438 155 c 0
 268.749023438 161 270.416015625 166 273.749023438 170 c 0
 276.416015625 174 280.416015625 177 285.749023438 179 c 0
 297.415039062 183.083007812 308.315429688 185.125 318.450195312 185.125 c 0
 319.899414062 185.125 321.331054688 185.083007812 322.748046875 185 c 0
 329.415039062 185 336.083007812 184 342.749023438 182 c 0
 350.083007812 180 356.749023438 176 362.749023438 170 c 0
 368.749023438 164 372.416015625 157 373.749023438 149 c 0
 375.083007812 140.333007812 375.749023438 132 375.749023438 124 c 0
 375.749023438 110 373.749023438 95.6669921875 369.749023438 81 c 0
 367.083007812 70.3330078125 360.415039062 62.3330078125 349.748046875 57 c 0
 339.748046875 51.6669921875 330.081054688 49.0009765625 320.748046875 49.0009765625 c 0
EndSplineSet
Validated: 524289
EndChar

StartChar: semicolon
Encoding: 59 59 28
Width: 640
GlyphClass: 2
Flags: HMW
HStem: 275.002 136.001
VStem: 293.834 109.666
LayerCount: 2
Fore
SplineSet
383.498046875 79.001953125 m 0
 383.498046875 62.3349609375 361.831054688 -25.33203125 318.498046875 -183.999023438 c 0
 315.165039062 -195.999023438 309.833007812 -204.33203125 302.499023438 -208.999023438 c 0
 295.166015625 -213.666015625 287.499023438 -215.999023438 279.499023438 -215.999023438 c 2
 277.499023438 -215.999023438 l 2
 266.166015625 -215.33203125 255.833007812 -211.665039062 246.500976562 -204.998046875 c 0
 239.833007812 -200.331054688 236.500976562 -193.6640625 236.500976562 -184.997070312 c 0
 236.500976562 -173.6640625 243.500976562 -133.331054688 257.500976562 -63.998046875 c 0
 270.166992188 -2.6650390625 280.500976562 44.3349609375 288.500976562 77.001953125 c 0
 290.500976562 85.6689453125 293.000976562 92.3359375 296.000976562 97.0029296875 c 0
 299.000976562 101.669921875 301.833007812 104.669921875 304.500976562 106.002929688 c 0
 311.166992188 108.669921875 317.500976562 110.002929688 323.500976562 110.002929688 c 0
 325.500976562 110.002929688 327.833007812 109.669921875 330.500976562 109.002929688 c 2
 331.500976562 109.002929688 l 2
 342.833007812 109.002929688 354.500976562 106.3359375 366.500976562 101.002929688 c 0
 372.500976562 98.3359375 377.166992188 94.6689453125 380.500976562 90.001953125 c 0
 382.500976562 87.3349609375 383.498046875 83.6689453125 383.498046875 79.001953125 c 0
351.500976562 275.001953125 m 2
 344.166992188 275.668945312 336.331054688 277.333984375 327.998046875 280.000976562 c 0
 319.665039062 282.66796875 312.333007812 286.834960938 305.999023438 292.501953125 c 0
 299.666015625 298.168945312 296.166015625 304.668945312 295.499023438 312.001953125 c 0
 294.833007812 323.334960938 294.333007812 334.834960938 293.999023438 346.501953125 c 0
 293.887695312 350.38671875 293.833007812 354.216796875 293.833007812 357.991210938 c 0
 293.833007812 365.55078125 294.055664062 372.887695312 294.500976562 380.002929688 c 0
 295.166992188 386.002929688 297.166992188 391.169921875 300.500976562 395.502929688 c 0
 303.833007812 399.8359375 308.500976562 403.002929688 314.500976562 405.002929688 c 0
 320.500976562 407.002929688 326.333007812 408.502929688 332.000976562 409.502929688 c 0
 337.666992188 410.502929688 342.000976562 411.002929688 345.000976562 411.002929688 c 2
 351.500976562 411.002929688 l 2
 362.833007812 410.3359375 373.498046875 407.668945312 383.498046875 403.001953125 c 0
 388.831054688 401.001953125 393.166015625 397.501953125 396.499023438 392.501953125 c 0
 399.833007812 387.501953125 401.833007812 381.668945312 402.499023438 375.001953125 c 0
 403.166015625 371.001953125 403.499023438 367.001953125 403.499023438 363.001953125 c 0
 403.499023438 345.001953125 400.833007812 326.334960938 395.499023438 307.001953125 c 0
 392.833007812 296.334960938 387.165039062 288.334960938 378.498046875 283.001953125 c 0
 369.831054688 277.668945312 361.498046875 275.001953125 353.498046875 275.001953125 c 2
 351.998046875 275.001953125 l 1
 351.500976562 275.001953125 l 2
EndSplineSet
Validated: 524289
EndChar

StartChar: less
Encoding: 60 60 29
Width: 640
GlyphClass: 2
Flags: HMW
HStem: 683 20G<507.167 514.501>
LayerCount: 2
Fore
SplineSet
548.5 648 m 0
 541.83203125 637.333007812 527.83203125 624.333007812 506.5 609 c 0
 469.166992188 583 412.5 540.333007812 336.5 481 c 0
 259.83203125 421 207.83203125 380.666992188 180.5 360 c 1
 191.5 353 l 2
 216.83203125 333 245.5 308.666992188 277.5 280 c 0
 309.5 251.333007812 337.5 225.666015625 361.5 202.999023438 c 0
 385.5 179.666015625 411.5 155.999023438 439.5 131.999023438 c 0
 468.166992188 107.999023438 492.833984375 89.33203125 513.5 75.9990234375 c 0
 534.833984375 61.9990234375 548.5 50.33203125 554.5 40.9990234375 c 0
 557.16796875 36.9990234375 558.5 32.666015625 558.5 27.9990234375 c 0
 558.5 25.9990234375 557.833984375 22.666015625 556.5 17.9990234375 c 0
 554.5 12.666015625 550.833984375 8.3330078125 545.5 5 c 0
 540.16796875 1.6669921875 532.5 -0.666015625 522.5 -1.9990234375 c 0
 519.833984375 -2.666015625 517.5 -2.9990234375 515.5 -2.9990234375 c 0
 506.833984375 -2.9990234375 497.166992188 -0.9990234375 486.5 3.0009765625 c 0
 469.83203125 8.333984375 449.83203125 19.6669921875 426.5 37 c 0
 402.5 54.3330078125 376.5 75.666015625 348.5 100.999023438 c 0
 320.5 126.33203125 292.5 151.999023438 264.5 177.999023438 c 0
 236.5 203.999023438 206.83203125 230.666015625 175.5 257.999023438 c 0
 144.166992188 285.33203125 117.5 306.999023438 95.5 322.999023438 c 0
 88.8330078125 328.33203125 84.5 335.665039062 82.5 344.998046875 c 0
 81.8330078125 349.665039062 81.5 354.33203125 81.5 358.999023438 c 0
 81.5 363.666015625 82.1669921875 368.333007812 83.5 373 c 0
 86.1669921875 381.666992188 90.5 388 96.5 392 c 0
 134.5 420 179.166992188 455.333007812 230.5 498 c 0
 281.83203125 540.666992188 328.5 579 370.5 613 c 0
 413.166992188 647 450.833984375 673.666992188 483.5 693 c 0
 493.5 699.666992188 502.833984375 703 511.5 703 c 0
 517.5 703 522.5 701.666992188 526.5 699 c 0
 537.833984375 693 545.833984375 684.666992188 550.5 674 c 0
 552.5 669.333007812 553.5 665 553.5 661 c 0
 552.833984375 657 551.166992188 652.666992188 548.5 648 c 0
EndSplineSet
Validated: 524289
EndChar

StartChar: equal
Encoding: 61 61 30
Width: 640
GlyphClass: 2
Flags: HMW
HStem: 256.909 63.091 452.907 66.0929
LayerCount: 2
Fore
SplineSet
173.499023438 519 m 2
 176.499023438 519 l 2
 214.499023438 517.666992188 253.499023438 517 293.499023438 517 c 0
 334.166015625 517 371.833007812 517.333007812 406.499023438 518 c 0
 441.166992188 518.666992188 462.166992188 519 469.499023438 519 c 0
 482.166992188 518.333007812 490.499023438 515.666015625 494.499023438 510.999023438 c 0
 499.166992188 506.33203125 501.833984375 499.665039062 502.500976562 490.998046875 c 0
 501.833984375 473.665039062 496.833984375 462.998046875 487.500976562 458.998046875 c 0
 484.833984375 457.665039062 481.833984375 456.998046875 478.500976562 456.998046875 c 2
 470.500976562 456.998046875 l 2
 455.166992188 457.665039062 441.166992188 457.998046875 428.500976562 457.998046875 c 2
 393.500976562 457.998046875 l 1
 283.500976562 454.998046875 l 2
 237.500976562 453.665039062 203.500976562 452.998046875 181.500976562 452.998046875 c 0
 180.166992188 452.9375 178.862304688 452.907226562 177.588867188 452.907226562 c 0
 164.862304688 452.907226562 155.166992188 455.9375 148.500976562 461.998046875 c 0
 141.166992188 467.998046875 137.500976562 475.331054688 137.500976562 483.998046875 c 2
 137.500976562 486.998046875 l 2
 138.166992188 495.665039062 141.166992188 502.998046875 146.500976562 508.998046875 c 0
 152.500976562 515.665039062 161.499023438 519 173.499023438 519 c 2
179.500976562 319.998046875 m 2
 200.833984375 319.331054688 226.166992188 318.998046875 255.499023438 318.998046875 c 0
 285.499023438 319.665039062 321.499023438 320.33203125 363.499023438 320.999023438 c 2
 469.499023438 322.999023438 l 2
 482.166992188 322.999023438 490.499023438 320.666015625 494.499023438 315.999023438 c 0
 499.166992188 310.666015625 501.833984375 303.666015625 502.500976562 294.999023438 c 0
 502.500976562 284.33203125 500.500976562 275.999023438 496.500976562 269.999023438 c 0
 493.833984375 266.666015625 490.833984375 264.333007812 487.500976562 263 c 0
 484.833984375 261.666992188 481.833984375 261 478.500976562 261 c 2
 470.500976562 261 l 2
 453.833984375 261.666992188 435.166992188 262 414.499023438 262 c 0
 393.833007812 262 349.166015625 261 280.499023438 259 c 0
 233.166015625 257.666992188 198.833007812 257 177.499023438 257 c 0
 176.225585938 256.939453125 174.986328125 256.909179688 173.779296875 256.909179688 c 0
 161.713867188 256.909179688 152.954101562 259.939453125 147.499023438 266 c 0
 140.833007812 272.666992188 137.499023438 280.666992188 137.499023438 290 c 2
 137.499023438 292 l 2
 138.166992188 300 141.499023438 306.666992188 147.499023438 312 c 0
 153.499023438 317.333007812 163.499023438 320 177.499023438 320 c 2
 179.500976562 319.998046875 l 2
EndSplineSet
Validated: 524289
EndChar

StartChar: greater
Encoding: 62 62 31
Width: 640
GlyphClass: 2
Flags: HMW
HStem: 690 20G<123.499 128.833>
LayerCount: 2
Fore
SplineSet
556.500976562 334 m 0
 553.833984375 325.333007812 549.500976562 319 543.500976562 315 c 0
 505.500976562 287 460.833984375 251.666992188 409.500976562 209 c 0
 358.16796875 166.333007812 311.500976562 128 269.500976562 94 c 0
 226.833984375 60.6669921875 189.166992188 34 156.5 14 c 0
 146.5 7.3330078125 136.833007812 4 127.5 4 c 0
 122.166992188 4 117.5 5.3330078125 113.5 8 c 0
 102.166992188 14 94.1669921875 22.3330078125 89.5 33 c 0
 87.5 37.6669921875 86.5 42 86.5 46 c 0
 86.5 50 87.8330078125 54.3330078125 90.5 59 c 0
 97.1669921875 69.6669921875 111.5 82.6669921875 133.5 98 c 0
 170.833007812 124 227.5 166.666992188 303.5 226 c 0
 379.5 286 428.166992188 323.666992188 449.5 339 c 2
 459.5 347 l 1
 449.5 354 l 2
 423.5 374 394.5 398.333007812 362.5 427 c 0
 330.5 455.666992188 302.5 481.333984375 278.5 504.000976562 c 0
 254.5 527.333984375 228.5 551.000976562 200.5 575.000976562 c 0
 171.833007812 599.000976562 147.166015625 617.66796875 126.499023438 631.000976562 c 0
 105.166015625 645.000976562 91.4990234375 656.66796875 85.4990234375 666.000976562 c 0
 82.83203125 670.66796875 81.4990234375 675.334960938 81.4990234375 680.001953125 c 0
 81.4990234375 681.334960938 82.166015625 684.334960938 83.4990234375 689.001953125 c 0
 85.4990234375 694.334960938 89.166015625 698.66796875 94.4990234375 702.000976562 c 0
 99.83203125 705.333984375 107.499023438 707.666992188 117.499023438 709 c 0
 120.166015625 709.666992188 122.499023438 710 124.499023438 710 c 0
 133.166015625 710 142.833007812 708 153.5 704 c 0
 169.5 698.666992188 189.5 687.333984375 213.5 670.000976562 c 0
 237.5 652.66796875 263.5 631.334960938 291.5 606.001953125 c 0
 319.5 580.668945312 347.5 555.001953125 375.5 529.001953125 c 0
 403.5 503.001953125 433.166992188 476.334960938 464.5 449.001953125 c 0
 495.166992188 421.668945312 521.833984375 400.001953125 544.500976562 384.001953125 c 0
 551.16796875 378.668945312 555.500976562 371.3359375 557.500976562 362.002929688 c 0
 558.16796875 357.3359375 558.500976562 352.668945312 558.500976562 348.001953125 c 0
 558.500976562 343.334960938 557.833984375 338.666992188 556.500976562 334 c 0
EndSplineSet
Validated: 524289
EndChar

StartChar: question
Encoding: 63 63 32
Width: 640
GlyphClass: 2
Flags: HMW
HStem: -4.00195 134.053 646.999 64.999
VStem: 226.549 143 437.549 80.001
LayerCount: 2
Fore
SplineSet
517.55078125 522 m 0
 517.55078125 505.333007812 514.8828125 490 509.55078125 476 c 0
 504.217773438 462.666992188 497.217773438 451 488.55078125 441 c 0
 479.8828125 431 469.8828125 421.333007812 458.55078125 412 c 0
 446.55078125 403.333007812 434.55078125 394.333007812 422.55078125 385 c 0
 410.55078125 375.666992188 398.8828125 365.666992188 387.55078125 355 c 0
 376.8828125 343.666992188 367.216796875 330.333984375 358.549804688 315.000976562 c 0
 349.8828125 299.66796875 344.21484375 282.66796875 341.548828125 264.000976562 c 0
 338.881835938 248.66796875 333.548828125 237.000976562 325.548828125 229.000976562 c 0
 320.881835938 225.000976562 314.548828125 223.000976562 306.548828125 223.000976562 c 0
 302.548828125 222.333984375 298.21484375 222.666992188 293.548828125 224 c 0
 278.21484375 228 268.21484375 235 263.548828125 245 c 0
 260.881835938 250.333007812 259.548828125 256.666015625 259.548828125 263.999023438 c 0
 259.548828125 271.999023438 260.548828125 280.666015625 262.548828125 289.999023438 c 0
 267.21484375 306.666015625 273.8828125 322.666015625 282.549804688 337.999023438 c 0
 291.216796875 353.33203125 300.549804688 366.33203125 310.549804688 376.999023438 c 0
 321.216796875 388.33203125 332.216796875 398.999023438 343.549804688 408.999023438 c 0
 354.8828125 418.999023438 365.8828125 428.666015625 376.549804688 437.999023438 c 0
 387.216796875 447.33203125 397.216796875 456.999023438 406.549804688 466.999023438 c 0
 415.216796875 476.999023438 422.549804688 487.999023438 428.549804688 499.999023438 c 0
 434.549804688 511.999023438 437.549804688 524.999023438 437.549804688 538.999023438 c 0
 437.549804688 576.999023438 426.216796875 604.666015625 403.549804688 621.999023438 c 0
 382.216796875 638.666015625 351.549804688 646.999023438 311.549804688 646.999023438 c 0
 300.8828125 646.999023438 290.21484375 644.666015625 279.548828125 639.999023438 c 0
 268.881835938 635.999023438 259.881835938 630.999023438 252.548828125 624.999023438 c 0
 245.21484375 618.999023438 237.548828125 611.33203125 229.548828125 601.999023438 c 0
 220.881835938 591.999023438 214.548828125 583.999023438 210.548828125 577.999023438 c 0
 206.548828125 571.999023438 201.548828125 564.666015625 195.548828125 555.999023438 c 0
 189.548828125 547.33203125 184.548828125 540.999023438 180.548828125 536.999023438 c 0
 176.548828125 533.666015625 172.548828125 531.666015625 168.548828125 530.999023438 c 2
 162.548828125 530.999023438 l 2
 160.548828125 530.999023438 157.881835938 531.33203125 154.548828125 531.999023438 c 0
 151.21484375 532.666015625 145.8828125 534.666015625 138.549804688 537.999023438 c 0
 130.549804688 542.666015625 125.549804688 548.999023438 123.548828125 556.999023438 c 0
 122.869140625 559.040039062 122.44921875 562.078125 122.44921875 566.469726562 c 0
 122.44921875 574.08984375 125.150390625 583.599609375 130.549804688 594.999023438 c 0
 145.216796875 622.33203125 166.216796875 647.665039062 193.549804688 670.998046875 c 0
 208.216796875 683.665039062 225.549804688 693.665039062 245.549804688 700.998046875 c 0
 265.549804688 708.331054688 286.216796875 711.998046875 307.549804688 711.998046875 c 0
 376.8828125 711.998046875 429.21484375 696.331054688 464.548828125 664.998046875 c 0
 499.881835938 633.665039062 517.55078125 586 517.55078125 522 c 0
298.548828125 -4.001953125 m 2
 289.549804688 -4.001953125 l 2
 288.63671875 -4.037109375 287.732421875 -4.0546875 286.8359375 -4.0546875 c 0
 270.71484375 -4.0546875 257.287109375 1.6298828125 246.55078125 12.998046875 c 0
 233.217773438 27.6650390625 226.55078125 44.6650390625 226.55078125 63.998046875 c 0
 226.55078125 81.3310546875 233.8828125 96.3310546875 248.55078125 108.998046875 c 0
 264.55078125 122.998046875 283.217773438 129.998046875 304.55078125 129.998046875 c 0
 305.498046875 130.033203125 306.4375 130.05078125 307.3671875 130.05078125 c 0
 324.12109375 130.05078125 338.181640625 124.366210938 349.549804688 112.998046875 c 0
 362.8828125 100.331054688 369.549804688 84.6640625 369.549804688 65.9970703125 c 0
 369.549804688 47.330078125 363.216796875 31.6630859375 350.549804688 18.99609375 c 0
 337.216796875 6.3291015625 319.881835938 -1.3349609375 298.548828125 -4.001953125 c 2
EndSplineSet
Validated: 524289
EndChar

StartChar: at
Encoding: 64 64 33
Width: 640
GlyphClass: 2
Flags: HMW
HStem: -120 66.0049 111.004 59 127.005 61.002 391.008 56.998 623.005 69.9971
VStem: 71.4985 67.0049 194.501 58.0029 376.504 61.001 514.505 53.9971
LayerCount: 2
Fore
SplineSet
518.5 9 m 0xdf80
 515.166992188 -0.3330078125 511.5 -8.3330078125 507.5 -15 c 0
 504.166992188 -22.3330078125 499.5 -30.666015625 493.5 -39.9990234375 c 0
 487.5 -49.9990234375 481.166992188 -58.33203125 474.5 -64.9990234375 c 0
 467.83203125 -71.666015625 459.166015625 -78.666015625 448.499023438 -85.9990234375 c 0
 438.499023438 -93.33203125 427.166015625 -99.33203125 414.499023438 -103.999023438 c 0
 401.83203125 -108.666015625 387.1640625 -112.333007812 370.498046875 -115 c 0
 353.831054688 -118.333007812 336.498046875 -120 318.498046875 -120 c 2
 312.498046875 -120 l 2
 279.1640625 -120 247.83203125 -111.666992188 218.499023438 -95 c 0
 188.499023438 -78.3330078125 162.83203125 -55 141.499023438 -25 c 0
 120.166015625 5 103.166015625 41.6669921875 90.498046875 85 c 0
 77.83203125 129 71.498046875 176.666992188 71.498046875 228 c 0
 72.166015625 286 76.83203125 340 85.5 390 c 0
 94.83203125 440.666992188 107.5 484.333984375 123.5 521.000976562 c 0
 139.5 557.66796875 158.5 589.000976562 180.5 615.000976562 c 0
 201.83203125 641.66796875 225.5 661.334960938 251.5 674.001953125 c 0
 277.5 686.668945312 304.83203125 693.001953125 333.5 693.001953125 c 0
 355.5 693.001953125 375.166992188 691.334960938 392.5 688.001953125 c 0
 410.5 684.668945312 427.5 679.001953125 443.5 671.001953125 c 0
 459.5 663.001953125 473.5 652.334960938 485.5 639.001953125 c 0
 498.166992188 625.668945312 509.833984375 609.001953125 520.5 589.001953125 c 0
 531.16796875 569.001953125 539.834960938 545.334960938 546.501953125 518.001953125 c 0
 561.16796875 458.668945312 568.501953125 383.3359375 568.501953125 292.002929688 c 0
 567.834960938 244.669921875 560.834960938 203.336914062 547.501953125 168.00390625 c 0
 540.834960938 150.00390625 531.501953125 136.00390625 519.501953125 126.00390625 c 0
 508.16796875 116.00390625 494.501953125 111.00390625 478.501953125 111.00390625 c 0xdf80
 455.16796875 111.670898438 437.501953125 119.337890625 425.501953125 134.004882812 c 0
 415.501953125 146.004882812 409.16796875 163.671875 406.501953125 187.004882812 c 2
 402.501953125 232.004882812 l 1
 387.501953125 189.00390625 l 2
 380.834960938 170.336914062 372.16796875 156.004882812 361.5 146.004882812 c 0
 348.833984375 133.337890625 331.833984375 127.004882812 310.5 127.004882812 c 0
 273.833984375 127.671875 245.5 139.338867188 225.5 162.005859375 c 0
 204.833984375 184.672851562 194.5 220.005859375 194.5 268.005859375 c 0
 194.5 292.005859375 197.16796875 314.338867188 202.5 335.005859375 c 0
 207.833984375 355.672851562 215.166992188 373.005859375 224.5 387.005859375 c 0
 233.83203125 400.338867188 244.5 412.005859375 256.5 422.005859375 c 0
 269.166992188 432.005859375 281.833984375 439.005859375 294.5 443.005859375 c 0
 307.16796875 446.338867188 319.834960938 448.005859375 332.501953125 448.005859375 c 0
 350.501953125 448.005859375 367.834960938 444.672851562 384.501953125 438.005859375 c 0
 398.501953125 432.672851562 409.501953125 425.672851562 417.501953125 417.005859375 c 0
 422.16796875 411.672851562 424.501953125 407.33984375 424.501953125 404.006835938 c 0
 424.501953125 402.673828125 424.16796875 401.340820312 423.501953125 400.0078125 c 0
 419.501953125 392.0078125 414.501953125 387.0078125 408.501953125 385.0078125 c 0
 401.834960938 383.0078125 396.834960938 382.0078125 393.501953125 382.0078125 c 0
 388.16796875 382.674804688 380.8359375 384.0078125 371.502929688 386.0078125 c 2
 356.502929688 389.0078125 l 2
 350.502929688 390.340820312 344.8359375 391.0078125 339.502929688 391.0078125 c 2
 327.502929688 391.0078125 l 2
 318.169921875 390.340820312 308.8359375 387.0078125 299.50390625 381.0078125 c 0
 290.170898438 375.0078125 282.170898438 367.674804688 275.50390625 359.0078125 c 0
 268.170898438 351.0078125 262.50390625 340.005859375 258.50390625 326.005859375 c 0
 254.50390625 312.005859375 252.50390625 296.674804688 252.50390625 280.0078125 c 0
 252.50390625 271.340820312 253.170898438 262.673828125 254.50390625 254.006835938 c 0
 255.170898438 246.006835938 257.170898438 236.670898438 260.50390625 226.00390625 c 0
 263.8359375 215.336914062 269.50390625 206.33984375 277.50390625 199.006835938 c 0
 285.50390625 191.673828125 295.50390625 188.006835938 307.50390625 188.006835938 c 0xbf80
 332.170898438 188.006835938 349.837890625 198.006835938 360.50390625 218.006835938 c 0
 369.837890625 235.33984375 375.170898438 263.672851562 376.50390625 303.005859375 c 0
 377.170898438 309.672851562 383.837890625 315.672851562 396.50390625 321.005859375 c 0
 406.50390625 324.338867188 415.171875 326.005859375 422.50390625 326.005859375 c 0
 427.171875 326.005859375 431.502929688 325.338867188 435.502929688 324.005859375 c 0
 439.502929688 322.005859375 441.50390625 319.672851562 441.50390625 317.005859375 c 2
 441.50390625 315.005859375 l 2
 438.837890625 290.338867188 437.50390625 269.671875 437.50390625 253.004882812 c 0
 437.50390625 244.337890625 437.837890625 236.670898438 438.50390625 230.00390625 c 0
 441.171875 208.670898438 445.171875 193.670898438 450.50390625 185.00390625 c 0
 457.171875 175.00390625 466.501953125 170.00390625 478.501953125 170.00390625 c 0
 488.501953125 170.00390625 496.171875 176.336914062 501.50390625 189.00390625 c 0
 505.50390625 199.00390625 508.50390625 211.336914062 510.50390625 226.00390625 c 0
 513.171875 250.670898438 514.50390625 273.670898438 514.50390625 295.00390625 c 0
 514.50390625 329.670898438 513.171875 361.333007812 510.50390625 390 c 0
 507.171875 419.333007812 503.170898438 444.337890625 498.50390625 465.004882812 c 0
 493.8359375 486.337890625 487.8359375 505.337890625 480.50390625 522.004882812 c 0
 473.170898438 539.337890625 465.838867188 553.337890625 458.505859375 564.004882812 c 0
 451.171875 574.671875 442.505859375 584.004882812 432.505859375 592.004882812 c 0
 422.505859375 599.337890625 413.834960938 605.004882812 406.501953125 609.004882812 c 0
 399.16796875 613.671875 390.505859375 617.004882812 380.505859375 619.004882812 c 0
 370.505859375 621.004882812 363.171875 622.004882812 358.505859375 622.004882812 c 0
 353.838867188 622.671875 348.171875 623.004882812 341.50390625 623.004882812 c 0
 312.837890625 622.337890625 286.170898438 613.337890625 261.50390625 596.004882812 c 0
 236.8359375 578.671875 215.50390625 554.671875 197.50390625 524.004882812 c 0
 179.50390625 492.671875 165.170898438 454.671875 154.50390625 410.004882812 c 0
 143.8359375 365.337890625 138.50390625 316.670898438 138.50390625 264.00390625 c 0
 139.170898438 218.00390625 142.837890625 176.670898438 149.50390625 140.00390625 c 0
 156.837890625 102.670898438 166.170898438 72.337890625 177.50390625 49.0048828125 c 0
 188.8359375 25.671875 202.499023438 6.0048828125 218.499023438 -9.9951171875 c 0
 233.83203125 -25.9951171875 249.8359375 -37.328125 266.50390625 -43.9951171875 c 0
 283.170898438 -50.662109375 300.498046875 -53.9951171875 318.498046875 -53.9951171875 c 0
 335.831054688 -53.9951171875 352.169921875 -52.328125 367.502929688 -48.9951171875 c 0
 382.8359375 -45.662109375 395.502929688 -41.3291015625 405.502929688 -35.99609375 c 0
 416.169921875 -30.6630859375 426.169921875 -23.6669921875 435.502929688 -15 c 0
 444.169921875 -7 451.169921875 0.6708984375 456.502929688 8.00390625 c 0
 461.169921875 15.3369140625 466.8359375 24.3369140625 473.50390625 35.00390625 c 0
 476.170898438 39.6708984375 478.50390625 43.337890625 480.50390625 46.0048828125 c 0
 482.50390625 48.0048828125 484.50390625 50.671875 486.50390625 54.0048828125 c 0
 489.170898438 57.337890625 491.170898438 59.6708984375 492.50390625 61.00390625 c 2
 498.50390625 64.00390625 l 2
 501.170898438 66.00390625 504.837890625 66.00390625 509.50390625 64.00390625 c 0
 516.837890625 61.3369140625 521.837890625 57.00390625 524.50390625 51.00390625 c 0
 525.837890625 48.3369140625 526.50390625 45.669921875 526.50390625 43.0029296875 c 0
 526.50390625 34.3359375 523.83203125 23 518.5 9 c 0xdf80
EndSplineSet
Validated: 524289
EndChar

StartChar: A
Encoding: 65 65 34
Width: 640
GlyphClass: 2
Flags: HMW
HStem: 271 50.998
VStem: 72.4985 72.001
LayerCount: 2
Fore
SplineSet
355.5 606.997070312 m 2
 328.16796875 561.6640625 289.16796875 466.331054688 238.5 320.998046875 c 2
 233.5 305.998046875 l 1
 247.5 307.998046875 l 2
 310.16796875 315.998046875 365.834960938 320.665039062 414.501953125 321.998046875 c 2
 425.501953125 321.998046875 l 1
 367.501953125 626.998046875 l 1
 355.5 606.997070312 l 2
487.5 53.9990234375 m 0
 479.5 74.666015625 462.5 147 436.5 271 c 0
 434.5 277.666992188 432.166992188 277.666992188 429.5 271 c 1
 350.166992188 267 277.166992188 259.33203125 210.5 247.999023438 c 1
 188.5 189.33203125 166.5 124.333007812 144.5 53 c 0
 139.166992188 35 131.5 23.330078125 121.5 17.9970703125 c 0
 116.166015625 15.330078125 111.166015625 13.9970703125 106.5 13.9970703125 c 0
 101.83203125 13.9970703125 97.166015625 14.9970703125 92.498046875 16.9970703125 c 0
 79.166015625 22.330078125 72.498046875 34.3330078125 72.498046875 53 c 0
 72.498046875 61 73.83203125 70.3330078125 76.498046875 81 c 0
 81.166015625 104.333007812 101.166015625 158.666015625 136.499023438 243.999023438 c 1
 133.83203125 251.999023438 131.499023438 253.33203125 129.499023438 247.999023438 c 1
 120.83203125 253.999023438 116.498046875 260.999023438 116.498046875 268.999023438 c 2
 116.498046875 269.999023438 l 2
 115.83203125 275.999023438 118.83203125 281.999023438 125.499023438 287.999023438 c 0
 134.166015625 295.33203125 144.83203125 300.999023438 157.5 304.999023438 c 1
 158.83203125 311.666015625 160.166015625 311.998046875 161.499023438 305.998046875 c 1
 240.166015625 499.331054688 299.83203125 627.665039062 340.5 690.998046875 c 0
 349.166992188 703.665039062 356.333984375 712.498046875 362 717.498046875 c 0
 367.66796875 722.498046875 373.834960938 724.998046875 380.501953125 724.998046875 c 2
 381.501953125 724.998046875 l 1
 387.501953125 724.998046875 l 2
 394.834960938 724.998046875 401.834960938 722.998046875 408.501953125 718.998046875 c 0
 415.16796875 714.998046875 419.501953125 706.998046875 421.501953125 694.998046875 c 0
 434.834960938 612.331054688 457.834960938 494.998046875 490.501953125 342.998046875 c 0
 523.16796875 190.331054688 546.16796875 102.331054688 559.501953125 78.998046875 c 0
 564.834960938 69.6650390625 567.501953125 61.33203125 567.501953125 53.9990234375 c 0
 566.834960938 53.33203125 566.501953125 52.33203125 566.501953125 50.9990234375 c 0
 565.834960938 42.33203125 563.334960938 35.1650390625 559.001953125 29.498046875 c 0
 554.66796875 23.8310546875 549.501953125 19.6640625 543.501953125 16.9970703125 c 0
 538.834960938 14.9970703125 534.16796875 13.9970703125 529.5 13.9970703125 c 0
 524.16796875 13.9970703125 518.834960938 15.330078125 513.501953125 17.9970703125 c 0
 502.834960938 23.330078125 494.166992188 35.33203125 487.5 53.9990234375 c 0
EndSplineSet
Validated: 524289
EndChar

StartChar: B
Encoding: 66 66 35
Width: 640
GlyphClass: 2
Flags: HMW
HStem: -20.3672 79.3672 307 51.999 640.002 49.998
VStem: 96.5 77.7998 100.5 82.999 431.5 72.001 465.502 79.998
LayerCount: 2
Fore
SplineSet
417.497070312 260.001953125 m 0xea
 403.497070312 269.334960938 384.330078125 278.16796875 359.997070312 286.500976562 c 0
 335.6640625 294.833984375 307.831054688 301.666992188 276.498046875 307 c 1
 275.498046875 307 l 2
 230.165039062 307 196.83203125 306.666992188 175.499023438 306 c 1
 178.83203125 192 181.499023438 109 183.499023438 57 c 1
 196.83203125 58.3330078125 211.499023438 59 227.499023438 59 c 0
 243.499023438 59.6669921875 255.499023438 60 263.499023438 60 c 0
 292.166015625 61.3330078125 319.333007812 66.666015625 345 75.9990234375 c 0
 370.666992188 85.33203125 391.833984375 96.9990234375 408.500976562 110.999023438 c 0
 425.16796875 124.33203125 438.834960938 138.83203125 449.501953125 154.499023438 c 0
 460.168945312 170.166015625 465.501953125 184.999023438 465.501953125 198.999023438 c 0
 465.501953125 219.666015625 449.497070312 240.001953125 417.497070312 260.001953125 c 0xea
186.5 626.999023438 m 2
 179.5 624.999023438 l 1
 179.5 607.666015625 178.833007812 584.999023438 177.5 556.999023438 c 0
 175.366210938 503.668945312 174.299804688 451.40625 174.299804688 400.209960938 c 0
 174.299804688 387.40625 174.366210938 374.668945312 174.5 361.999023438 c 1
 210.5 359.999023438 241.5 358.999023438 267.5 358.999023438 c 0
 286.833007812 358.999023438 304.333007812 360.83203125 320 364.499023438 c 0
 335.666992188 368.166015625 349.166992188 372.833007812 360.5 378.5 c 0
 371.833007812 384.166992188 381.833007812 391.166992188 390.5 399.5 c 0
 399.166992188 407.833007812 405.833007812 416.333007812 410.5 425 c 0
 415.166992188 433.666992188 419.16796875 443 422.500976562 453 c 0
 425.833984375 463 428.166992188 472.333007812 429.5 481 c 0
 430.833007812 489.666992188 431.5 498.333984375 431.5 507.000976562 c 0xf4
 430.833007812 525.66796875 427.166015625 543.000976562 420.499023438 559.000976562 c 0
 413.83203125 575.000976562 405.165039062 587.833984375 394.498046875 597.500976562 c 0
 383.831054688 607.16796875 372.1640625 615.334960938 359.497070312 622.001953125 c 0
 336.830078125 634.001953125 312.830078125 640.001953125 287.497070312 640.001953125 c 0
 253.497070312 640.001953125 219.833007812 635.666015625 186.5 626.999023438 c 2
527.001953125 130 m 0
 514.668945312 106.666992188 496.666015625 84.833984375 472.999023438 64.5009765625 c 0
 449.33203125 44.16796875 420.166992188 27.0009765625 385.5 13.0009765625 c 0
 351.5 -0.9990234375 313.833007812 -9.9990234375 272.5 -13.9990234375 c 1
 252.81640625 -20.3671875 l 2
 248.044921875 -20.3671875 243.2734375 -19.244140625 238.501953125 -16.9990234375 c 2
 219.974609375 -23.3671875 l 2
 215.483398438 -23.3671875 210.9921875 -22.244140625 206.500976562 -19.9990234375 c 0
 186.500976562 -21.9990234375 170.833984375 -22.9990234375 159.500976562 -22.9990234375 c 0
 152.16796875 -22.9990234375 145.16796875 -22.33203125 138.500976562 -20.9990234375 c 2
 134.500976562 -20.9990234375 l 2
 123.833984375 -21.666015625 115.166992188 -18.3330078125 108.5 -11 c 0
 103.166992188 -5 100.5 3.3330078125 100.5 14 c 2
 100.5 19 l 2xea
 101.833007812 39.6669921875 102.5 74.333984375 102.5 123.000976562 c 0
 102.5 213.66796875 100.5 314.000976562 96.5 424.000976562 c 0
 95.1669921875 468.66796875 94.5 498.500976562 94.5 513.500976562 c 0
 94.5 528.500976562 95.1669921875 549.000976562 96.5 575.000976562 c 0
 97.8330078125 601.000976562 98.5 619.000976562 98.5 629.000976562 c 0
 99.1669921875 644.333984375 103.333984375 655.666992188 111.000976562 663 c 0
 118.66796875 670.333007812 127.833984375 674 138.500976562 674 c 2
 142.501953125 674 l 1
 143.501953125 674 l 2
 154.834960938 677.333007812 166.166992188 680 177.5 682 c 0
 199.5 686 219.500976562 688.333007812 237.500976562 689 c 0
 247.500976562 689.666992188 255.16796875 690 260.500976562 690 c 2
 279.500976562 690 l 1
 289.500976562 690 l 2
 329.500976562 690 364.833984375 682 395.500976562 666 c 0
 427.500976562 650 453.500976562 626.833007812 473.500976562 596.5 c 0
 493.500976562 566.166992188 503.500976562 530 503.500976562 488 c 0xf4
 503.500976562 452.666992188 495.16796875 422.333984375 478.500976562 397.000976562 c 0
 461.833984375 371.66796875 439.166992188 353.000976562 410.5 341.000976562 c 1
 402.5 331.000976562 394.833007812 327.66796875 387.5 331.000976562 c 1
 395.5 321.000976562 403.166992188 318.000976562 410.5 322.000976562 c 1
 431.166992188 314.66796875 452 304.16796875 473 290.500976562 c 0
 494 276.833984375 511.333007812 261.666992188 525 245 c 0
 538.666992188 228.333007812 545.5 213.666015625 545.5 200.999023438 c 2
 545.5 198.999023438 l 2xe2
 545.5 176.33203125 539.334960938 153.333007812 527.001953125 130 c 0
EndSplineSet
Validated: 524289
EndChar

StartChar: C
Encoding: 67 67 36
Width: 640
GlyphClass: 2
Flags: HMW
HStem: -30.999 72.001 650.002 62.999
VStem: 81.999 80.999 475 83.001
LayerCount: 2
Fore
SplineSet
545 553.5 m 0
 536.333007812 541.166992188 528 534.333984375 520 533.000976562 c 2
 514 533.000976562 l 2
 506 533.000976562 497.666992188 535.66796875 489 541.000976562 c 0
 479.666992188 547.66796875 475 556.334960938 475 567.001953125 c 0
 475 572.334960938 475.666992188 588.334960938 477 615.001953125 c 1
 461.666992188 625.668945312 452.666992188 632.001953125 450 634.001953125 c 0
 447.333007812 636.001953125 443.333007812 638.334960938 438 641.001953125 c 0
 428 647.001953125 417.666992188 650.001953125 407 650.001953125 c 0
 386.333007812 650.001953125 364.5 642.668945312 341.5 628.001953125 c 0
 318.5 613.334960938 296.666992188 593.001953125 276 567.001953125 c 0
 255.333007812 541.001953125 236.666015625 511.334960938 219.999023438 478.001953125 c 0
 203.33203125 444.001953125 189.665039062 406.001953125 178.998046875 364.001953125 c 0
 168.331054688 322.001953125 162.998046875 279.668945312 162.998046875 237.001953125 c 0
 162.998046875 205.001953125 168.998046875 174.168945312 180.998046875 144.501953125 c 0
 192.998046875 114.834960938 209.665039062 90.001953125 230.998046875 70.001953125 c 0
 251.665039062 50.6689453125 274.665039062 41.001953125 299.998046875 41.001953125 c 0
 320.665039062 41.001953125 340.665039062 43.3349609375 359.998046875 48.001953125 c 0
 379.331054688 52.6689453125 396.831054688 58.8359375 412.498046875 66.5029296875 c 0
 428.165039062 74.169921875 441.998046875 81.669921875 453.998046875 89.0029296875 c 0
 465.331054688 96.3359375 476.331054688 104.3359375 486.998046875 113.002929688 c 0
 494.998046875 118.3359375 501.831054688 122.3359375 507.498046875 125.002929688 c 0
 513.165039062 127.669921875 518.998046875 129.002929688 524.998046875 129.002929688 c 0
 530.331054688 129.002929688 535.331054688 127.3359375 539.998046875 124.002929688 c 0
 548.665039062 117.3359375 552.998046875 109.668945312 552.998046875 101.001953125 c 0
 552.998046875 90.3349609375 546.665039062 77.66796875 533.998046875 63.0009765625 c 0
 479.998046875 0.333984375 400.998046875 -30.9990234375 296.998046875 -30.9990234375 c 2
 288.998046875 -30.9990234375 l 2
 264.998046875 -30.9990234375 242.331054688 -26.666015625 220.998046875 -17.9990234375 c 0
 198.998046875 -8.666015625 179.665039062 3.6669921875 162.998046875 19 c 0
 146.331054688 34.3330078125 131.831054688 52 119.498046875 72 c 0
 107.165039062 92 97.83203125 113.333007812 91.4990234375 136 c 0
 85.166015625 158.666992188 81.9990234375 181.333984375 81.9990234375 204.000976562 c 0
 81.9990234375 252.66796875 86.9990234375 300.16796875 96.9990234375 346.500976562 c 0
 106.999023438 392.833984375 120.33203125 434.333984375 136.999023438 471.000976562 c 0
 153.666015625 507.66796875 173.333007812 541.334960938 196 572.001953125 c 0
 216.666992188 603.334960938 238.5 629.16796875 261.5 649.500976562 c 0
 284.5 669.833984375 307.833007812 685.500976562 331.5 696.500976562 c 0
 355.166992188 707.500976562 378 713.000976562 400 713.000976562 c 0
 422 713.000976562 442.666992188 710.333984375 462 705.000976562 c 1
 464.666992188 710.333984375 467.666992188 709.333984375 471 702.000976562 c 1
 472.333007812 712.000976562 473.333007812 715.333984375 474 712.000976562 c 1
 476 720.000976562 480 726.66796875 486 732.000976562 c 0
 492 736.66796875 498.666992188 739.334960938 506 740.001953125 c 0
 509.333007812 740.668945312 511.333007812 741.001953125 512 741.001953125 c 0
 518.666992188 741.001953125 525.666992188 738.668945312 533 734.001953125 c 0
 541.666992188 728.668945312 547.333984375 720.3359375 550.000976562 709.002929688 c 0
 555.333984375 683.669921875 558.000976562 656.668945312 558.000976562 628.001953125 c 2
 558.000976562 591.002929688 l 2
 558.000976562 578.3359375 553.666992188 565.833007812 545 553.5 c 0
EndSplineSet
Validated: 524289
EndChar

StartChar: D
Encoding: 68 68 37
Width: 640
GlyphClass: 2
Flags: HMW
HStem: -31 75.999 675 20G<116.834 133.167>
VStem: 79.5014 77.7113 483.503 76.9953
LayerCount: 2
Fore
SplineSet
334.498046875 551 m 0
 300.498046875 574.333007812 251.498046875 598.666015625 187.498046875 623.999023438 c 1
 186.498046875 624.999023438 l 1
 185.498046875 624.999023438 l 1
 184.498046875 625.999023438 l 1
 183.498046875 625.999023438 l 1
 182.498046875 625.999023438 l 1
 182.498046875 626.999023438 l 1
 181.498046875 626.999023438 l 1
 180.498046875 626.999023438 l 1
 179.498046875 626.999023438 l 1
 179.498046875 627.999023438 l 1
 178.498046875 627.999023438 l 1
 177.498046875 627.999023438 l 1
 176.498046875 627.999023438 l 1
 176.498046875 628.999023438 l 1
 175.498046875 628.999023438 l 1
 174.498046875 628.999023438 l 1
 173.49609375 629.999023438 l 1
 172.498046875 629.999023438 l 1
 159.498046875 643.999023438 l 1
 158.498046875 620.999023438 l 2
 157.640625 583.283203125 157.212890625 546.118164062 157.212890625 509.50390625 c 0
 157.212890625 460.689453125 157.974609375 412.854492188 159.498046875 365.999023438 c 0
 160.831054688 324.666015625 162.1640625 275.166015625 163.498046875 217.499023438 c 0
 164.830078125 159.83203125 166.163085938 114.33203125 167.49609375 80.9990234375 c 1
 173.49609375 78.9990234375 l 2
 200.830078125 66.33203125 228.49609375 57.4990234375 256.49609375 52.4990234375 c 0
 284.49609375 47.4990234375 316.49609375 44.9990234375 352.49609375 44.9990234375 c 0
 371.830078125 44.9990234375 389.830078125 51.83203125 406.49609375 65.4990234375 c 0
 423.163085938 79.166015625 436.830078125 96.3330078125 447.498046875 117 c 0
 458.830078125 137.666992188 467.663085938 160.166992188 473.99609375 184.5 c 0
 483.458984375 220.85546875 483.502929688 247.245117188 483.502929688 258.552734375 c 0
 483.502929688 385.967773438 433.8359375 483.450195312 334.498046875 551 c 0
551.501953125 152.5 m 0
 545.501953125 128.833007812 536.169921875 106 523.501953125 84 c 0
 510.834960938 62 496.16796875 42.5 479.501953125 25.5 c 0
 462.833984375 8.5 443.501953125 -5.3330078125 421.501953125 -16 c 0
 400.16796875 -26 377.501953125 -31 353.501953125 -31 c 2
 344.501953125 -31 l 2
 317.16796875 -31 289.66796875 -29.6669921875 262.001953125 -27 c 0
 234.333984375 -24.3330078125 211.833984375 -21 194.501953125 -17 c 0
 176.501953125 -12.3330078125 160.333984375 -8.3330078125 146.001953125 -5 c 0
 131.66796875 -1.6669921875 122.8359375 0 119.501953125 0 c 0
 108.8359375 0 100.16796875 3.3330078125 93.501953125 10 c 0
 87.501953125 16 84.501953125 24.3330078125 84.501953125 35 c 2
 84.501953125 41 l 2
 86.501953125 65 87.501953125 102.333007812 87.501953125 153 c 0
 86.833984375 243.666992188 84.501953125 351.666992188 80.501953125 477 c 0
 79.833984375 514.333007812 79.501953125 538.833007812 79.501953125 550.5 c 0
 79.501953125 562.166992188 80.001953125 580.333984375 81.001953125 605.000976562 c 0
 82.001953125 629.66796875 82.501953125 644.66796875 82.501953125 650.000976562 c 0
 83.16796875 665.333984375 87.16796875 676.666992188 94.501953125 684 c 0
 101.833984375 691.333007812 111.16796875 695 122.5 695 c 0
 143.833984375 695 171.166015625 691.666992188 204.499023438 685 c 0
 223.83203125 681 243.499023438 675.5 263.499023438 668.5 c 0
 283.499023438 661.5 305.166015625 651.833007812 328.499023438 639.5 c 0
 351.83203125 627.166992188 373.83203125 612.666992188 394.499023438 596 c 0
 415.166015625 579.333007812 435.499023438 559 455.499023438 535 c 0
 476.83203125 511 495.166015625 484.5 510.498046875 455.5 c 0
 525.831054688 426.5 537.998046875 391.833007812 546.998046875 351.5 c 0
 555.998046875 311.166992188 560.498046875 267.666992188 560.498046875 221 c 0
 560.498046875 199 557.501953125 176.166992188 551.501953125 152.5 c 0
EndSplineSet
Validated: 524289
EndChar

StartChar: E
Encoding: 69 69 38
Width: 640
GlyphClass: 2
Flags: HMW
HStem: -20 68.0039<201.124 261.796> -6 71.0039<487.791 519.796 495.458 519.796> 312.004 65.998 332.004 61.999 615.002 63.999
VStem: 93.4579 76.0039
LayerCount: 2
Fore
SplineSet
508.45703125 -6 m 2x4c
 495.45703125 -6 l 2x4c
 480.124023438 -6 455.124023438 -7 420.45703125 -9 c 0
 319.790039062 -16.3330078125 250.123046875 -20 211.456054688 -20 c 0
 190.7890625 -20 173.456054688 -19.3330078125 159.456054688 -18 c 0
 146.123046875 -17.3330078125 132.623046875 -10.666015625 118.956054688 2.0009765625 c 0
 105.2890625 14.66796875 97.4560546875 30.00390625 95.4560546875 48.00390625 c 0
 93.4560546875 64.00390625 92.4560546875 91.333984375 92.4560546875 130.000976562 c 0
 92.4560546875 168.66796875 92.7890625 210.66796875 93.4560546875 256.000976562 c 2
 93.4560546875 343.500976562 l 2
 93.4560546875 370.500976562 92.7890625 408.000976562 91.4560546875 456.000976562 c 0
 90.7890625 496.000976562 90.4560546875 522.333984375 90.4560546875 535.000976562 c 0
 90.4560546875 547.66796875 90.9560546875 566.500976562 91.9560546875 591.500976562 c 0
 92.9560546875 616.500976562 93.4560546875 632.333984375 93.4560546875 639.000976562 c 0
 94.123046875 654.333984375 98.2900390625 665.833984375 105.95703125 673.500976562 c 0
 113.624023438 681.16796875 122.791015625 685.000976562 133.458007812 685.000976562 c 1
 134.125 678.333984375 135.125 678.333984375 136.458007812 685.000976562 c 1
 149.125 684.333984375 158.791992188 679.666992188 165.458984375 671 c 0
 166.791992188 663.666992188 168.126953125 662.333984375 169.459960938 667.000976562 c 1
 171.459960938 661.000976562 173.458007812 661.333984375 175.458007812 668.000976562 c 1
 226.125 675.333984375 289.791992188 679.000976562 366.458984375 679.000976562 c 0
 387.791992188 679.000976562 406.791992188 678.66796875 423.458984375 678.000976562 c 0
 462.125976562 676.000976562 492.79296875 673.666992188 515.459960938 671 c 0
 529.459960938 669.666992188 538.626953125 666.834960938 542.959960938 662.501953125 c 0
 547.29296875 658.168945312 549.459960938 652.001953125 549.459960938 644.001953125 c 0
 549.459960938 626.668945312 544.79296875 616.001953125 535.459960938 612.001953125 c 0
 531.459960938 610.001953125 527.959960938 609.168945312 524.959960938 609.501953125 c 0
 521.959960938 609.834960938 519.459960938 610.001953125 517.459960938 610.001953125 c 0
 470.79296875 613.334960938 425.459960938 615.001953125 381.459960938 615.001953125 c 0
 366.126953125 615.001953125 350.793945312 614.668945312 335.4609375 614.001953125 c 0
 277.4609375 612.668945312 226.4609375 608.668945312 182.4609375 602.001953125 c 1
 179.793945312 595.334960938 177.126953125 595.001953125 174.459960938 601.001953125 c 1
 171.126953125 525.668945312 169.459960938 454.668945312 169.459960938 388.001953125 c 2
 169.459960938 378.001953125 l 1xac
 222.79296875 378.668945312 288.125976562 381.3359375 365.458984375 386.002929688 c 0
 445.458984375 391.3359375 490.458984375 394.002929688 500.458984375 394.002929688 c 0
 513.125976562 394.002929688 521.79296875 391.502929688 526.459960938 386.502929688 c 0
 531.126953125 381.502929688 533.459960938 374.669921875 533.459960938 366.002929688 c 0
 533.459960938 354.669921875 531.459960938 346.336914062 527.459960938 341.00390625 c 0
 522.126953125 335.00390625 513.293945312 332.00390625 500.9609375 332.00390625 c 0x1c
 488.627929688 332.00390625 439.4609375 328.670898438 353.4609375 322.00390625 c 0
 269.4609375 315.336914062 211.4609375 312.00390625 179.4609375 312.00390625 c 1
 176.793945312 304.670898438 173.793945312 304.337890625 170.4609375 311.004882812 c 1
 170.4609375 284.337890625 170.793945312 247.670898438 171.4609375 201.00390625 c 0
 171.4609375 172.336914062 171.793945312 149.00390625 172.4609375 131.00390625 c 0
 173.793945312 93.00390625 176.4609375 68.6708984375 180.4609375 58.00390625 c 0
 181.127929688 50.00390625 181.793945312 48.6708984375 182.4609375 54.00390625 c 1
 184.4609375 47.3369140625 186.12890625 47.00390625 187.461914062 53.00390625 c 1
 198.12890625 49.6708984375 219.12890625 48.00390625 250.461914062 48.00390625 c 0xac
 273.12890625 48.00390625 301.4609375 48.6708984375 335.4609375 50.00390625 c 0
 416.793945312 54.00390625 470.124023438 58.3369140625 495.45703125 63.00390625 c 0
 504.124023438 64.3369140625 511.294921875 65.00390625 516.961914062 65.00390625 c 0x4c
 522.62890625 65.00390625 527.461914062 64.00390625 531.461914062 62.00390625 c 0
 535.461914062 60.00390625 538.461914062 58.00390625 540.461914062 56.00390625 c 0
 542.461914062 54.00390625 544.12890625 51.3369140625 545.461914062 48.00390625 c 0x8c
 546.794921875 44.6708984375 547.794921875 41.837890625 548.461914062 39.5048828125 c 0
 549.12890625 37.171875 549.459960938 34.3388671875 549.459960938 31.005859375 c 0
 550.126953125 20.3388671875 546.795898438 11.005859375 539.462890625 3.005859375 c 0
 534.129882812 -3.6611328125 525.796875 -6.994140625 514.463867188 -6.994140625 c 0
 512.463867188 -6.3271484375 510.45703125 -6 508.45703125 -6 c 2x4c
EndSplineSet
Validated: 524289
EndChar

StartChar: F
Encoding: 70 70 39
Width: 640
GlyphClass: 2
Flags: HMW
HStem: 310.003 62 323.003 64.999 619.002 67.998 675.001 20G
VStem: 91.997 77.8028 95.997 84.001
LayerCount: 2
Fore
SplineSet
517.001953125 682 m 0x28
 530.334960938 680.666992188 539.001953125 677.833007812 543.001953125 673.5 c 0
 547.001953125 669.166992188 549.334960938 662.666992188 550.001953125 654 c 0
 550.001953125 644.666992188 547.001953125 636.333984375 541.001953125 629.000976562 c 0
 536.334960938 622.333984375 527.66796875 619.000976562 515.001953125 619.000976562 c 2
 514.001953125 619.000976562 l 2
 477.333984375 621.000976562 440.333984375 622.000976562 403.001953125 622.000976562 c 0
 334.333984375 622.000976562 258.333984375 618.333984375 175.001953125 611.000976562 c 1
 174.333984375 594.333984375 173.666992188 573.333984375 173 548.000976562 c 0
 170.866210938 502.670898438 169.799804688 458.194335938 169.799804688 414.571289062 c 0
 169.799804688 403.661132812 169.866210938 392.8046875 170 382.001953125 c 0
 174 376.001953125 177.666992188 376.334960938 181 383.001953125 c 1
 208.333984375 386.334960938 237.666015625 388.001953125 268.999023438 388.001953125 c 2
 290.999023438 388.001953125 l 2x68
 330.999023438 386.668945312 366.999023438 384.668945312 398.999023438 382.001953125 c 0
 431.666015625 378.668945312 458.333984375 375.3359375 479 372.002929688 c 0
 493.666992188 369.3359375 503 366.002929688 507 362.002929688 c 0
 511 358.002929688 513.333984375 352.002929688 514 344.002929688 c 0
 514 334.002929688 511.666992188 325.3359375 507 318.002929688 c 0
 504.333984375 312.669921875 497.666015625 310.002929688 486.999023438 310.002929688 c 2
 481.999023438 310.002929688 l 2x88
 461.33203125 313.3359375 432.999023438 316.3359375 396.999023438 319.002929688 c 0
 362.999023438 321.669921875 324.666015625 323.002929688 281.999023438 323.002929688 c 0
 241.33203125 322.3359375 206.999023438 320.002929688 178.999023438 316.002929688 c 1
 176.33203125 309.3359375 173.666015625 309.002929688 170.998046875 315.002929688 c 1
 173.666015625 208.3359375 176.666015625 108.3359375 179.998046875 15.0029296875 c 0
 178.666015625 3.669921875 173.498046875 -5.330078125 164.498046875 -11.9970703125 c 0
 155.498046875 -18.6640625 145.331054688 -21.9970703125 133.998046875 -21.9970703125 c 1
 133.331054688 -27.9970703125 132.331054688 -27.6640625 130.998046875 -20.9970703125 c 1
 120.33203125 -21.6640625 111.6640625 -18.3310546875 104.998046875 -10.998046875 c 0
 98.998046875 -4.998046875 95.998046875 3.3349609375 95.998046875 14.001953125 c 2
 95.998046875 19.001953125 l 2x44
 97.998046875 41.001953125 98.998046875 77.6689453125 98.998046875 129.001953125 c 0
 98.330078125 223.668945312 95.998046875 329.001953125 91.998046875 445.001953125 c 0
 90.6640625 489.668945312 89.998046875 519.668945312 89.998046875 535.001953125 c 0
 89.998046875 550.334960938 90.6640625 570.834960938 91.998046875 596.501953125 c 0
 93.330078125 622.168945312 93.998046875 640.001953125 93.998046875 650.001953125 c 0
 94.6640625 665.334960938 98.6640625 676.66796875 105.998046875 684.000976562 c 0
 113.330078125 691.333984375 122.6640625 695.000976562 133.99609375 695.000976562 c 1
 135.99609375 688.333984375 137.663085938 688.333984375 138.99609375 695.000976562 c 1x58
 151.663085938 695.000976562 161.330078125 690.66796875 167.998046875 682.000976562 c 1
 168.6640625 673.333984375 169.6640625 671.666992188 170.998046875 677 c 1
 250.998046875 683.666992188 325.998046875 687 395.998046875 687 c 0
 442.6640625 687 483.001953125 685.333007812 517.001953125 682 c 0x28
EndSplineSet
Validated: 524289
EndChar

StartChar: G
Encoding: 71 71 40
Width: 640
GlyphClass: 2
Flags: HMW
HStem: -31.002 72.002 248.5 74.501 285.998 64.5022 661 62.998
VStem: 80.4015 79.998
LayerCount: 2
Fore
SplineSet
484.3984375 705 m 0xb8
 517.731445312 692.333007812 538.731445312 681.333007812 547.3984375 672 c 0
 555.3984375 664 559.3984375 654.666992188 559.3984375 644 c 0
 560.065429688 638 559.065429688 631.333007812 556.3984375 624 c 0
 555.065429688 618 550.732421875 613.666992188 543.399414062 611 c 0
 538.732421875 609.666992188 534.899414062 609 531.899414062 609 c 0
 528.899414062 609 524.732421875 609.666992188 519.399414062 611 c 0
 515.399414062 612.333007812 506.232421875 617.333007812 491.899414062 626 c 0
 477.56640625 634.666992188 462.399414062 642.666992188 446.399414062 650 c 0
 431.06640625 657.333007812 417.06640625 661 404.399414062 661 c 0
 383.732421875 661 361.899414062 653.5 338.899414062 638.5 c 0
 315.899414062 623.5 294.232421875 602.5 273.899414062 575.5 c 0
 253.56640625 548.5 235.06640625 518 218.399414062 484 c 0
 201.06640625 449.333007812 187.06640625 410.5 176.399414062 367.5 c 0
 165.732421875 324.5 160.399414062 281 160.399414062 237 c 0
 160.399414062 205 166.399414062 174.166992188 178.399414062 144.5 c 0
 190.399414062 114.833007812 207.06640625 90 228.399414062 70 c 0
 249.06640625 50.6669921875 272.06640625 41 297.399414062 41 c 0
 314.06640625 41 330.733398438 46.6669921875 347.400390625 58 c 0
 364.067382812 69.3330078125 378.900390625 83.666015625 391.900390625 100.999023438 c 0
 404.900390625 118.33203125 417.067382812 137.33203125 428.400390625 157.999023438 c 0
 439.733398438 178.666015625 449.400390625 198.999023438 457.400390625 218.999023438 c 0
 465.400390625 238.999023438 471.733398438 257.33203125 476.400390625 273.999023438 c 0
 477.733398438 276.666015625 479.06640625 280.999023438 480.399414062 286.999023438 c 1
 475.732421875 285.666015625 471.065429688 285.333007812 466.3984375 286 c 0
 426.3984375 284 387.3984375 280.166992188 349.3984375 274.5 c 0
 311.3984375 268.833007812 284.731445312 261.333007812 269.3984375 252 c 0
 266.065429688 250 262.732421875 248.833007812 259.399414062 248.5 c 0
 256.06640625 248.166992188 252.733398438 249.333984375 249.400390625 252.000976562 c 0
 242.067382812 257.333984375 237.734375 264.333984375 236.401367188 273.000976562 c 2
 236.401367188 281.000976562 l 2
 236.401367188 298.333984375 246.734375 312.333984375 267.401367188 323.000976562 c 0xd8
 283.401367188 332.333984375 319.734375 339.666992188 376.401367188 345 c 0
 418.401367188 348.333007812 455.068359375 350 486.401367188 350 c 0
 492.401367188 350.333984375 498.068359375 350.500976562 503.401367188 350.500976562 c 0
 508.734375 350.500976562 513.734375 350.333984375 518.401367188 350 c 0
 533.068359375 348.666992188 542.735351562 346 547.40234375 342 c 0
 553.40234375 337.333007812 556.40234375 328.666015625 556.40234375 315.999023438 c 0
 556.40234375 309.33203125 555.235351562 303.665039062 552.90234375 298.998046875 c 0
 550.569335938 294.331054688 546.40234375 290.998046875 540.40234375 288.998046875 c 0
 538.40234375 286.331054688 536.40234375 285.331054688 534.40234375 285.998046875 c 1
 534.40234375 278.998046875 l 2
 534.40234375 276.998046875 533.90234375 271.665039062 532.90234375 262.998046875 c 0
 531.90234375 254.331054688 531.069335938 247.331054688 530.40234375 241.998046875 c 0
 529.069335938 227.998046875 525.069335938 211.831054688 518.40234375 193.498046875 c 0
 511.735351562 175.165039062 502.90234375 155.498046875 491.90234375 134.498046875 c 0
 480.90234375 113.498046875 467.735351562 92.998046875 452.40234375 72.998046875 c 0
 437.735351562 53.6650390625 422.068359375 35.998046875 405.401367188 19.998046875 c 0
 388.734375 3.998046875 370.401367188 -8.6689453125 350.401367188 -18.001953125 c 0
 330.401367188 -26.6689453125 310.068359375 -31.001953125 289.401367188 -31.001953125 c 2
 287.401367188 -31.001953125 l 1
 286.401367188 -31.001953125 l 2
 262.401367188 -31.001953125 239.734375 -26.6689453125 218.401367188 -18.001953125 c 0
 196.401367188 -8.6689453125 177.068359375 3.6640625 160.401367188 18.9970703125 c 0
 143.734375 34.330078125 129.234375 51.9970703125 116.901367188 71.9970703125 c 0
 104.568359375 91.9970703125 95.4013671875 113.330078125 89.4013671875 135.997070312 c 0
 83.4013671875 158.6640625 80.4013671875 181.331054688 80.4013671875 203.998046875 c 0
 80.4013671875 253.998046875 85.234375 302.665039062 94.9013671875 349.998046875 c 0
 104.568359375 397.331054688 117.735351562 439.831054688 134.40234375 477.498046875 c 0
 151.069335938 515.165039062 170.736328125 549.665039062 193.403320312 580.998046875 c 0
 214.0703125 612.331054688 235.903320312 638.331054688 258.903320312 658.998046875 c 0
 281.903320312 679.665039062 305.403320312 695.665039062 329.403320312 706.998046875 c 0
 353.403320312 718.331054688 376.403320312 723.998046875 398.403320312 723.998046875 c 0
 422.403320312 723.998046875 451.065429688 717.666992188 484.3984375 705 c 0xb8
EndSplineSet
Validated: 524289
EndChar

StartChar: H
Encoding: 72 72 41
Width: 640
GlyphClass: 2
Flags: HMW
HStem: 311.994 66.002 674.994 20G
VStem: 108 79.499 449.499 83.001 458.499 80.001
LayerCount: 2
Fore
SplineSet
184.999023438 292 m 0xe8
 184.666015625 287.333007812 184.499023438 284 184.499023438 282 c 0
 182.499023438 248.666992188 181.499023438 209.833984375 181.499023438 165.500976562 c 0
 181.499023438 121.16796875 182.499023438 70.9951171875 184.499023438 14.9951171875 c 0
 183.166015625 3.662109375 177.833007812 -5.337890625 168.499023438 -12.0048828125 c 0
 159.166992188 -18.671875 148.833984375 -22.0048828125 137.500976562 -22.0048828125 c 1
 136.833984375 -28.0048828125 135.833984375 -27.671875 134.500976562 -21.0048828125 c 1
 124.500976562 -21.671875 116.16796875 -18.3388671875 109.500976562 -11.005859375 c 0
 103.500976562 -5.005859375 100.500976562 3 100.500976562 13 c 0
 101.16796875 15 101.500976562 16.994140625 101.500976562 18.994140625 c 0
 102.833984375 38.3271484375 103.500976562 81.3330078125 103.500976562 148 c 0
 103.500976562 182.666992188 103.833984375 214 104.500976562 242 c 2
 104.500976562 243 l 2
 104.500976562 265 105.000976562 297.166992188 106.000976562 339.5 c 0
 107.000976562 381.833007812 107.66796875 409.166015625 108.000976562 421.499023438 c 0
 108.333984375 433.83203125 108.500976562 446.165039062 108.500976562 458.498046875 c 0
 108.500976562 470.831054688 108.16796875 490.998046875 107.500976562 518.998046875 c 0
 106.833984375 546.998046875 106.500976562 565.498046875 106.500976562 574.498046875 c 0
 106.500976562 583.498046875 107.500976562 608.662109375 109.500976562 649.995117188 c 0
 110.16796875 665.328125 114.16796875 676.661132812 121.500976562 683.994140625 c 0
 128.833984375 691.327148438 138.166992188 694.994140625 149.499023438 694.994140625 c 2
 152.499023438 694.994140625 l 2
 163.166992188 694.994140625 172.166992188 691.827148438 179.499023438 685.494140625 c 0
 186.833007812 679.161132812 190.499023438 668.328125 190.499023438 652.995117188 c 0
 190.499023438 646.328125 189.666992188 632.1640625 187.999023438 610.497070312 c 0
 186.333007812 588.830078125 185.499023438 568.830078125 185.499023438 550.497070312 c 0
 185.499023438 532.1640625 185.833007812 505.1640625 186.499023438 469.497070312 c 0
 187.166992188 433.830078125 187.499023438 406.663085938 187.499023438 387.99609375 c 2
 187.499023438 377.99609375 l 2
 190.166992188 371.329101562 193.166992188 371.329101562 196.499023438 377.99609375 c 1
 249.833007812 379.329101562 313.833007812 385.662109375 388.499023438 396.995117188 c 0
 417.166992188 400.995117188 440.166992188 403.662109375 457.499023438 404.995117188 c 1
 457.499023438 413.995117188 l 2
 457.499023438 418.662109375 457.166992188 425.662109375 456.499023438 434.995117188 c 0
 455.833007812 444.328125 455.499023438 451.328125 455.499023438 455.995117188 c 0
 454.833007812 497.328125 454.499023438 524.495117188 454.499023438 537.495117188 c 0
 454.499023438 550.495117188 455.166992188 570.995117188 456.499023438 598.995117188 c 0
 457.833007812 626.995117188 458.499023438 643.995117188 458.499023438 649.995117188 c 0
 458.499023438 665.328125 462.333007812 676.661132812 469.999023438 683.994140625 c 0
 477.666992188 691.327148438 486.833984375 694.994140625 497.500976562 694.994140625 c 2
 500.500976562 694.994140625 l 2
 511.833984375 694.994140625 521.166992188 691.827148438 528.499023438 685.494140625 c 0
 535.833007812 679.161132812 539.499023438 668.328125 539.499023438 652.995117188 c 0
 539.499023438 640.328125 538.999023438 614.495117188 537.999023438 575.495117188 c 0
 536.999023438 536.495117188 536.499023438 501.995117188 536.499023438 471.995117188 c 0
 536.499023438 441.995117188 536.833007812 398.995117188 537.499023438 342.995117188 c 0
 538.166992188 327.662109375 538.499023438 305.995117188 538.499023438 277.995117188 c 0xe8
 538.499023438 249.995117188 537.499023438 206.495117188 535.499023438 147.495117188 c 0
 533.499023438 88.4951171875 532.499023438 46.9951171875 532.499023438 22.9951171875 c 2
 532.499023438 16.9951171875 l 1
 532.499023438 14.9951171875 l 2
 532.499023438 4.328125 527.166992188 -4.671875 516.499023438 -12.0048828125 c 0
 507.833007812 -18.671875 497.833007812 -22.0048828125 486.499023438 -22.0048828125 c 1
 485.833007812 -28.0048828125 484.833007812 -27.671875 483.499023438 -21.0048828125 c 1
 472.833007812 -21.671875 464.166992188 -18.3388671875 457.499023438 -11.005859375 c 0
 452.166992188 -5.005859375 449.499023438 3.3271484375 449.499023438 13.994140625 c 2
 449.499023438 18.994140625 l 1xf0
 455.499023438 103.661132812 458.499023438 197.661132812 458.499023438 300.994140625 c 2
 458.499023438 342.995117188 l 1
 454.499023438 336.328125 450.831054688 335.994140625 447.499023438 341.994140625 c 1
 436.166015625 341.327148438 398.166015625 335.994140625 333.499023438 325.994140625 c 0
 269.499023438 316.661132812 223.166015625 311.994140625 194.499023438 311.994140625 c 2
 185.499023438 311.994140625 l 1
 185.499023438 301.994140625 l 2
 185.499023438 299.994140625 185.331054688 296.666992188 184.999023438 292 c 0xe8
EndSplineSet
Validated: 524289
EndChar

StartChar: I
Encoding: 73 73 42
Width: 640
GlyphClass: 2
Flags: HMW
HStem: -6.40211 58.3992 612 69.001 624 64.001
VStem: 278.5 76.001 285.5 75.001
LayerCount: 2
Fore
SplineSet
282.501953125 540 m 2xc8
 282.501953125 546.666992188 283.166992188 560.001953125 284.500976562 580.001953125 c 0
 285.833984375 600.001953125 286.501953125 611.668945312 286.501953125 615.001953125 c 2
 286.501953125 624.001953125 l 1
 252.501953125 624.668945312 224.168945312 625.001953125 201.501953125 625.001953125 c 0
 176.834960938 625.001953125 159.834960938 624.834960938 150.501953125 624.501953125 c 0
 141.168945312 624.168945312 136.168945312 624.001953125 135.501953125 624.001953125 c 0
 122.168945312 624.001953125 112.3359375 626.834960938 106.002929688 632.501953125 c 0
 99.669921875 638.168945312 96.5029296875 645.3359375 96.5029296875 654.002929688 c 2
 96.5029296875 657.002929688 l 2
 96.5029296875 665.002929688 99.5029296875 672.169921875 105.502929688 678.502929688 c 0
 111.502929688 684.8359375 121.8359375 688.002929688 136.502929688 688.002929688 c 0xa8
 191.834960938 690.002929688 241.499023438 691.002929688 285.499023438 691.002929688 c 0
 373.499023438 691.002929688 449.168945312 687.669921875 512.501953125 681.002929688 c 0
 523.834960938 679.669921875 532.502929688 677.002929688 538.502929688 673.002929688 c 0
 545.169921875 668.3359375 548.836914062 660.668945312 549.502929688 650.001953125 c 0
 549.502929688 640.001953125 546.502929688 630.668945312 540.502929688 622.001953125 c 0
 537.836914062 618.001953125 534.169921875 615.001953125 529.502929688 613.001953125 c 0
 526.169921875 611.668945312 523.169921875 611.001953125 520.502929688 611.001953125 c 0
 517.834960938 611.001953125 515.168945312 611.334960938 512.501953125 612.001953125 c 0
 491.834960938 615.334960938 441.166992188 619.001953125 360.500976562 623.001953125 c 1
 360.500976562 613.001953125 l 2
 360.500976562 607.668945312 360.166992188 590.168945312 359.500976562 560.501953125 c 0
 358.833984375 530.834960938 358.500976562 504.66796875 358.500976562 482.000976562 c 2
 358.500976562 436.000976562 l 2
 358.500976562 415.333984375 358.833984375 394.166992188 359.500976562 372.5 c 0
 360.166992188 350.833007812 360.500976562 326.166015625 360.500976562 298.499023438 c 0xc8
 360.500976562 270.83203125 359.500976562 227.999023438 357.500976562 169.999023438 c 0
 355.500976562 111.999023438 354.500976562 75.9990234375 354.500976562 61.9990234375 c 2
 354.500976562 51.9990234375 l 1
 363.500976562 51.9990234375 l 2
 387.500976562 51.9990234375 438.833984375 51.666015625 517.500976562 50.9990234375 c 0
 530.833984375 50.9990234375 539.666992188 48.4990234375 543.999023438 43.4990234375 c 0
 548.333007812 38.4990234375 550.833007812 31.666015625 551.499023438 22.9990234375 c 0
 551.499023438 17.666015625 550.999023438 12.9990234375 549.999023438 8.9990234375 c 0
 548.999023438 4.9990234375 547.166992188 0.9990234375 544.499023438 -3.0009765625 c 0
 543.166992188 -6.333984375 540.833984375 -8.5009765625 537.500976562 -9.5009765625 c 0
 534.166992188 -10.5009765625 531.000976562 -11.16796875 528.000976562 -11.5009765625 c 0
 525.000976562 -11.833984375 522.166992188 -11.6669921875 519.500976562 -11 c 0
 501.500976562 -8.3330078125 472.833984375 -7 433.500976562 -7 c 0
 428.833984375 -7 417.500976562 -6.8330078125 399.500976562 -6.5 c 0
 395.903320312 -6.43359375 392.052734375 -6.400390625 387.948242188 -6.400390625 c 0
 371.521484375 -6.400390625 351.038085938 -6.93359375 326.501953125 -8 c 2
 260.501953125 -15.2001953125 l 2
 245.834960938 -15.2001953125 231.166992188 -14.1337890625 216.500976562 -12.0009765625 c 0
 175.166992188 -13.333984375 146.666992188 -14.0009765625 131.000976562 -14.0009765625 c 0
 115.333984375 -14.0009765625 104.333984375 -11.5009765625 98.0009765625 -6.5009765625 c 0
 91.66796875 -1.5009765625 88.5009765625 4.9990234375 88.5009765625 12.9990234375 c 2
 88.5009765625 14.9990234375 l 2
 88.5009765625 22.9990234375 91.5009765625 30.166015625 97.5009765625 36.4990234375 c 0
 103.500976562 42.83203125 113.833984375 46.33203125 128.500976562 46.9990234375 c 0
 156.500976562 47.666015625 206.500976562 48.998046875 278.500976562 50.998046875 c 1xd0
 283.166992188 133.665039062 285.500976562 215.999023438 285.500976562 297.999023438 c 0
 285.723632812 311.783203125 285.834960938 325.641601562 285.834960938 339.57421875 c 0
 285.834960938 367.418945312 285.389648438 395.560546875 284.501953125 423.998046875 c 0
 283.168945312 453.331054688 282.501953125 484.998046875 282.501953125 518.998046875 c 2
 282.501953125 540 l 2xc8
EndSplineSet
Validated: 524289
EndChar

StartChar: J
Encoding: 74 74 43
Width: 640
GlyphClass: 2
Flags: HMW
HStem: -34.999 82.001 626 65.001
VStem: 86.5 70 340.5 64.001
LayerCount: 2
Fore
SplineSet
224.500976562 626 m 0
 193.16796875 626 171.5 625.666015625 159.5 624.999023438 c 0
 147.5 624.33203125 141.166992188 623.999023438 140.5 623.999023438 c 0
 127.166992188 623.999023438 117.166992188 626.83203125 110.5 632.499023438 c 0
 103.833007812 638.166015625 100.5 645.333007812 100.5 654 c 2
 100.5 657 l 2
 100.5 665 103.666992188 672.166992188 110 678.5 c 0
 116.333007812 684.833007812 126.833007812 688 141.5 688 c 0
 196.166992188 690 245.5 691 289.5 691 c 0
 377.5 691 453.166992188 687.666992188 516.5 681 c 0
 527.833007812 680.333007812 536.5 677.666015625 542.5 672.999023438 c 0
 549.166992188 668.33203125 552.833984375 660.665039062 553.500976562 649.998046875 c 0
 553.500976562 639.998046875 550.500976562 630.665039062 544.500976562 621.998046875 c 0
 541.833984375 617.998046875 538.166992188 614.998046875 533.5 612.998046875 c 0
 530.833007812 611.665039062 528 610.998046875 525 610.998046875 c 0
 522 610.998046875 519.166992188 611.331054688 516.5 611.998046875 c 0
 496.5 615.331054688 457.833007812 618.331054688 400.5 620.998046875 c 1
 400.5 610.998046875 l 2
 400.5 591.665039062 401.166992188 562.33203125 402.5 522.999023438 c 0
 403.166992188 480.999023438 404.166992188 445.33203125 405.5 415.999023438 c 0
 406.833007812 387.999023438 407.5 353.83203125 407.5 313.499023438 c 0
 407.5 273.166015625 406.5 237.333007812 404.5 206 c 0
 399.833007812 146 392.666015625 98 382.999023438 62 c 0
 373.33203125 26 362.165039062 0.8330078125 349.498046875 -13.5 c 0
 336.831054688 -27.8330078125 321.831054688 -35 304.498046875 -35 c 0
 285.165039062 -35 265.83203125 -31.1669921875 246.499023438 -23.5 c 0
 227.166015625 -15.8330078125 210.166015625 -5.666015625 195.499023438 7.0009765625 c 0
 180.166015625 19.66796875 165.666015625 33.66796875 151.999023438 49.0009765625 c 0
 138.33203125 64.333984375 126.999023438 79.5009765625 117.999023438 94.5009765625 c 0
 108.999023438 109.500976562 101.83203125 123.000976562 96.4990234375 135.000976562 c 0
 91.166015625 147.000976562 88.166015625 156.66796875 87.4990234375 164.000976562 c 0
 86.83203125 167.333984375 86.4990234375 171.000976562 86.4990234375 175.000976562 c 0
 86.4990234375 183.000976562 87.83203125 192.000976562 90.4990234375 202.000976562 c 0
 91.83203125 208.66796875 94.9990234375 214.16796875 99.9990234375 218.500976562 c 0
 104.999023438 222.833984375 111.499023438 225.666992188 119.499023438 227 c 2
 127.499023438 227 l 2
 135.499023438 227.666992188 141.83203125 225.666992188 146.499023438 221 c 0
 153.166015625 214.333007812 156.499023438 206 156.499023438 196 c 0
 156.499023438 176.666992188 162.499023438 154.333984375 174.499023438 129.000976562 c 0
 181.166015625 115.000976562 189.833007812 102.000976562 200.5 90.0009765625 c 0
 209.833007812 78.0009765625 222.666015625 67.833984375 238.999023438 59.5009765625 c 0
 255.33203125 51.16796875 273.499023438 47.0009765625 293.499023438 47.0009765625 c 0
 308.166015625 47.0009765625 319.166015625 60.66796875 326.499023438 88.0009765625 c 0
 333.83203125 117.333984375 338.499023438 164.666992188 340.499023438 230 c 2
 340.499023438 254 l 2
 340.499023438 267.333007812 339.999023438 310 338.999023438 382 c 0
 338.399414062 425.202148438 338.099609375 471.404296875 338.099609375 520.606445312 c 0
 338.099609375 553.404296875 338.233398438 587.536132812 338.5 623.000976562 c 1
 292.5 625.000976562 254.500976562 626 224.500976562 626 c 0
EndSplineSet
Validated: 524289
EndChar

StartChar: K
Encoding: 75 75 44
Width: 640
GlyphClass: 2
Flags: HMW
HStem: -21.0341 21G 694.001 21G
VStem: 93.499 79.002 97.501 83
LayerCount: 2
Fore
SplineSet
91.5 541.5 m 0xe0
 91.5 556.5 92.16796875 578.333007812 93.5009765625 607 c 0
 94.833984375 635 95.5009765625 652.666992188 95.5009765625 660 c 0
 96.16796875 678.666992188 100.16796875 692.333984375 107.500976562 701.000976562 c 0
 114.833984375 709.66796875 124.166992188 714.000976562 135.5 714.000976562 c 2
 138.5 714.000976562 l 2
 149.166992188 714.66796875 158.166992188 711.000976562 165.5 703.000976562 c 0
 172.83203125 695.66796875 176.5 682.334960938 176.5 663.001953125 c 0
 176.5 647.668945312 175.83203125 613.001953125 174.5 559.001953125 c 0
 173.166992188 505.001953125 172.166992188 452.334960938 171.5 401.001953125 c 1
 205.5 437.001953125 244.83203125 480.001953125 289.5 530.001953125 c 0
 378.83203125 625.334960938 431.5 680.001953125 447.5 694.001953125 c 0
 455.5 703.334960938 463.166992188 709.334960938 470.5 712.001953125 c 0
 475.166992188 714.001953125 479.166992188 715.001953125 482.5 715.001953125 c 0
 489.166992188 715.001953125 495.5 711.000976562 501.5 703.000976562 c 0
 506.83203125 694.333984375 509.5 685.334960938 509.5 676.001953125 c 0
 509.5 667.334960938 503.5 657.334960938 491.5 646.001953125 c 0
 481.5 634.001953125 447.5 597.668945312 389.5 537.001953125 c 0
 334.166992188 473.668945312 282.833984375 416.001953125 235.5 364.001953125 c 1
 241.5 357.001953125 l 2
 262.833984375 333.668945312 298.5 296.3359375 348.5 245.002929688 c 0
 449.16796875 142.3359375 509.5 79.3359375 529.5 56.0029296875 c 0
 538.16796875 46.0029296875 543.5 39.3359375 545.5 36.0029296875 c 0
 547.5 32.669921875 548.5 29.3369140625 548.5 26.00390625 c 0
 548.5 20.00390625 547.833984375 14.6708984375 546.5 10.00390625 c 0
 543.16796875 0.00390625 538.16796875 -7.6630859375 531.5 -12.99609375 c 0
 524.833984375 -18.3291015625 518.5 -20.9970703125 512.5 -20.9970703125 c 0
 512.10546875 -21.021484375 511.708984375 -21.0341796875 511.311523438 -21.0341796875 c 0
 500.9921875 -21.0341796875 490.0546875 -12.6875 478.5 4.0029296875 c 0
 471.166992188 13.3359375 447.5 36.3359375 407.5 73.0029296875 c 0
 370.166992188 110.3359375 329.833984375 151.3359375 286.5 196.002929688 c 0
 243.16796875 244.002929688 210.834960938 282.002929688 189.501953125 310.002929688 c 2
 172.501953125 331.002929688 l 1
 172.501953125 284.002929688 l 1xe0
 180.501953125 24.001953125 l 2
 179.834960938 9.3349609375 174.83203125 -1.9970703125 165.499023438 -9.9970703125 c 0
 156.166015625 -17.9970703125 145.8359375 -21.9970703125 134.502929688 -21.9970703125 c 1
 133.8359375 -27.9970703125 132.8359375 -27.6640625 131.502929688 -20.9970703125 c 1
 120.8359375 -21.6640625 112.168945312 -17.3310546875 105.501953125 -7.998046875 c 0
 100.168945312 0.001953125 97.501953125 10.6689453125 97.501953125 24.001953125 c 2
 97.501953125 28.001953125 l 2xd0
 99.501953125 50.001953125 100.501953125 86.6689453125 100.501953125 138.001953125 c 0
 99.8349609375 233.334960938 97.5 339.001953125 93.5 455.001953125 c 0
 92.1669921875 497.668945312 91.5 526.5 91.5 541.5 c 0xe0
EndSplineSet
Validated: 524289
EndChar

StartChar: L
Encoding: 76 76 45
Width: 640
GlyphClass: 2
Flags: HMW
HStem: -15 67.001
VStem: 121.498 72.0039
LayerCount: 2
Fore
SplineSet
538 72.5 m 0
 541 68.1669921875 543.5 63.5 545.5 58.5 c 0
 547.5 53.5 548.5 48.6669921875 548.5 44 c 0
 548.5 34 546.333007812 26.5 542 21.5 c 0
 537.666992188 16.5 528.166992188 12.6669921875 513.5 10 c 0
 468.833007812 1.3330078125 403.833007812 -5 318.5 -9 c 0
 232.5 -13 168.166992188 -15 125.5 -15 c 0
 115.5 -15.6669921875 107.166992188 -12.333984375 100.5 -5.0009765625 c 0
 94.5 0.9990234375 91.5 9.33203125 91.5 19.9990234375 c 0
 91.5 21.9990234375 91.6669921875 24.9990234375 92 28.9990234375 c 0
 92.3330078125 32.9990234375 96.166015625 69.9990234375 103.499023438 139.999023438 c 0
 110.83203125 211.33203125 116.165039062 279.999023438 119.498046875 345.999023438 c 0
 120.831054688 363.999023438 121.498046875 388.166015625 121.498046875 418.499023438 c 0
 121.498046875 448.83203125 121.331054688 471.83203125 120.998046875 487.499023438 c 0
 120.665039062 503.166015625 119.83203125 554.333007812 118.499023438 641 c 0
 119.166015625 657 123.333007812 668.666992188 131 676 c 0
 138.666992188 683.333007812 147.833984375 687 158.500976562 687 c 2
 161.500976562 687 l 2
 172.16796875 687 181.16796875 683.666992188 188.500976562 677 c 0
 195.833984375 670.333007812 199.500976562 659.666015625 199.500976562 644.999023438 c 0
 199.723632812 638.7734375 199.834960938 631.732421875 199.834960938 623.875976562 c 0
 199.834960938 608.174804688 199.390625 589.215820312 198.501953125 566.999023438 c 0
 196.501953125 517.666015625 194.834960938 475.333007812 193.501953125 440 c 0
 191.501953125 389.333007812 189.833984375 345.333007812 188.500976562 308 c 0
 187.833984375 280.666992188 185.501953125 240.333984375 181.501953125 187.000976562 c 0
 177.501953125 133.66796875 175.501953125 92.0009765625 175.501953125 62.0009765625 c 2
 175.501953125 52.0009765625 l 1
 199.500976562 52.0009765625 l 2
 248.833984375 52.66796875 306.16796875 56.3349609375 371.500976562 63.001953125 c 0
 439.500976562 69.6689453125 486.16796875 76.001953125 511.500976562 82.001953125 c 0
 514.16796875 82.6689453125 516.66796875 83.001953125 519.000976562 83.001953125 c 0
 521.333984375 83.001953125 523.833984375 82.6689453125 526.500976562 82.001953125 c 0
 531.16796875 80.001953125 535 76.8330078125 538 72.5 c 0
EndSplineSet
Validated: 524289
EndChar

StartChar: M
Encoding: 77 77 46
Width: 640
GlyphClass: 2
Flags: HMW
HStem: -10 21G<98.499 103.834> 684.001 20G
VStem: 69.4995 68.001 275.501 85.999
LayerCount: 2
Fore
SplineSet
126.5 5 m 0
 118.5 -5 109.166992188 -10 98.5 -10 c 0
 79.1669921875 -9.3330078125 69.5 13.333984375 69.5 58.0009765625 c 0
 69.5 66.0009765625 70.3330078125 79.833984375 72 99.5009765625 c 0
 73.6669921875 119.16796875 76.1669921875 145.000976562 79.5 177.000976562 c 0
 82.8330078125 209.000976562 85.5 237.000976562 87.5 261.000976562 c 0
 93.5 342.333984375 97.5 394.000976562 99.5 416.000976562 c 0
 102.166992188 444.66796875 105.5 480.000976562 109.5 522.000976562 c 0
 117.5 603.333984375 125.83203125 652.333984375 134.5 669.000976562 c 0
 141.166992188 681.000976562 150.5 690.000976562 162.5 696.000976562 c 0
 173.83203125 701.333984375 184.5 704.000976562 194.5 704.000976562 c 2
 198.5 704.000976562 l 2
 209.83203125 704.000976562 219.166015625 702.000976562 226.499023438 698.000976562 c 0
 235.166015625 692.66796875 240.83203125 684.334960938 243.5 673.001953125 c 0
 250.83203125 643.668945312 259 595.3359375 268 528.002929688 c 0
 277 460.669921875 286.166992188 383.502929688 295.5 296.502929688 c 0
 304.83203125 209.502929688 311.5 152.002929688 315.5 124.002929688 c 0
 318.16796875 106.669921875 321.166992188 84 324.5 56 c 1
 326.5 83.3330078125 328.166992188 106.002929688 329.5 124.002929688 c 0
 335.5 218.669921875 342.5 303.669921875 350.5 379.002929688 c 0
 356.5 434.3359375 364.33203125 489.668945312 374 545.001953125 c 0
 383.666992188 600.334960938 392.166992188 643.001953125 399.5 673.001953125 c 0
 401.5 681.001953125 406 687.668945312 413 693.001953125 c 0
 420 698.334960938 427.166992188 701.66796875 434.5 703.000976562 c 0
 439.83203125 703.66796875 444.5 704.000976562 448.5 704.000976562 c 2
 458.5 704.000976562 l 1
 462.5 704.000976562 l 1
 475.5 704.000976562 l 2
 478.83203125 704.000976562 483.33203125 703.333984375 489 702.000976562 c 0
 494.666992188 700.66796875 498.833984375 698.834960938 501.5 696.501953125 c 0
 504.16796875 694.168945312 507 690.668945312 510 686.001953125 c 0
 513 681.334960938 515.16796875 675.334960938 516.5 668.001953125 c 0
 519.16796875 647.334960938 527 547.501953125 540 368.501953125 c 0
 553 189.501953125 562.16796875 88.001953125 567.5 64.001953125 c 0
 569.5 53.3349609375 570.5 43.66796875 570.5 35.0009765625 c 0
 570.5 15.0009765625 563.5 1.66796875 549.5 -4.9990234375 c 0
 544.833984375 -6.9990234375 540 -7.9990234375 535 -7.9990234375 c 0
 530 -7.9990234375 524.5 -6.33203125 518.5 -2.9990234375 c 0
 508.5 2.333984375 500.5 14.333984375 494.5 33.0009765625 c 0
 480.5 77.0009765625 468.16796875 271.000976562 457.5 615.000976562 c 0
 456.833984375 631.66796875 456.166992188 653.000976562 455.5 679.000976562 c 1
 451.5 653.66796875 447.5 633.000976562 443.5 617.000976562 c 0
 424.83203125 520.333984375 412.83203125 432.333984375 407.5 353.000976562 c 0
 402.166992188 277.000976562 394.666992188 205.000976562 385 137.000976562 c 0
 375.33203125 69.0009765625 367.5 27.66796875 361.5 13.0009765625 c 0
 356.166992188 -0.33203125 340.833984375 -6.9990234375 315.5 -6.9990234375 c 2
 311.5 -6.9990234375 l 2
 302.16796875 -6.9990234375 294.16796875 -5.166015625 287.5 -1.4990234375 c 0
 280.833984375 2.16796875 276.833984375 7.3349609375 275.5 14.001953125 c 0
 268.16796875 46.001953125 255.834960938 119.168945312 238.501953125 233.501953125 c 0
 221.16796875 347.834960938 205.16796875 458.001953125 190.501953125 564.001953125 c 0
 187.16796875 579.334960938 184.16796875 599.66796875 181.501953125 625.000976562 c 1
 179.501953125 599.66796875 177.501953125 579.334960938 175.501953125 564.001953125 c 0
 170.834960938 505.334960938 167.16796875 457.66796875 164.5 421.000976562 c 0
 162.5 387.000976562 160.5 358.000976562 158.5 334.000976562 c 0
 156.5 300.66796875 154.5 271.66796875 152.5 247.000976562 c 0
 150.5 219.000976562 148.16796875 190.000976562 145.5 160.000976562 c 0
 143.5 131.333984375 141.5 107.666992188 139.5 89 c 0
 138.16796875 75 137.5 64 137.5 56 c 0
 138.16796875 48 138.5 46 138.5 46 c 2
 138.5 28.6669921875 134.5 15 126.5 5 c 0
EndSplineSet
Validated: 524289
EndChar

StartChar: N
Encoding: 78 78 47
Width: 640
GlyphClass: 2
Flags: HMW
HStem: -11.998 21G 685 20G<141.5 149.5 501.501 509.834>
VStem: 93.501 63 100.751 58.7499 473.502 72.999 484.002 62.4988
LayerCount: 2
Fore
SplineSet
506.500976562 705 m 0xc8
 513.16796875 705 518.5 704.333007812 522.5 703 c 0
 526.5 701 529.5 699 531.5 697 c 0
 533.5 695 535.166992188 690.666992188 536.5 684 c 0
 538.5 680 539.833007812 675.666992188 540.5 671 c 0
 541.166992188 666.333007812 542.166992188 659 543.5 649 c 0
 544.833007812 639.666992188 545.833007812 586.666992188 546.5 490 c 2
 546.5 448 l 2
 546.5 364 545.5 285.666992188 543.5 213 c 0
 541.5 139.666992188 539.166992188 89.6669921875 536.5 63 c 0
 533.833007812 35 531.166015625 17.6669921875 528.499023438 11 c 0
 523.166015625 -5.6669921875 507.833007812 -14 482.5 -14 c 1
 480.5 -20.6669921875 478.833007812 -20.6669921875 477.5 -14 c 1
 468.833007812 -14 461.5 -11.6669921875 455.5 -7 c 0
 449.5 -2.3330078125 445.166992188 4 442.5 12 c 0
 437.833007812 22.6669921875 422.5 52.333984375 396.5 101.000976562 c 2
 322.5 247.000976562 l 2
 297.166992188 295.66796875 270.833984375 350.334960938 243.500976562 411.001953125 c 0
 215.500976562 473.001953125 193.833984375 525.668945312 178.500976562 569.001953125 c 0
 170.500976562 592.334960938 162.833984375 613.334960938 155.500976562 632.001953125 c 1
 156.833984375 610.001953125 158.166992188 586.668945312 159.5 562.001953125 c 0
 162.833007812 504.668945312 164.5 450.001953125 164.5 398.001953125 c 0
 164.5 384.668945312 164.166992188 359.3359375 163.5 322.002929688 c 0
 162.833007812 284.002929688 161.5 237.669921875 159.5 183.002929688 c 0xd8
 157.5 128.3359375 156.5 90.6689453125 156.5 70.001953125 c 2
 156.5 62.001953125 l 2
 157.166992188 57.3349609375 157.5 53.3349609375 157.5 50.001953125 c 2
 157.5 44.001953125 l 2
 157.5 24.6689453125 154.166992188 10.6689453125 147.5 2.001953125 c 0
 140.833007812 -7.3310546875 132.5 -11.998046875 122.5 -11.998046875 c 2
 120.5 -11.998046875 l 2
 115.833007812 -11.998046875 111.833007812 -10.6650390625 108.5 -7.998046875 c 0
 105.166992188 -5.3310546875 102.5 -0.6640625 100.5 6.0029296875 c 0
 95.8330078125 16.669921875 93.5 33.0029296875 93.5 55.0029296875 c 0xe0
 93.5 67.669921875 94.5 119.002929688 96.5 209.002929688 c 0
 98.5 299.669921875 99.8330078125 378.669921875 100.5 446.002929688 c 0
 100.666992188 462.837890625 100.75 479.505859375 100.75 496.006835938 c 0
 100.75 545.504882812 100 593.50390625 98.5 640.002929688 c 2
 98.5 647.002929688 l 2
 99.1669921875 657.002929688 100.833984375 666.002929688 103.500976562 674.002929688 c 0
 106.16796875 682.669921875 110.16796875 689.336914062 115.500976562 694.00390625 c 0
 124.833984375 701.336914062 135.5 705 147.5 705 c 0
 151.5 705 155.16796875 704.670898438 158.500976562 704.00390625 c 2
 159.5 704.00390625 l 2
 170.166992188 704.00390625 179.16796875 701.666992188 186.500976562 697 c 0
 195.16796875 691.666992188 201.16796875 682.00390625 204.500976562 668.00390625 c 0
 217.833984375 624.00390625 253.833984375 541.336914062 312.500976562 420.00390625 c 0
 370.500976562 299.336914062 420.833984375 202.00390625 463.500976562 128.00390625 c 0
 468.833984375 115.336914062 474.166992188 106.00390625 479.5 100.00390625 c 1
 480.166992188 110.00390625 480.833984375 122.336914062 481.500976562 137.00390625 c 0
 482.833984375 179.670898438 483.500976562 234.670898438 483.500976562 302.00390625 c 0
 483.834960938 318.670898438 484.001953125 336.170898438 484.001953125 354.50390625 c 0xd4
 484.001953125 372.836914062 483.834960938 392.00390625 483.501953125 412.00390625 c 0
 481.501953125 532.670898438 478.168945312 612.337890625 473.501953125 651.004882812 c 1
 473.501953125 657.004882812 l 2
 473.501953125 669.671875 476.168945312 680.338867188 481.501953125 689.005859375 c 0
 488.168945312 699.672851562 496.500976562 705 506.500976562 705 c 0xc8
EndSplineSet
Validated: 524289
EndChar

StartChar: O
Encoding: 79 79 48
Width: 640
GlyphClass: 2
Flags: HMW
HStem: -23.998 73.999 646.508 71.4923
VStem: 94.5 77.002 468.501 76.999
LayerCount: 2
Fore
SplineSet
424.5 120.001953125 m 0
 437.166992188 137.334960938 446.833984375 157.001953125 453.500976562 179.001953125 c 0
 456.16796875 187.668945312 459.000976562 208.001953125 462.000976562 240.001953125 c 0
 465.000976562 272.001953125 467.16796875 309.668945312 468.500976562 353.001953125 c 0
 469.16796875 365.668945312 469.500976562 378.3359375 469.500976562 391.002929688 c 0
 469.500976562 422.3359375 468.16796875 453.002929688 465.500976562 483.002929688 c 0
 461.500976562 529.002929688 446.500976562 567.669921875 420.500976562 599.002929688 c 0
 396.500976562 630.3359375 366.833984375 646.168945312 331.500976562 646.501953125 c 0
 331.095703125 646.505859375 330.690429688 646.5078125 330.286132812 646.5078125 c 0
 295.487304688 646.5078125 266.225585938 632.338867188 242.500976562 604.000976562 c 0
 219.16796875 576.000976562 201.834960938 537.66796875 190.501953125 489.000976562 c 0
 177.834960938 437.000976562 171.501953125 377.66796875 171.501953125 311.000976562 c 0
 172.168945312 269.66796875 174.501953125 233.334960938 178.501953125 202.001953125 c 0
 180.501953125 183.334960938 184.501953125 164.66796875 190.501953125 146.000976562 c 0
 196.501953125 127.333984375 203.834960938 111.000976562 212.501953125 97.0009765625 c 0
 220.501953125 83.0009765625 231.168945312 71.66796875 244.501953125 63.0009765625 c 0
 257.834960938 54.333984375 272.833007812 50.0009765625 289.5 50.0009765625 c 0
 324.833007812 50.0009765625 356.501953125 59.66796875 384.501953125 79.0009765625 c 0
 399.168945312 89.0009765625 412.5 102.668945312 424.5 120.001953125 c 0
94.5 261 m 2
 94.5 291.666992188 94.833984375 316.166992188 95.5009765625 334.5 c 0
 96.16796875 352.833007812 97.5009765625 377.333007812 99.5009765625 408 c 0
 103.500976562 467.333007812 114.500976562 522 132.500976562 572 c 0
 149.16796875 614.666992188 177.500976562 649.666992188 217.500976562 677 c 0
 254.16796875 704.333007812 295.834960938 718 342.501953125 718 c 0
 365.834960938 718 388.16796875 713 409.500976562 703 c 0
 431.500976562 693 451.833984375 678.5 470.500976562 659.5 c 0
 489.16796875 640.5 504.66796875 616.166992188 517.000976562 586.5 c 0
 529.333984375 556.833007812 537.166992188 523.333007812 540.5 486 c 0
 543.833007812 444.666992188 545.5 402.333984375 545.5 359.000976562 c 0
 545.5 325.66796875 544.333007812 290.834960938 542 254.501953125 c 0
 539.666992188 218.168945312 535.5 188.668945312 529.5 166.001953125 c 0
 520.833007812 134.668945312 510.333007812 107.668945312 498 85.001953125 c 0
 485.666992188 62.3349609375 472.333984375 44.001953125 458.000976562 30.001953125 c 0
 443.66796875 16.001953125 427.16796875 5.001953125 408.500976562 -2.998046875 c 0
 391.16796875 -10.998046875 373.16796875 -16.6650390625 354.500976562 -19.998046875 c 0
 335.833984375 -22.6650390625 314.166992188 -23.998046875 289.5 -23.998046875 c 0
 254.166992188 -23.998046875 221.5 -11.998046875 191.5 12.001953125 c 0
 160.166992188 36.001953125 136.166992188 68.001953125 119.5 108.001953125 c 0
 102.833007812 148.001953125 94.5 191.334960938 94.5 238.001953125 c 2
 94.5 243.001953125 l 1
 94.5 261 l 2
EndSplineSet
Validated: 524289
EndChar

StartChar: P
Encoding: 80 80 49
Width: 640
GlyphClass: 2
Flags: HMW
HStem: -19 21G<150.501 156.501 156.501 159.501> 230 71.998 639.996 52.0029
VStem: 113.501 75 120.701 81.7989 463.5 73<470.999 514.997>
LayerCount: 2
Fore
SplineSet
191.500976562 630.998046875 m 1xf4
 188.500976562 547.998046875 l 2
 186.3671875 480.26953125 185.30078125 417.874023438 185.30078125 360.810546875 c 0
 185.30078125 346.5390625 185.3671875 332.6015625 185.500976562 318.998046875 c 1
 192.500976562 316.998046875 l 2
 219.833984375 306.998046875 250.500976562 301.998046875 284.500976562 301.998046875 c 0
 302.500976562 301.998046875 319.000976562 303.498046875 334.000976562 306.498046875 c 0
 349.000976562 309.498046875 362.16796875 313.498046875 373.500976562 318.498046875 c 0
 384.833984375 323.498046875 394.833984375 329.998046875 403.500976562 337.998046875 c 0
 412.833984375 345.998046875 420.833984375 354.165039062 427.500976562 362.498046875 c 0
 434.16796875 370.831054688 439.834960938 380.331054688 444.501953125 390.998046875 c 0
 449.168945312 401.665039062 452.668945312 411.498046875 455.001953125 420.498046875 c 0
 457.334960938 429.498046875 459.16796875 439.665039062 460.500976562 450.998046875 c 0
 461.833984375 462.331054688 462.666992188 471.6640625 463 478.997070312 c 0
 463.333007812 486.330078125 463.5 494.997070312 463.5 504.997070312 c 0
 463.5 524.997070312 459.833007812 543.1640625 452.5 559.497070312 c 0
 445.166992188 575.830078125 435.833007812 588.997070312 424.5 598.997070312 c 0
 413.833007812 608.330078125 402.000976562 616.163085938 389.000976562 622.49609375 c 0
 376.000976562 628.829101562 363.66796875 633.329101562 352.000976562 635.99609375 c 0
 340.333984375 638.663085938 328.833007812 639.99609375 317.5 639.99609375 c 0
 296.833007812 639.99609375 254.833984375 636.998046875 191.500976562 630.998046875 c 1xf4
112.5 626 m 1
 111.166992188 621.333007812 109.5 622.998046875 107.5 630.998046875 c 0
 104.833007812 635.665039062 103.5 640 103.5 644 c 0
 104.166992188 644.666992188 104.5 645.666992188 104.5 647 c 0
 105.166992188 653.666992188 107.666992188 659.5 112 664.5 c 0
 116.333007812 669.5 120.833007812 672.666992188 125.5 674 c 0
 148.833007812 679.333007812 183.5 683.666015625 229.5 686.999023438 c 0
 271.5 690.33203125 300.833007812 691.999023438 317.5 691.999023438 c 0
 357.5 691.999023438 393.166992188 684.33203125 424.5 668.999023438 c 0
 458.5 653.666015625 485.5 630.666015625 505.5 599.999023438 c 0
 525.5 569.33203125 535.833007812 532.33203125 536.5 488.999023438 c 0
 536.5 452.999023438 530.666992188 419.166015625 519 387.499023438 c 0
 507.333007812 355.83203125 491.333007812 328.33203125 471 304.999023438 c 0
 450.666992188 281.666015625 426.5 263.333007812 398.5 250 c 0
 371.833007812 236.666992188 342.833007812 230 311.5 230 c 0
 264.833007812 230 227.5 233.333007812 199.5 240 c 1
 194.833007812 234.666992188 190.5 235.666992188 186.5 243 c 1
 189.166992188 189.666992188 193.166992188 130.666992188 198.5 66 c 0
 201.166992188 35.3330078125 202.5 17.666015625 202.5 12.9990234375 c 2
 202.5 11.9990234375 l 2
 202.5 2.666015625 198.5 -4.6669921875 190.5 -10 c 0
 181.166992188 -16 170.833984375 -19 159.500976562 -19 c 2
 156.500976562 -19 l 2
 144.500976562 -19 134.833984375 -15.6669921875 127.500976562 -9 c 0
 122.16796875 -3.6669921875 119.500976562 3.666015625 119.500976562 12.9990234375 c 0
 119.500976562 14.9990234375 119.66796875 20.166015625 120.000976562 28.4990234375 c 0
 120.333984375 36.83203125 120.500976562 55.6650390625 120.500976562 84.998046875 c 0
 120.634765625 91.7998046875 120.701171875 100.109375 120.701171875 109.926757812 c 0xec
 120.701171875 149.180664062 119.634765625 212.538085938 117.500976562 299.998046875 c 0
 115.500976562 371.998046875 114.500976562 420.998046875 114.500976562 446.998046875 c 0
 113.833984375 462.998046875 113.500976562 484.498046875 113.500976562 511.498046875 c 0
 113.500976562 538.498046875 114.16796875 575.665039062 115.500976562 622.998046875 c 1
 114.16796875 617.665039062 113.166992188 618.666992188 112.5 626 c 1
EndSplineSet
Validated: 524289
EndChar

StartChar: Q
Encoding: 81 81 50
Width: 640
GlyphClass: 2
Flags: HMW
HStem: -24.0667 74.0667 646.001 71.999
VStem: 90.514 75.998 287.509 51.0039 468.512 74.002
LayerCount: 2
Fore
SplineSet
237.514648438 -11 m 0
 215.514648438 -1.6669921875 195.513671875 11.166015625 177.513671875 27.4990234375 c 0
 159.513671875 43.83203125 144.180664062 63.33203125 131.513671875 85.9990234375 c 0
 106.846679688 129.999023438 93.1796875 182.666015625 90.5126953125 243.999023438 c 2
 90.5126953125 295.999023438 l 2
 90.49609375 298.634765625 90.48828125 301.259765625 90.48828125 303.874023438 c 0
 90.48828125 408.397460938 103.49609375 496.10546875 129.512695312 566.999023438 c 0
 144.845703125 609.666015625 172.845703125 645.333007812 213.512695312 674 c 0
 251.512695312 703.333007812 293.512695312 718 339.512695312 718 c 0
 387.512695312 717.333007812 429.512695312 699.333007812 465.512695312 664 c 0
 483.512695312 646.666992188 498.845703125 622.833984375 511.512695312 592.500976562 c 0
 524.1796875 562.16796875 532.512695312 527.66796875 536.512695312 489.000976562 c 0
 540.512695312 450.333984375 542.512695312 406.000976562 542.512695312 356.000976562 c 0
 542.512695312 269.333984375 538.1796875 204.000976562 529.512695312 160.000976562 c 0
 515.512695312 89.333984375 484.1796875 39.0009765625 435.512695312 9.0009765625 c 0
 432.1796875 2.333984375 429.1796875 0.6669921875 426.512695312 4 c 1
 443.845703125 -21.3330078125 460.178710938 -44.3330078125 475.51171875 -65 c 0
 490.178710938 -85 501.01171875 -99.5 508.01171875 -108.5 c 0
 515.01171875 -117.5 527.51171875 -133.666992188 545.51171875 -157 c 0
 548.178710938 -160.333007812 549.51171875 -164.333007812 549.51171875 -169 c 2
 549.51171875 -173 l 2
 548.178710938 -180.333007812 545.678710938 -187.166015625 542.01171875 -193.499023438 c 0
 538.344726562 -199.83203125 534.51171875 -204.33203125 530.51171875 -206.999023438 c 0
 525.178710938 -210.33203125 519.51171875 -211.999023438 513.51171875 -211.999023438 c 0
 510.844726562 -211.999023438 507.844726562 -211.666015625 504.51171875 -210.999023438 c 0
 494.51171875 -207.666015625 485.51171875 -201.333007812 477.51171875 -192 c 0
 467.51171875 -180.666992188 451.51171875 -158.666992188 429.51171875 -126 c 0
 409.51171875 -93.3330078125 388.51171875 -58 366.51171875 -20 c 1
 364.51171875 -26.6669921875 362.51171875 -27 360.51171875 -21 c 1
 345.178710938 -23 328.178710938 -24 309.51171875 -24 c 0
 307.778320312 -24.044921875 306.053710938 -24.0673828125 304.337890625 -24.0673828125 c 0
 280.321289062 -24.0673828125 258.047851562 -19.7109375 237.514648438 -11 c 0
326.51171875 208.999023438 m 0
 331.178710938 205.666015625 335.178710938 199.333007812 338.51171875 190 c 0
 349.178710938 156.666992188 365.178710938 120.333984375 386.51171875 81.0009765625 c 2
 391.51171875 71.0009765625 l 1
 399.51171875 77.0009765625 l 2
 428.844726562 98.333984375 448.177734375 131.333984375 457.510742188 176.000976562 c 0
 459.510742188 185.333984375 461.84375 205.666992188 464.510742188 237 c 0
 466.510742188 267.666992188 467.84375 306 468.510742188 352 c 2
 468.510742188 368 l 2
 468.59375 373.084960938 468.635742188 378.138671875 468.635742188 383.161132812 c 0
 468.635742188 418.305664062 466.59375 451.918945312 462.510742188 484.000976562 c 0
 456.510742188 532.66796875 441.177734375 572.000976562 416.510742188 602.000976562 c 0
 393.84375 631.333984375 364.510742188 646.000976562 328.510742188 646.000976562 c 0
 292.510742188 646.000976562 262.510742188 632.333984375 238.510742188 605.000976562 c 0
 214.510742188 577.66796875 196.84375 539.66796875 185.510742188 491.000976562 c 0
 172.84375 439.000976562 166.510742188 383.66796875 166.510742188 325.000976562 c 2
 166.510742188 321.000976562 l 2
 167.177734375 302.333984375 168.177734375 282.666992188 169.510742188 262 c 0
 172.177734375 221.333007812 179.677734375 185.5 192.010742188 154.5 c 0
 204.34375 123.5 220.676757812 98.3330078125 241.009765625 79 c 0
 261.342773438 59.6669921875 284.17578125 50 309.508789062 50 c 2
 318.508789062 50 l 1
 333.508789062 50 l 1
 326.508789062 65 l 2
 311.841796875 94.3330078125 301.674804688 116.833007812 296.0078125 132.5 c 0
 290.340820312 148.166992188 287.5078125 161.666992188 287.5078125 173 c 0
 287.5078125 187 292.174804688 198 301.5078125 206 c 0
 306.840820312 210.666992188 311.840820312 213 316.5078125 213 c 0
 319.840820312 213 323.178710938 211.666015625 326.51171875 208.999023438 c 0
EndSplineSet
Validated: 524289
EndChar

StartChar: R
Encoding: 82 82 51
Width: 640
GlyphClass: 2
Flags: HMW
HStem: -18.998 21G 280.633 68.3692 675.001 20G
VStem: 95.501 76.001 99.502 83.998 104.168 59.3317 105.001 70.5 461.499 72.0029
LayerCount: 2
Fore
SplineSet
439.501953125 504.000976562 m 0xe3
 424.834960938 522.66796875 407.500976562 538.834960938 387.500976562 552.501953125 c 0
 367.500976562 566.168945312 345.16796875 578.668945312 320.500976562 590.001953125 c 0
 273.833984375 610.668945312 227.833984375 625.001953125 182.500976562 633.001953125 c 2
 171.500976562 635.001953125 l 1xf1
 172.833984375 578.334960938 174.166992188 532.334960938 175.5 497.001953125 c 0
 175.5 485.001953125 174.499023438 465.334960938 172.499023438 438.001953125 c 0
 171.83203125 429.334960938 169.166015625 400.334960938 164.499023438 351.001953125 c 1
 172.499023438 350.001953125 l 2
 181.260742188 348.477539062 191.981445312 347.715820312 204.661132812 347.715820312 c 0
 214.171875 347.715820312 224.784179688 348.14453125 236.499023438 349.001953125 c 0
 314.499023438 352.334960938 367.83203125 359.334960938 396.499023438 370.001953125 c 0
 407.83203125 374.001953125 418.499023438 379.334960938 428.499023438 386.001953125 c 0
 450.499023438 400.001953125 461.499023438 419.668945312 461.499023438 445.001953125 c 0
 461.499023438 465.668945312 454.168945312 485.333984375 439.501953125 504.000976562 c 0xe3
474.500976562 3 m 0
 463.833984375 17 448.49609375 34.66796875 428.49609375 56.0009765625 c 0
 410.49609375 76.66796875 388.666015625 99.5009765625 362.999023438 124.500976562 c 0
 337.33203125 149.500976562 308.165039062 174.333984375 275.498046875 199.000976562 c 0
 242.831054688 223.66796875 209.831054688 243.334960938 176.498046875 258.001953125 c 1
 171.831054688 253.334960938 167.1640625 255.334960938 162.497070312 264.001953125 c 1
 163.1640625 252.668945312 163.497070312 249.001953125 163.497070312 249.001953125 c 2xe5
 164.830078125 210.334960938 168.497070312 163.001953125 174.497070312 107.001953125 c 0
 180.497070312 51.001953125 183.497070312 19.3349609375 183.497070312 12.001953125 c 0
 182.830078125 2.6689453125 178.497070312 -4.6640625 170.497070312 -9.9970703125 c 0
 161.1640625 -15.9970703125 150.831054688 -18.9970703125 139.498046875 -18.9970703125 c 2
 136.498046875 -18.9970703125 l 2
 125.165039062 -18.9970703125 115.83203125 -15.6640625 108.499023438 -8.9970703125 c 0
 102.499023438 -3.6640625 99.4990234375 3.6689453125 99.4990234375 13.001953125 c 0xe9
 100.166015625 14.3349609375 100.499023438 16.3349609375 100.499023438 19.001953125 c 0
 102.499023438 53.6689453125 103.666015625 83.501953125 103.999023438 108.501953125 c 0
 104.110351562 116.827148438 104.166015625 129.051757812 104.166015625 145.176757812 c 0xe5
 104.166015625 177.473632812 103.943359375 225.415039062 103.498046875 289.000976562 c 2
 103.498046875 305.500976562 l 2
 103.498046875 314.500976562 103.998046875 333.000976562 104.998046875 361.000976562 c 0xe3
 105.998046875 389.000976562 106.498046875 412.833984375 106.498046875 432.500976562 c 0
 106.498046875 452.16796875 106.165039062 472.000976562 105.498046875 492.000976562 c 0
 104.831054688 512.000976562 102.998046875 541.500976562 99.998046875 580.500976562 c 0
 96.998046875 619.500976562 95.498046875 642.66796875 95.498046875 650.000976562 c 2
 95.498046875 656.000976562 l 1
 95.498046875 659.000976562 l 2xf1
 95.498046875 667.000976562 99.1650390625 674.66796875 106.498046875 682.000976562 c 0
 113.165039062 690.66796875 122.83203125 695.000976562 135.499023438 695.000976562 c 0
 146.166015625 695.000976562 154.499023438 692.66796875 160.499023438 688.000976562 c 1
 161.83203125 681.333984375 162.830078125 681.000976562 163.497070312 687.000976562 c 1xe5
 217.497070312 684.333984375 264.999023438 677.166992188 305.999023438 665.5 c 0
 346.999023438 653.833007812 380.83203125 639.666015625 407.499023438 622.999023438 c 0
 435.499023438 606.33203125 459.33203125 587.33203125 478.999023438 565.999023438 c 0
 498.666015625 544.666015625 512.666015625 523.499023438 520.999023438 502.499023438 c 0
 529.33203125 481.499023438 533.499023438 460.33203125 533.499023438 438.999023438 c 0
 533.499023438 408.33203125 525.83203125 382.999023438 510.499023438 362.999023438 c 0
 503.166015625 353.666015625 493.499023438 345.166015625 481.499023438 337.499023438 c 0
 469.499023438 329.83203125 456.499023438 323.33203125 442.499023438 317.999023438 c 0
 429.166015625 312.666015625 413.829101562 307.833007812 396.49609375 303.5 c 0
 379.163085938 299.166992188 361.666992188 295.833984375 344 293.500976562 c 0
 326.333007812 291.16796875 306.5 289.000976562 284.5 287.000976562 c 0
 278.7109375 282.755859375 272.809570312 280.6328125 266.796875 280.6328125 c 0
 262.423828125 280.6328125 257.9921875 281.755859375 253.500976562 284.000976562 c 1
 261.301757812 273.201171875 269.372070312 267.801757812 277.711914062 267.801757812 c 0
 278.638671875 267.801757812 279.568359375 267.868164062 280.501953125 268.000976562 c 0
 341.168945312 234.000976562 395.16796875 194.333984375 442.500976562 149.000976562 c 0
 493.16796875 103.000976562 526.501953125 64.333984375 542.501953125 33.0009765625 c 0
 543.834960938 28.333984375 544.501953125 23.833984375 544.501953125 19.5009765625 c 0
 544.501953125 15.16796875 543.834960938 11.0009765625 542.501953125 7.0009765625 c 0
 539.168945312 -0.33203125 534.168945312 -6.33203125 527.501953125 -10.9990234375 c 0
 521.501953125 -15.666015625 515.501953125 -17.9990234375 509.501953125 -17.9990234375 c 0
 496.834960938 -17.9990234375 485.16796875 -11 474.500976562 3 c 0
EndSplineSet
Validated: 524289
EndChar

StartChar: S
Encoding: 83 83 52
Width: 640
GlyphClass: 2
Flags: HMW
HStem: -29.0049 67.0049 664.997 59.1678
VStem: 118.499 81 471.496 80.0039
LayerCount: 2
Fore
SplineSet
89.4970703125 102 m 0
 91.4970703125 110.666992188 96.830078125 117 105.497070312 121 c 0
 112.830078125 124.333007812 117.997070312 126.333007812 120.997070312 127 c 0
 123.997070312 127.666992188 126.497070312 128 128.497070312 128 c 2
 134.497070312 128 l 2
 138.497070312 128 142.6640625 126 146.997070312 122 c 0
 151.330078125 118 156.163085938 112 161.49609375 104 c 0
 174.829101562 84 192.49609375 68 214.49609375 56 c 0
 235.163085938 44 258.49609375 38 284.49609375 38 c 0
 299.829101562 38 315.99609375 40.3330078125 332.99609375 45 c 0
 349.99609375 49.6669921875 366.49609375 56.6669921875 382.49609375 66 c 0
 398.49609375 75.3330078125 412.829101562 86.666015625 425.49609375 99.9990234375 c 0
 438.829101562 113.33203125 449.829101562 128.999023438 458.49609375 146.999023438 c 0
 467.163085938 164.999023438 471.49609375 183.999023438 471.49609375 203.999023438 c 0
 471.49609375 214.666015625 470.829101562 224.499023438 469.49609375 233.499023438 c 0
 468.163085938 242.499023438 465.330078125 252.166015625 460.997070312 262.499023438 c 0
 456.6640625 272.83203125 451.1640625 282.33203125 444.497070312 290.999023438 c 0
 437.830078125 299.666015625 428.830078125 308.333007812 417.497070312 317 c 0
 406.1640625 325.666992188 393.331054688 333 378.998046875 339 c 0
 364.665039062 345 346.998046875 350.666992188 325.998046875 356 c 0
 304.998046875 361.333007812 281.831054688 365.666015625 256.498046875 368.999023438 c 0
 235.831054688 371.666015625 216.831054688 377.666015625 199.498046875 386.999023438 c 0
 180.831054688 396.33203125 165.831054688 407.83203125 154.498046875 421.499023438 c 0
 143.165039062 435.166015625 134.33203125 449.666015625 127.999023438 464.999023438 c 0
 121.666015625 480.33203125 118.499023438 495.33203125 118.499023438 509.999023438 c 0
 118.499023438 531.999023438 122.166015625 553.33203125 129.499023438 573.999023438 c 0
 136.83203125 594.666015625 148.165039062 614.166015625 163.498046875 632.499023438 c 0
 178.831054688 650.83203125 197.1640625 666.665039062 218.497070312 679.998046875 c 0
 238.497070312 693.331054688 262.6640625 703.998046875 290.997070312 711.998046875 c 0
 319.330078125 719.998046875 349.830078125 723.998046875 382.497070312 723.998046875 c 0
 385.165039062 724.109375 388.018554688 724.165039062 391.057617188 724.165039062 c 0
 406.2421875 724.165039062 426.055664062 722.776367188 450.497070312 719.999023438 c 0
 481.1640625 716.666015625 501.831054688 712.999023438 512.498046875 708.999023438 c 0
 523.165039062 704.999023438 530.498046875 698.999023438 534.498046875 690.999023438 c 0
 538.498046875 684.33203125 540.498046875 677.665039062 540.498046875 670.998046875 c 0
 540.498046875 662.331054688 538.498046875 655.998046875 534.498046875 651.998046875 c 0
 531.831054688 648.665039062 528.498046875 646.83203125 524.498046875 646.499023438 c 0
 520.498046875 646.166015625 516.831054688 645.999023438 513.498046875 645.999023438 c 0
 504.165039062 645.999023438 495.165039062 647.666015625 486.498046875 650.999023438 c 0
 474.498046875 654.33203125 464.831054688 656.665039062 457.498046875 657.998046875 c 0
 450.165039062 659.331054688 438.83203125 660.6640625 423.499023438 661.997070312 c 0
 408.83203125 663.997070312 392.499023438 664.997070312 374.499023438 664.997070312 c 0
 345.83203125 664.997070312 318.499023438 660.330078125 292.499023438 650.997070312 c 0
 265.83203125 640.997070312 243.83203125 625.997070312 226.499023438 605.997070312 c 0
 208.499023438 585.997070312 199.499023438 562.997070312 199.499023438 536.997070312 c 0
 200.166015625 506.997070312 212.166015625 481.997070312 235.499023438 461.997070312 c 0
 257.499023438 441.997070312 288.166015625 430.997070312 327.499023438 428.997070312 c 0
 361.499023438 426.997070312 391.166015625 421.330078125 416.499023438 411.997070312 c 0
 443.166015625 402.6640625 464.833007812 391.331054688 481.5 377.998046875 c 0
 498.166992188 364.665039062 512 348.998046875 523 330.998046875 c 0
 534 312.998046875 541.5 295.331054688 545.5 277.998046875 c 0
 549.5 260.665039062 551.5 241.998046875 551.5 221.998046875 c 0
 551.5 191.331054688 546.5 162.6640625 536.5 135.997070312 c 0
 526.5 109.330078125 512.666992188 86.1630859375 495 66.49609375 c 0
 477.333007812 46.8291015625 456.5 29.662109375 432.5 14.9951171875 c 0
 411.166992188 0.328125 387.5 -10.671875 361.5 -18.0048828125 c 0
 335.5 -25.337890625 308.833007812 -29.0048828125 281.5 -29.0048828125 c 0
 239.5 -29.0048828125 201.5 -20.0048828125 167.5 -2.0048828125 c 0
 133.5 15.9951171875 110.166992188 37.662109375 97.5 62.9951171875 c 0
 91.5 75.662109375 88.5 86.3291015625 88.5 94.99609375 c 0
 88.5 97.6630859375 88.830078125 100 89.4970703125 102 c 0
EndSplineSet
Validated: 524289
EndChar

StartChar: T
Encoding: 84 84 53
Width: 640
GlyphClass: 2
Flags: HMW
HStem: 612 69<516 518 514 522.333> 640.499 54.499
VStem: 283.999 75 293.999 76.001
LayerCount: 2
Fore
SplineSet
126.999023438 694 m 0x60
 164.33203125 688 294 683.666992188 516 681 c 0
 528.666992188 681 537.666992188 678 543 672 c 0
 548.333007812 666 551.333007812 658.666992188 552 650 c 0
 552 639.333007812 548.666992188 630 542 622 c 0
 536.666992188 615.333007812 528.666992188 612 518 612 c 2
 514 612 l 2
 495.333007812 610.366210938 476.870117188 609.549804688 458.611328125 609.549804688 c 0
 424.703125 609.549804688 391.499023438 612.366210938 358.999023438 618 c 1xa0
 359.666015625 475.333007812 363.333007812 277.333007812 370 24 c 0
 369.333007812 12.6669921875 364.666015625 3.6669921875 355.999023438 -3 c 0
 347.33203125 -9.6669921875 337.999023438 -13 327.999023438 -13 c 1
 326.666015625 -19.6669921875 325.666015625 -19.6669921875 324.999023438 -13 c 1
 314.999023438 -13 306.999023438 -9.3330078125 300.999023438 -2 c 0
 296.33203125 3.3330078125 293.999023438 11 293.999023438 21 c 0x90
 293.999023438 23 294.166015625 26.6669921875 294.499023438 32 c 0
 294.83203125 37.3330078125 294.999023438 51.666015625 294.999023438 74.9990234375 c 0
 294.999023438 122.999023438 293.166015625 208.33203125 289.499023438 330.999023438 c 0
 285.83203125 453.666015625 283.999023438 540.999023438 283.999023438 592.999023438 c 2
 283.999023438 619.999023438 l 1
 195.33203125 624.666015625 144.33203125 627.999023438 130.999023438 629.999023438 c 0
 117.666015625 631.999023438 107.333007812 635.499023438 100 640.499023438 c 0
 92.6669921875 645.499023438 89 651.999023438 89 659.999023438 c 1
 88.3330078125 653.999023438 88 654.666015625 88 661.999023438 c 0
 88 671.33203125 91.3330078125 679.665039062 98 686.998046875 c 0
 102.666992188 692.331054688 109.333984375 694.998046875 118.000976562 694.998046875 c 0
 120.66796875 694.998046875 123.666015625 694.666992188 126.999023438 694 c 0x60
EndSplineSet
Validated: 524289
EndChar

StartChar: U
Encoding: 85 85 54
Width: 640
GlyphClass: 2
Flags: HMW
HStem: -28.999 71 669.52 20G
VStem: 83.5379 73.9219 482.461 74.001
LayerCount: 2
Fore
SplineSet
552.461914062 250 m 0
 551.794921875 220.666992188 547.961914062 193.334960938 540.961914062 168.001953125 c 0
 533.961914062 142.668945312 525.461914062 120.668945312 515.461914062 102.001953125 c 0
 505.461914062 83.3349609375 493.62890625 66.501953125 479.961914062 51.501953125 c 0
 466.294921875 36.501953125 451.794921875 24.001953125 436.461914062 14.001953125 c 0
 422.461914062 4.001953125 407.794921875 -4.1650390625 392.461914062 -10.498046875 c 0
 377.12890625 -16.8310546875 362.12890625 -21.498046875 347.461914062 -24.498046875 c 0
 332.794921875 -27.498046875 317.627929688 -28.998046875 301.9609375 -28.998046875 c 0
 286.293945312 -28.998046875 269.793945312 -26.498046875 252.4609375 -21.498046875 c 0
 235.127929688 -16.498046875 217.127929688 -7.6650390625 198.4609375 5.001953125 c 0
 178.4609375 17.6689453125 160.793945312 33.501953125 145.4609375 52.501953125 c 0
 130.127929688 71.501953125 117.127929688 96.001953125 106.4609375 126.001953125 c 0
 95.7939453125 156.001953125 89.7939453125 190.334960938 88.4609375 229.001953125 c 0
 85.1787109375 353.721679688 83.5380859375 453.825195312 83.5380859375 529.3125 c 0
 83.5380859375 576.490234375 84.1787109375 614.053710938 85.4609375 642.001953125 c 0
 85.4609375 657.334960938 89.6279296875 669.16796875 97.9609375 677.500976562 c 0
 105.973632812 685.513671875 115.373046875 689.520507812 126.16015625 689.520507812 c 0
 126.590820312 689.520507812 127.024414062 689.513671875 127.459960938 689.500976562 c 0
 138.79296875 689.16796875 146.79296875 685.334960938 151.459960938 678.001953125 c 0
 155.459960938 671.334960938 157.459960938 661.334960938 157.459960938 648.001953125 c 0
 158.126953125 422.001953125 160.126953125 285.334960938 163.459960938 238.001953125 c 0
 164.79296875 215.334960938 167.125976562 196.334960938 170.458984375 181.001953125 c 0
 173.791992188 165.668945312 179.458984375 149.168945312 187.458984375 131.501953125 c 0
 195.458984375 113.834960938 204.791992188 98.66796875 215.458984375 86.0009765625 c 0
 226.125976562 73.333984375 239.625976562 62.833984375 255.958984375 54.5009765625 c 0
 272.291992188 46.16796875 290.791992188 42.0009765625 311.458984375 42.0009765625 c 0
 358.125976562 42.66796875 395.79296875 59.66796875 424.459960938 93.0009765625 c 0
 455.126953125 126.333984375 472.793945312 176.666992188 477.4609375 244 c 0
 479.4609375 272.666992188 480.793945312 305.166992188 481.4609375 341.5 c 0
 482.127929688 377.833007812 482.4609375 405 482.4609375 423 c 0
 482.4609375 441 482.293945312 469.833007812 481.9609375 509.5 c 0
 481.627929688 549.166992188 481.4609375 590.666992188 481.4609375 634 c 0
 481.4609375 661.333007812 485.127929688 678 492.4609375 684 c 0
 495.793945312 686.666992188 499.293945312 688.5 502.9609375 689.5 c 0
 506.627929688 690.5 511.4609375 691 517.4609375 691 c 0
 526.793945312 691 534.793945312 687.166992188 541.4609375 679.5 c 0
 548.127929688 671.833007812 551.794921875 660.333007812 552.461914062 645 c 0
 555.12890625 593 556.461914062 534 556.461914062 468 c 0
 556.461914062 402 555.12890625 329.333007812 552.461914062 250 c 0
EndSplineSet
Validated: 524289
EndChar

